G04 #@! TF.FileFunction,Copper,L1,Top,Signal*
%FSLAX46Y46*%
G04 Gerber Fmt 4.6, Leading zero omitted, Abs format (unit mm)*
G04 Created by KiCad (PCBNEW 0.201511171411+6319~30~ubuntu15.10.1-product) date Fr 04 Dez 2015 11:44:42 CET*
%MOMM*%
G01*
G04 APERTURE LIST*
%ADD10C,0.100000*%
%ADD11C,0.300000*%
%ADD12O,4.000000X5.000000*%
%ADD13R,6.000000X6.000000*%
%ADD14C,6.000000*%
%ADD15R,1.300000X1.300000*%
%ADD16C,1.300000*%
%ADD17R,1.198880X1.198880*%
%ADD18R,1.200000X1.200000*%
%ADD19C,5.000000*%
%ADD20C,2.000000*%
%ADD21R,2.032000X3.657600*%
%ADD22R,2.032000X1.016000*%
%ADD23R,0.406400X1.016000*%
%ADD24R,1.850000X1.730000*%
%ADD25R,1.250000X1.500000*%
%ADD26R,1.500000X1.250000*%
%ADD27R,1.600000X1.000000*%
%ADD28R,1.600000X0.550000*%
%ADD29R,0.550000X1.600000*%
%ADD30R,1.727200X2.032000*%
%ADD31O,1.727200X2.032000*%
%ADD32R,1.300000X1.500000*%
%ADD33R,1.800000X0.600000*%
%ADD34R,1.727200X1.727200*%
%ADD35O,1.727200X1.727200*%
%ADD36R,0.800000X0.750000*%
%ADD37R,0.750000X0.800000*%
%ADD38R,1.250000X1.000000*%
%ADD39R,0.800100X1.300480*%
%ADD40R,0.599440X1.399540*%
%ADD41R,4.000500X2.799080*%
%ADD42R,0.800000X1.000000*%
%ADD43R,0.900000X0.500000*%
%ADD44R,0.500000X0.900000*%
%ADD45C,0.889000*%
%ADD46C,0.254000*%
%ADD47C,0.508000*%
%ADD48C,0.381000*%
%ADD49C,1.016000*%
%ADD50C,4.000000*%
%ADD51C,3.048000*%
G04 APERTURE END LIST*
D10*
D11*
X230564571Y-60832857D02*
X230993143Y-59690000D01*
X231421714Y-60832857D01*
X231707429Y-59332857D02*
X231707429Y-58190000D01*
D12*
X232664000Y-89408000D03*
X232664000Y-81508000D03*
X232664000Y-73608000D03*
D13*
X204470000Y-53340000D03*
D14*
X212370000Y-53340000D03*
D15*
X218059000Y-53594000D03*
D16*
X221859000Y-53594000D03*
D17*
X191041020Y-94488000D03*
X188942980Y-94488000D03*
D18*
X204724000Y-73406000D03*
X205724000Y-73406000D03*
X206724000Y-73406000D03*
X206724000Y-72406000D03*
X205724000Y-72406000D03*
X203724000Y-71406000D03*
X203724000Y-72406000D03*
X204724000Y-72406000D03*
X204724000Y-71406000D03*
X206724000Y-71406000D03*
X205724000Y-71406000D03*
X206724000Y-70406000D03*
X205724000Y-70406000D03*
X204724000Y-70406000D03*
D19*
X189230000Y-53086000D03*
X232230000Y-53086000D03*
D20*
X189230000Y-101086000D03*
D19*
X232230000Y-107586000D03*
D21*
X192278000Y-59944000D03*
D22*
X198882000Y-59944000D03*
X198882000Y-57658000D03*
X198882000Y-62230000D03*
D23*
X214884000Y-68554600D03*
X214233760Y-68554600D03*
X213583520Y-68554600D03*
X212933280Y-68554600D03*
X214884000Y-63754000D03*
X214233760Y-63754000D03*
X213583520Y-63754000D03*
X212933280Y-63754000D03*
D24*
X213909000Y-66154000D03*
D23*
X212344000Y-78765400D03*
X212994240Y-78765400D03*
X213644480Y-78765400D03*
X214294720Y-78765400D03*
X212344000Y-83566000D03*
X212994240Y-83566000D03*
X213644480Y-83566000D03*
X214294720Y-83566000D03*
D24*
X213319000Y-81166000D03*
D23*
X214884000Y-100304600D03*
X214233760Y-100304600D03*
X213583520Y-100304600D03*
X212933280Y-100304600D03*
X214884000Y-95504000D03*
X214233760Y-95504000D03*
X213583520Y-95504000D03*
X212933280Y-95504000D03*
D24*
X213909000Y-97904000D03*
D25*
X209296000Y-95778000D03*
X209296000Y-98278000D03*
D26*
X215118000Y-90932000D03*
X212618000Y-90932000D03*
D25*
X210312000Y-64028000D03*
X210312000Y-66528000D03*
D26*
X212364000Y-86614000D03*
X214864000Y-86614000D03*
D25*
X210058000Y-83292000D03*
X210058000Y-80792000D03*
D26*
X215372000Y-60452000D03*
X212872000Y-60452000D03*
D25*
X201422000Y-82062000D03*
X201422000Y-84562000D03*
D27*
X201676000Y-62968000D03*
X201676000Y-59968000D03*
D28*
X190568000Y-79750000D03*
X190568000Y-80550000D03*
X190568000Y-81350000D03*
X190568000Y-82150000D03*
X190568000Y-82950000D03*
X190568000Y-83750000D03*
X190568000Y-84550000D03*
X190568000Y-85350000D03*
D29*
X192018000Y-86800000D03*
X192818000Y-86800000D03*
X193618000Y-86800000D03*
X194418000Y-86800000D03*
X195218000Y-86800000D03*
X196018000Y-86800000D03*
X196818000Y-86800000D03*
X197618000Y-86800000D03*
D28*
X199068000Y-85350000D03*
X199068000Y-84550000D03*
X199068000Y-83750000D03*
X199068000Y-82950000D03*
X199068000Y-82150000D03*
X199068000Y-81350000D03*
X199068000Y-80550000D03*
X199068000Y-79750000D03*
D29*
X197618000Y-78300000D03*
X196818000Y-78300000D03*
X196018000Y-78300000D03*
X195218000Y-78300000D03*
X194418000Y-78300000D03*
X193618000Y-78300000D03*
X192818000Y-78300000D03*
X192018000Y-78300000D03*
D30*
X191262000Y-108966000D03*
D31*
X193802000Y-108966000D03*
X196342000Y-108966000D03*
D32*
X191262000Y-103361500D03*
X191262000Y-106061500D03*
D33*
X187960000Y-84648000D03*
X187960000Y-85598000D03*
X187960000Y-86548000D03*
D34*
X196850000Y-54356000D03*
D35*
X196850000Y-51816000D03*
X194310000Y-54356000D03*
X194310000Y-51816000D03*
D27*
X201676000Y-65048000D03*
X201676000Y-68048000D03*
X201676000Y-72620000D03*
X201676000Y-69620000D03*
X204216000Y-62968000D03*
X204216000Y-59968000D03*
D36*
X190258000Y-71882000D03*
X191758000Y-71882000D03*
D37*
X187960000Y-79998000D03*
X187960000Y-78498000D03*
X203708000Y-84062000D03*
X203708000Y-82562000D03*
X201422000Y-93714000D03*
X201422000Y-92214000D03*
X199644000Y-90944000D03*
X199644000Y-92444000D03*
X197866000Y-89928000D03*
X197866000Y-91428000D03*
D38*
X189738000Y-57166000D03*
X189738000Y-59166000D03*
D39*
X196278500Y-103581200D03*
X193738500Y-103581200D03*
X193738500Y-97078800D03*
X196278500Y-97078800D03*
D40*
X218567000Y-90805000D03*
X218567000Y-96139000D03*
X219837000Y-90805000D03*
X221107000Y-90805000D03*
X222377000Y-90805000D03*
X219837000Y-96139000D03*
X221107000Y-96139000D03*
X222377000Y-96139000D03*
D41*
X220472000Y-92202000D03*
D42*
X218948000Y-91313000D03*
X219710000Y-91313000D03*
X220472000Y-91313000D03*
X221234000Y-91313000D03*
X221996000Y-91313000D03*
X218948000Y-92329000D03*
X219710000Y-92329000D03*
X220472000Y-92329000D03*
X221234000Y-92329000D03*
X221996000Y-92329000D03*
X218948000Y-93154500D03*
X219710000Y-93154500D03*
X220472000Y-93154500D03*
X221234000Y-93154500D03*
X221996000Y-93154500D03*
D40*
X224663000Y-90805000D03*
X224663000Y-96139000D03*
X225933000Y-90805000D03*
X227203000Y-90805000D03*
X228473000Y-90805000D03*
X225933000Y-96139000D03*
X227203000Y-96139000D03*
X228473000Y-96139000D03*
D41*
X226568000Y-92202000D03*
D42*
X225044000Y-91313000D03*
X225806000Y-91313000D03*
X226568000Y-91313000D03*
X227330000Y-91313000D03*
X228092000Y-91313000D03*
X225044000Y-92329000D03*
X225806000Y-92329000D03*
X226568000Y-92329000D03*
X227330000Y-92329000D03*
X228092000Y-92329000D03*
X225044000Y-93154500D03*
X225806000Y-93154500D03*
X226568000Y-93154500D03*
X227330000Y-93154500D03*
X228092000Y-93154500D03*
D40*
X218567000Y-99441000D03*
X218567000Y-104775000D03*
X219837000Y-99441000D03*
X221107000Y-99441000D03*
X222377000Y-99441000D03*
X219837000Y-104775000D03*
X221107000Y-104775000D03*
X222377000Y-104775000D03*
D41*
X220472000Y-100838000D03*
D42*
X218948000Y-99949000D03*
X219710000Y-99949000D03*
X220472000Y-99949000D03*
X221234000Y-99949000D03*
X221996000Y-99949000D03*
X218948000Y-100965000D03*
X219710000Y-100965000D03*
X220472000Y-100965000D03*
X221234000Y-100965000D03*
X221996000Y-100965000D03*
X218948000Y-101790500D03*
X219710000Y-101790500D03*
X220472000Y-101790500D03*
X221234000Y-101790500D03*
X221996000Y-101790500D03*
D40*
X224663000Y-99441000D03*
X224663000Y-104775000D03*
X225933000Y-99441000D03*
X227203000Y-99441000D03*
X228473000Y-99441000D03*
X225933000Y-104775000D03*
X227203000Y-104775000D03*
X228473000Y-104775000D03*
D41*
X226568000Y-100838000D03*
D42*
X225044000Y-99949000D03*
X225806000Y-99949000D03*
X226568000Y-99949000D03*
X227330000Y-99949000D03*
X228092000Y-99949000D03*
X225044000Y-100965000D03*
X225806000Y-100965000D03*
X226568000Y-100965000D03*
X227330000Y-100965000D03*
X228092000Y-100965000D03*
X225044000Y-101790500D03*
X225806000Y-101790500D03*
X226568000Y-101790500D03*
X227330000Y-101790500D03*
X228092000Y-101790500D03*
D40*
X228473000Y-88519000D03*
X228473000Y-83185000D03*
X227203000Y-88519000D03*
X225933000Y-88519000D03*
X224663000Y-88519000D03*
X227203000Y-83185000D03*
X225933000Y-83185000D03*
X224663000Y-83185000D03*
D41*
X226568000Y-87122000D03*
D42*
X228092000Y-88011000D03*
X227330000Y-88011000D03*
X226568000Y-88011000D03*
X225806000Y-88011000D03*
X225044000Y-88011000D03*
X228092000Y-86995000D03*
X227330000Y-86995000D03*
X226568000Y-86995000D03*
X225806000Y-86995000D03*
X225044000Y-86995000D03*
X228092000Y-86169500D03*
X227330000Y-86169500D03*
X226568000Y-86169500D03*
X225806000Y-86169500D03*
X225044000Y-86169500D03*
D40*
X222377000Y-88519000D03*
X222377000Y-83185000D03*
X221107000Y-88519000D03*
X219837000Y-88519000D03*
X218567000Y-88519000D03*
X221107000Y-83185000D03*
X219837000Y-83185000D03*
X218567000Y-83185000D03*
D41*
X220472000Y-87122000D03*
D42*
X221996000Y-88011000D03*
X221234000Y-88011000D03*
X220472000Y-88011000D03*
X219710000Y-88011000D03*
X218948000Y-88011000D03*
X221996000Y-86995000D03*
X221234000Y-86995000D03*
X220472000Y-86995000D03*
X219710000Y-86995000D03*
X218948000Y-86995000D03*
X221996000Y-86169500D03*
X221234000Y-86169500D03*
X220472000Y-86169500D03*
X219710000Y-86169500D03*
X218948000Y-86169500D03*
D40*
X222377000Y-80137000D03*
X222377000Y-74803000D03*
X221107000Y-80137000D03*
X219837000Y-80137000D03*
X218567000Y-80137000D03*
X221107000Y-74803000D03*
X219837000Y-74803000D03*
X218567000Y-74803000D03*
D41*
X220472000Y-78740000D03*
D42*
X221996000Y-79629000D03*
X221234000Y-79629000D03*
X220472000Y-79629000D03*
X219710000Y-79629000D03*
X218948000Y-79629000D03*
X221996000Y-78613000D03*
X221234000Y-78613000D03*
X220472000Y-78613000D03*
X219710000Y-78613000D03*
X218948000Y-78613000D03*
X221996000Y-77787500D03*
X221234000Y-77787500D03*
X220472000Y-77787500D03*
X219710000Y-77787500D03*
X218948000Y-77787500D03*
D40*
X228473000Y-80137000D03*
X228473000Y-74803000D03*
X227203000Y-80137000D03*
X225933000Y-80137000D03*
X224663000Y-80137000D03*
X227203000Y-74803000D03*
X225933000Y-74803000D03*
X224663000Y-74803000D03*
D41*
X226568000Y-78740000D03*
D42*
X228092000Y-79629000D03*
X227330000Y-79629000D03*
X226568000Y-79629000D03*
X225806000Y-79629000D03*
X225044000Y-79629000D03*
X228092000Y-78613000D03*
X227330000Y-78613000D03*
X226568000Y-78613000D03*
X225806000Y-78613000D03*
X225044000Y-78613000D03*
X228092000Y-77787500D03*
X227330000Y-77787500D03*
X226568000Y-77787500D03*
X225806000Y-77787500D03*
X225044000Y-77787500D03*
D40*
X224663000Y-58293000D03*
X224663000Y-63627000D03*
X225933000Y-58293000D03*
X227203000Y-58293000D03*
X228473000Y-58293000D03*
X225933000Y-63627000D03*
X227203000Y-63627000D03*
X228473000Y-63627000D03*
D41*
X226568000Y-59690000D03*
D42*
X225044000Y-58801000D03*
X225806000Y-58801000D03*
X226568000Y-58801000D03*
X227330000Y-58801000D03*
X228092000Y-58801000D03*
X225044000Y-59817000D03*
X225806000Y-59817000D03*
X226568000Y-59817000D03*
X227330000Y-59817000D03*
X228092000Y-59817000D03*
X225044000Y-60642500D03*
X225806000Y-60642500D03*
X226568000Y-60642500D03*
X227330000Y-60642500D03*
X228092000Y-60642500D03*
D40*
X218567000Y-58293000D03*
X218567000Y-63627000D03*
X219837000Y-58293000D03*
X221107000Y-58293000D03*
X222377000Y-58293000D03*
X219837000Y-63627000D03*
X221107000Y-63627000D03*
X222377000Y-63627000D03*
D41*
X220472000Y-59690000D03*
D42*
X218948000Y-58801000D03*
X219710000Y-58801000D03*
X220472000Y-58801000D03*
X221234000Y-58801000D03*
X221996000Y-58801000D03*
X218948000Y-59817000D03*
X219710000Y-59817000D03*
X220472000Y-59817000D03*
X221234000Y-59817000D03*
X221996000Y-59817000D03*
X218948000Y-60642500D03*
X219710000Y-60642500D03*
X220472000Y-60642500D03*
X221234000Y-60642500D03*
X221996000Y-60642500D03*
D40*
X218567000Y-66421000D03*
X218567000Y-71755000D03*
X219837000Y-66421000D03*
X221107000Y-66421000D03*
X222377000Y-66421000D03*
X219837000Y-71755000D03*
X221107000Y-71755000D03*
X222377000Y-71755000D03*
D41*
X220472000Y-67818000D03*
D42*
X218948000Y-66929000D03*
X219710000Y-66929000D03*
X220472000Y-66929000D03*
X221234000Y-66929000D03*
X221996000Y-66929000D03*
X218948000Y-67945000D03*
X219710000Y-67945000D03*
X220472000Y-67945000D03*
X221234000Y-67945000D03*
X221996000Y-67945000D03*
X218948000Y-68770500D03*
X219710000Y-68770500D03*
X220472000Y-68770500D03*
X221234000Y-68770500D03*
X221996000Y-68770500D03*
D40*
X224663000Y-66421000D03*
X224663000Y-71755000D03*
X225933000Y-66421000D03*
X227203000Y-66421000D03*
X228473000Y-66421000D03*
X225933000Y-71755000D03*
X227203000Y-71755000D03*
X228473000Y-71755000D03*
D41*
X226568000Y-67818000D03*
D42*
X225044000Y-66929000D03*
X225806000Y-66929000D03*
X226568000Y-66929000D03*
X227330000Y-66929000D03*
X228092000Y-66929000D03*
X225044000Y-67945000D03*
X225806000Y-67945000D03*
X226568000Y-67945000D03*
X227330000Y-67945000D03*
X228092000Y-67945000D03*
X225044000Y-68770500D03*
X225806000Y-68770500D03*
X226568000Y-68770500D03*
X227330000Y-68770500D03*
X228092000Y-68770500D03*
D43*
X199390000Y-99302000D03*
X199390000Y-97802000D03*
D44*
X195568000Y-89662000D03*
X194068000Y-89662000D03*
X215634000Y-103632000D03*
X214134000Y-103632000D03*
X203212000Y-95758000D03*
X204712000Y-95758000D03*
D43*
X187452000Y-72402000D03*
X187452000Y-73902000D03*
D44*
X195568000Y-91694000D03*
X194068000Y-91694000D03*
X231914000Y-85852000D03*
X233414000Y-85852000D03*
X215888000Y-92710000D03*
X214388000Y-92710000D03*
X203212000Y-97790000D03*
X204712000Y-97790000D03*
X195568000Y-93726000D03*
X194068000Y-93726000D03*
D43*
X234442000Y-63512000D03*
X234442000Y-65012000D03*
D44*
X203212000Y-100330000D03*
X204712000Y-100330000D03*
X191758000Y-74422000D03*
X190258000Y-74422000D03*
X206998000Y-87503000D03*
X205498000Y-87503000D03*
D43*
X204343000Y-91555000D03*
X204343000Y-90055000D03*
X215392000Y-75450000D03*
X215392000Y-76950000D03*
X207518000Y-78601000D03*
X207518000Y-77101000D03*
X207010000Y-66687000D03*
X207010000Y-68187000D03*
D44*
X211697000Y-74295000D03*
X210197000Y-74295000D03*
D21*
X192024000Y-67437000D03*
D22*
X198628000Y-67437000D03*
X198628000Y-65151000D03*
X198628000Y-69723000D03*
D45*
X211709000Y-82423000D03*
X201676000Y-61468000D03*
X199136000Y-52070000D03*
X216408000Y-95250000D03*
X211328000Y-92710000D03*
X215900000Y-65024000D03*
X211836000Y-65024000D03*
X206375000Y-101346000D03*
X205486000Y-67564000D03*
X205232000Y-66294000D03*
X205486000Y-77343000D03*
X223393000Y-106680000D03*
X222123000Y-106680000D03*
X225933000Y-73279000D03*
X220345000Y-73279000D03*
X215392000Y-73279000D03*
X223520000Y-73279000D03*
X216789000Y-73279000D03*
X227076000Y-106172000D03*
X225806000Y-106172000D03*
X224536000Y-106172000D03*
X220980000Y-106172000D03*
X219710000Y-106172000D03*
X218440000Y-106172000D03*
X211836000Y-97790000D03*
X228600000Y-97790000D03*
X227330000Y-97790000D03*
X226060000Y-97790000D03*
X224790000Y-97790000D03*
X222504000Y-97790000D03*
X221234000Y-97790000D03*
X219964000Y-97790000D03*
X218694000Y-97790000D03*
X211836000Y-93980000D03*
X216916000Y-96520000D03*
X209804000Y-58674000D03*
X223520000Y-89662000D03*
X197358000Y-64008000D03*
X192278000Y-97091500D03*
X194310000Y-84074000D03*
X188722000Y-82296000D03*
X192278000Y-83820000D03*
X189992000Y-75946000D03*
X196088000Y-71628000D03*
X199136000Y-78232000D03*
X199644000Y-72644000D03*
X228600000Y-81534000D03*
X227330000Y-81534000D03*
X226060000Y-81534000D03*
X224790000Y-81534000D03*
X222504000Y-81534000D03*
X221234000Y-81534000D03*
X219964000Y-81534000D03*
X218567000Y-81534000D03*
X228600000Y-65024000D03*
X227330000Y-65024000D03*
X226060000Y-65024000D03*
X224790000Y-65024000D03*
X222504000Y-65024000D03*
X221234000Y-65024000D03*
X219964000Y-65024000D03*
X218694000Y-65024000D03*
X212090000Y-62738000D03*
X216408000Y-63246000D03*
X200406000Y-86360000D03*
X235204000Y-67310000D03*
X201422000Y-100330000D03*
X202946000Y-91948000D03*
X202946000Y-80518000D03*
X201422000Y-97790000D03*
X207518000Y-107950000D03*
X201676000Y-90424000D03*
X196850000Y-82804000D03*
X201168000Y-95758000D03*
X198882000Y-101854000D03*
X197358000Y-80518000D03*
X200152000Y-89408000D03*
X196278500Y-95821500D03*
X193618000Y-76524000D03*
X223520000Y-103124000D03*
X229616000Y-103124000D03*
X216408000Y-93980000D03*
X229616000Y-94488000D03*
X223012000Y-94488000D03*
X217424000Y-76454000D03*
X223266000Y-76454000D03*
X223520000Y-84836000D03*
X217678000Y-84836000D03*
X223266000Y-70358000D03*
X229362000Y-70358000D03*
X223520000Y-61976000D03*
X229362000Y-61976000D03*
X192151000Y-80010000D03*
X203200000Y-68834000D03*
X213106000Y-70104000D03*
X213868000Y-74930000D03*
X195580000Y-74422000D03*
X193294000Y-83058000D03*
X196088000Y-85090000D03*
X194310000Y-80264000D03*
X214884000Y-101600000D03*
X212852000Y-77216000D03*
X213868000Y-85090000D03*
X215646000Y-69596000D03*
X213868000Y-61976000D03*
X197612000Y-94996000D03*
X191008000Y-70485000D03*
X200152000Y-69723000D03*
X193802000Y-85090000D03*
X196850000Y-99822000D03*
X187706000Y-89154000D03*
X187706000Y-83058000D03*
D46*
X204216000Y-62968000D02*
X205970000Y-62968000D01*
D47*
X211582000Y-82550000D02*
X211582000Y-83566000D01*
X211709000Y-82423000D02*
X211582000Y-82550000D01*
X196850000Y-51816000D02*
X198882000Y-51816000D01*
X201676000Y-61468000D02*
X201676000Y-62968000D01*
X198882000Y-51816000D02*
X199136000Y-52070000D01*
X210058000Y-83292000D02*
X210058000Y-93726000D01*
X210058000Y-93726000D02*
X210058000Y-93472000D01*
X210058000Y-93472000D02*
X210058000Y-93726000D01*
X210312000Y-64028000D02*
X208808000Y-64028000D01*
X207748000Y-62968000D02*
X205970000Y-62968000D01*
X205970000Y-62968000D02*
X201676000Y-62968000D01*
X208808000Y-64028000D02*
X207748000Y-62968000D01*
X201676000Y-62968000D02*
X199620000Y-62968000D01*
X199620000Y-62968000D02*
X198882000Y-62230000D01*
D48*
X214884000Y-94996000D02*
X214884000Y-95504000D01*
X209296000Y-94488000D02*
X210058000Y-93726000D01*
X209296000Y-95778000D02*
X209296000Y-94488000D01*
X210058000Y-93726000D02*
X211074000Y-92710000D01*
X215138000Y-94742000D02*
X214884000Y-94996000D01*
X215900000Y-94742000D02*
X215138000Y-94742000D01*
X216408000Y-95250000D02*
X215900000Y-94742000D01*
X211074000Y-92710000D02*
X211328000Y-92710000D01*
X210332000Y-83566000D02*
X210058000Y-83292000D01*
X212344000Y-83566000D02*
X211582000Y-83566000D01*
X211582000Y-83566000D02*
X211328000Y-83566000D01*
X211328000Y-83566000D02*
X210332000Y-83566000D01*
D47*
X215900000Y-65024000D02*
X215646000Y-64770000D01*
X210840000Y-64028000D02*
X211836000Y-65024000D01*
X210312000Y-64028000D02*
X210840000Y-64028000D01*
D48*
X215900000Y-64770000D02*
X214884000Y-63754000D01*
X215900000Y-65024000D02*
X215900000Y-64770000D01*
D46*
X204470000Y-53340000D02*
X204470000Y-56464198D01*
X204470000Y-56464198D02*
X204901800Y-56895998D01*
D48*
X204712000Y-100330000D02*
X205359000Y-100330000D01*
X205359000Y-100330000D02*
X206375000Y-101346000D01*
D47*
X207010000Y-66337000D02*
X205275000Y-66337000D01*
X205275000Y-66337000D02*
X205486000Y-66548000D01*
X205486000Y-66548000D02*
X205486000Y-67564000D01*
X205275000Y-66337000D02*
X205232000Y-66294000D01*
D49*
X192278000Y-59944000D02*
X198882000Y-59944000D01*
X198882000Y-59944000D02*
X198906000Y-59968000D01*
X198906000Y-59968000D02*
X201676000Y-59968000D01*
X201676000Y-59968000D02*
X204216000Y-59968000D01*
D47*
X189738000Y-59166000D02*
X191500000Y-59166000D01*
X191500000Y-59166000D02*
X192278000Y-59944000D01*
X210058000Y-80792000D02*
X208681000Y-80792000D01*
X205486000Y-77978000D02*
X205486000Y-77343000D01*
X206459000Y-78951000D02*
X205486000Y-77978000D01*
X208491000Y-78951000D02*
X206459000Y-78951000D01*
X208661000Y-79121000D02*
X208491000Y-78951000D01*
X208661000Y-80772000D02*
X208661000Y-79121000D01*
X208681000Y-80792000D02*
X208661000Y-80772000D01*
X224536000Y-106172000D02*
X223901000Y-106172000D01*
X223901000Y-106172000D02*
X223393000Y-106680000D01*
X220980000Y-106172000D02*
X221615000Y-106172000D01*
X221615000Y-106172000D02*
X222123000Y-106680000D01*
D49*
X213909000Y-97904000D02*
X211950000Y-97904000D01*
X211950000Y-97904000D02*
X211836000Y-97790000D01*
X213319000Y-81166000D02*
X211849000Y-81166000D01*
X211849000Y-81166000D02*
X211475000Y-80792000D01*
X213909000Y-66154000D02*
X212484000Y-66154000D01*
X212484000Y-66154000D02*
X212110000Y-66528000D01*
X212110000Y-66528000D02*
X208768000Y-66528000D01*
X206724000Y-73406000D02*
X207899000Y-73406000D01*
X207899000Y-73406000D02*
X208899000Y-72406000D01*
X218567000Y-73279000D02*
X216789000Y-73279000D01*
X216789000Y-73279000D02*
X215392000Y-73279000D01*
X218567000Y-73279000D02*
X220345000Y-73279000D01*
X220345000Y-73279000D02*
X219837000Y-73279000D01*
D47*
X218567000Y-71755000D02*
X218567000Y-73279000D01*
D49*
X221107000Y-73279000D02*
X222377000Y-73279000D01*
X219837000Y-73279000D02*
X221107000Y-73279000D01*
X222377000Y-73279000D02*
X223520000Y-73279000D01*
X223520000Y-73279000D02*
X224663000Y-73279000D01*
X224663000Y-73279000D02*
X225933000Y-73279000D01*
X225933000Y-73279000D02*
X227203000Y-73279000D01*
D47*
X219837000Y-74803000D02*
X219837000Y-71755000D01*
X221107000Y-74803000D02*
X221107000Y-71755000D01*
X222377000Y-74803000D02*
X222377000Y-73279000D01*
X224663000Y-73279000D02*
X224663000Y-71755000D01*
X222377000Y-73279000D02*
X224663000Y-73279000D01*
X225933000Y-71755000D02*
X225933000Y-74803000D01*
X228473000Y-74803000D02*
X228473000Y-73406000D01*
X228346000Y-73279000D02*
X227203000Y-73279000D01*
X228473000Y-73406000D02*
X228346000Y-73279000D01*
X227203000Y-71755000D02*
X227203000Y-73279000D01*
X227203000Y-73279000D02*
X227203000Y-74803000D01*
D49*
X206724000Y-72406000D02*
X208899000Y-72406000D01*
X208899000Y-72406000D02*
X210296000Y-72406000D01*
D47*
X210296000Y-72406000D02*
X211074000Y-71628000D01*
D49*
X206724000Y-71406000D02*
X210852000Y-71406000D01*
X206724000Y-70406000D02*
X209852000Y-70406000D01*
D47*
X210852000Y-71406000D02*
X211074000Y-71628000D01*
X210820000Y-71374000D02*
X211074000Y-71628000D01*
X209852000Y-70406000D02*
X210820000Y-71374000D01*
X211074000Y-71628000D02*
X218440000Y-71628000D01*
X218440000Y-71628000D02*
X218567000Y-71755000D01*
D46*
X205724000Y-70406000D02*
X204724000Y-70406000D01*
X204724000Y-70406000D02*
X204724000Y-71406000D01*
X204724000Y-71406000D02*
X205724000Y-71406000D01*
X205724000Y-71406000D02*
X205724000Y-72406000D01*
X205724000Y-72406000D02*
X204724000Y-72406000D01*
X204724000Y-72406000D02*
X203724000Y-72406000D01*
X203724000Y-72406000D02*
X203724000Y-71406000D01*
X203724000Y-71406000D02*
X206724000Y-71406000D01*
X206724000Y-71406000D02*
X206724000Y-70406000D01*
X206724000Y-70406000D02*
X206724000Y-72406000D01*
X206724000Y-72406000D02*
X206724000Y-73406000D01*
X206724000Y-73406000D02*
X205724000Y-73406000D01*
X205724000Y-73406000D02*
X204724000Y-73406000D01*
D48*
X210312000Y-66528000D02*
X208768000Y-66528000D01*
X212110000Y-66528000D02*
X210312000Y-66528000D01*
X212484000Y-66154000D02*
X212110000Y-66528000D01*
X214233760Y-68554600D02*
X214233760Y-66478760D01*
X214233760Y-66478760D02*
X213909000Y-66154000D01*
X211475000Y-80792000D02*
X210058000Y-80792000D01*
X212994240Y-78765400D02*
X212994240Y-80841240D01*
X212994240Y-80841240D02*
X213319000Y-81166000D01*
D49*
X227203000Y-104775000D02*
X227203000Y-106045000D01*
X227203000Y-106045000D02*
X227076000Y-106172000D01*
X225933000Y-104775000D02*
X225933000Y-106045000D01*
X225933000Y-106045000D02*
X225806000Y-106172000D01*
X224663000Y-104775000D02*
X224663000Y-106045000D01*
X224663000Y-106045000D02*
X224536000Y-106172000D01*
X221107000Y-104775000D02*
X221107000Y-106045000D01*
X221107000Y-106045000D02*
X220980000Y-106172000D01*
X219837000Y-104775000D02*
X219837000Y-106045000D01*
X219837000Y-106045000D02*
X219710000Y-106172000D01*
X218567000Y-104775000D02*
X218567000Y-106045000D01*
X218567000Y-106045000D02*
X218440000Y-106172000D01*
D48*
X211836000Y-97790000D02*
X211709000Y-97917000D01*
X211709000Y-97917000D02*
X211937000Y-97917000D01*
X211937000Y-97917000D02*
X211950000Y-97904000D01*
X214233760Y-100304600D02*
X214233760Y-98228760D01*
X214233760Y-98228760D02*
X213909000Y-97904000D01*
X211950000Y-97904000D02*
X211836000Y-97790000D01*
X209296000Y-98278000D02*
X211348000Y-98278000D01*
X211348000Y-98278000D02*
X211836000Y-97790000D01*
X210058000Y-66274000D02*
X210586000Y-66274000D01*
D46*
X201676000Y-59968000D02*
X204216000Y-59968000D01*
X192278000Y-59944000D02*
X191262000Y-59944000D01*
D47*
X198882000Y-59944000D02*
X201652000Y-59944000D01*
X201652000Y-59944000D02*
X201676000Y-59968000D01*
D48*
X214233760Y-95504000D02*
X214233760Y-94630240D01*
X215118000Y-93746000D02*
X215118000Y-90932000D01*
X214233760Y-94630240D02*
X215118000Y-93746000D01*
D46*
X232664000Y-89408000D02*
X232664000Y-92964000D01*
X232664000Y-92964000D02*
X232613200Y-93014800D01*
D48*
X215634000Y-103632000D02*
X215984000Y-103632000D01*
X215984000Y-103632000D02*
X215984000Y-103294000D01*
D50*
X232664000Y-89408000D02*
X232664000Y-96774000D01*
X232664000Y-96774000D02*
X231394000Y-98044000D01*
D51*
X232664000Y-96774000D02*
X231394000Y-98044000D01*
X232664000Y-91440000D02*
X232664000Y-96774000D01*
D46*
X215984000Y-103632000D02*
X215984000Y-103294000D01*
X215984000Y-103294000D02*
X216916000Y-102362000D01*
X216916000Y-102362000D02*
X216916000Y-96520000D01*
D47*
X228473000Y-97917000D02*
X228473000Y-99441000D01*
X228600000Y-97790000D02*
X228473000Y-97917000D01*
X227203000Y-99441000D02*
X227203000Y-97917000D01*
X227203000Y-97917000D02*
X227330000Y-97790000D01*
X227203000Y-97663000D02*
X227203000Y-96139000D01*
X227330000Y-97790000D02*
X227203000Y-97663000D01*
X225933000Y-99441000D02*
X225933000Y-97917000D01*
X225933000Y-97917000D02*
X226060000Y-97790000D01*
X225933000Y-97663000D02*
X225933000Y-96139000D01*
X226060000Y-97790000D02*
X225933000Y-97663000D01*
X224663000Y-96139000D02*
X224663000Y-97663000D01*
X224663000Y-97663000D02*
X224790000Y-97790000D01*
X224663000Y-97917000D02*
X224663000Y-99441000D01*
X224790000Y-97790000D02*
X224663000Y-97917000D01*
X222377000Y-97917000D02*
X222377000Y-99441000D01*
X222504000Y-97790000D02*
X222377000Y-97917000D01*
X221107000Y-99441000D02*
X221107000Y-97917000D01*
X221107000Y-97917000D02*
X221234000Y-97790000D01*
X221107000Y-97663000D02*
X221107000Y-96139000D01*
X221234000Y-97790000D02*
X221107000Y-97663000D01*
X219837000Y-99441000D02*
X219837000Y-97917000D01*
X219837000Y-97917000D02*
X219964000Y-97790000D01*
X218567000Y-99441000D02*
X218567000Y-97917000D01*
X218567000Y-97917000D02*
X218694000Y-97790000D01*
X218567000Y-96139000D02*
X218567000Y-97663000D01*
X219837000Y-97663000D02*
X219837000Y-96139000D01*
X219964000Y-97790000D02*
X219837000Y-97663000D01*
X218567000Y-97663000D02*
X218694000Y-97790000D01*
D48*
X212618000Y-92964000D02*
X212618000Y-93198000D01*
X212618000Y-93198000D02*
X211836000Y-93980000D01*
X212933280Y-95504000D02*
X212933280Y-93553280D01*
X212618000Y-93238000D02*
X212618000Y-92964000D01*
X212618000Y-92964000D02*
X212618000Y-90932000D01*
X212933280Y-93553280D02*
X212618000Y-93238000D01*
X216916000Y-96520000D02*
X217297000Y-96139000D01*
X217297000Y-96139000D02*
X218567000Y-96139000D01*
D46*
X212370000Y-53340000D02*
X214731600Y-53340000D01*
X214731600Y-53340000D02*
X215646000Y-54254400D01*
D47*
X209804000Y-58674000D02*
X209550000Y-58674000D01*
X209550000Y-58674000D02*
X208534000Y-57658000D01*
X196850000Y-54356000D02*
X198374000Y-54356000D01*
X198374000Y-54356000D02*
X201676000Y-57658000D01*
X201676000Y-57658000D02*
X208534000Y-57658000D01*
X228473000Y-89662000D02*
X224790000Y-89662000D01*
X224790000Y-89662000D02*
X218567000Y-89662000D01*
X218567000Y-89662000D02*
X218694000Y-89662000D01*
X218694000Y-89662000D02*
X218567000Y-89662000D01*
X224028000Y-89662000D02*
X223520000Y-89662000D01*
X228473000Y-90805000D02*
X228473000Y-89662000D01*
X228473000Y-89662000D02*
X228473000Y-88519000D01*
X227203000Y-90805000D02*
X227203000Y-88519000D01*
X225933000Y-88519000D02*
X225933000Y-90805000D01*
X224663000Y-90805000D02*
X224663000Y-89789000D01*
X224663000Y-89789000D02*
X224536000Y-89662000D01*
X222377000Y-89662000D02*
X224028000Y-89662000D01*
X224028000Y-89662000D02*
X224536000Y-89662000D01*
X224663000Y-89535000D02*
X224663000Y-88519000D01*
X224536000Y-89662000D02*
X224663000Y-89535000D01*
X222377000Y-90805000D02*
X222377000Y-89662000D01*
X222377000Y-89662000D02*
X222377000Y-88519000D01*
X221107000Y-90805000D02*
X221107000Y-88519000D01*
X219837000Y-90805000D02*
X219837000Y-88519000D01*
X218567000Y-90805000D02*
X218567000Y-89662000D01*
X218567000Y-89662000D02*
X218567000Y-88519000D01*
X194310000Y-54356000D02*
X195580000Y-54356000D01*
X195580000Y-54356000D02*
X196850000Y-54356000D01*
X222377000Y-87503000D02*
X222377000Y-88011000D01*
X197358000Y-64008000D02*
X198628000Y-65278000D01*
X198628000Y-65278000D02*
X201656000Y-65278000D01*
X201656000Y-65278000D02*
X201676000Y-65298000D01*
D46*
X187452000Y-73902000D02*
X187452000Y-74252000D01*
X189738000Y-74252000D02*
X189908000Y-74422000D01*
X187452000Y-74252000D02*
X189738000Y-74252000D01*
X190258000Y-74422000D02*
X189908000Y-74422000D01*
D48*
X198628000Y-67437000D02*
X197358000Y-67437000D01*
X196088000Y-68707000D02*
X196088000Y-71628000D01*
X197358000Y-67437000D02*
X196088000Y-68707000D01*
X196088000Y-71628000D02*
X200660000Y-71628000D01*
X200660000Y-71628000D02*
X200660000Y-71755000D01*
X200660000Y-71755000D02*
X200660000Y-71628000D01*
D47*
X193738500Y-97078800D02*
X192290700Y-97078800D01*
X192290700Y-97078800D02*
X192278000Y-97091500D01*
X187960000Y-79998000D02*
X187960000Y-80645000D01*
D48*
X190568000Y-82150000D02*
X194164000Y-82150000D01*
X194310000Y-82296000D02*
X194310000Y-84074000D01*
X194164000Y-82150000D02*
X194310000Y-82296000D01*
X188722000Y-82296000D02*
X188214000Y-82296000D01*
X187960000Y-82042000D02*
X187960000Y-80645000D01*
X187960000Y-80645000D02*
X187960000Y-80498000D01*
X188214000Y-82296000D02*
X187960000Y-82042000D01*
X192278000Y-83820000D02*
X192208000Y-83750000D01*
X192208000Y-83750000D02*
X190568000Y-83750000D01*
X188868000Y-82150000D02*
X190568000Y-82150000D01*
X188722000Y-82296000D02*
X188868000Y-82150000D01*
D46*
X192208000Y-83750000D02*
X190568000Y-83750000D01*
X192278000Y-83820000D02*
X192208000Y-83750000D01*
D47*
X201676000Y-72370000D02*
X201402000Y-72370000D01*
D46*
X189908000Y-74422000D02*
X189908000Y-75862000D01*
X189908000Y-75862000D02*
X189992000Y-75946000D01*
D47*
X201402000Y-72370000D02*
X200660000Y-71628000D01*
D46*
X187452000Y-72402000D02*
X187452000Y-72052000D01*
X189588000Y-72052000D02*
X189738000Y-71902000D01*
X187452000Y-72052000D02*
X189588000Y-72052000D01*
X190258000Y-71882000D02*
X189758000Y-71882000D01*
X189758000Y-71882000D02*
X189738000Y-71902000D01*
X189738000Y-71902000D02*
X189738000Y-72072500D01*
X189738000Y-72072500D02*
X189738000Y-71902000D01*
X189738000Y-71902000D02*
X189758000Y-71882000D01*
X189758000Y-71882000D02*
X189758000Y-72664000D01*
X199068000Y-78300000D02*
X199068000Y-79750000D01*
X199136000Y-78232000D02*
X199068000Y-78300000D01*
X194056000Y-72644000D02*
X199644000Y-72644000D01*
X193548000Y-73152000D02*
X194056000Y-72644000D01*
X190246000Y-73152000D02*
X193548000Y-73152000D01*
X189758000Y-72664000D02*
X190246000Y-73152000D01*
D48*
X212364000Y-85578000D02*
X212994240Y-84947760D01*
X212994240Y-84947760D02*
X212994240Y-83566000D01*
X212364000Y-85852000D02*
X212364000Y-85578000D01*
X212364000Y-86360000D02*
X212364000Y-85852000D01*
X212364000Y-85852000D02*
X212364000Y-86614000D01*
D46*
X232664000Y-81508000D02*
X230758400Y-81508000D01*
X230758400Y-81508000D02*
X229895400Y-80645000D01*
X231914000Y-85852000D02*
X231914000Y-85356000D01*
X231914000Y-85356000D02*
X231564000Y-85006000D01*
X230378000Y-83794000D02*
X232664000Y-81508000D01*
X230378000Y-83820000D02*
X230378000Y-83794000D01*
X231564000Y-85006000D02*
X230378000Y-83820000D01*
X231564000Y-82540000D02*
X232664000Y-81440000D01*
D47*
X228473000Y-83185000D02*
X228473000Y-81661000D01*
X228473000Y-81661000D02*
X228600000Y-81534000D01*
X228473000Y-81407000D02*
X228473000Y-80137000D01*
X228600000Y-81534000D02*
X228473000Y-81407000D01*
X227203000Y-83185000D02*
X227203000Y-81661000D01*
X227203000Y-81661000D02*
X227330000Y-81534000D01*
X227203000Y-81407000D02*
X227203000Y-80137000D01*
X227330000Y-81534000D02*
X227203000Y-81407000D01*
X225933000Y-80137000D02*
X225933000Y-81407000D01*
X225933000Y-81407000D02*
X226060000Y-81534000D01*
X225933000Y-81661000D02*
X225933000Y-83185000D01*
X226060000Y-81534000D02*
X225933000Y-81661000D01*
X224663000Y-81407000D02*
X224663000Y-80137000D01*
X224790000Y-81534000D02*
X224663000Y-81407000D01*
X222377000Y-83185000D02*
X222377000Y-81661000D01*
X222377000Y-81661000D02*
X222504000Y-81534000D01*
X222377000Y-81407000D02*
X222377000Y-80137000D01*
X222504000Y-81534000D02*
X222377000Y-81407000D01*
X221107000Y-83185000D02*
X221107000Y-81661000D01*
X221107000Y-81661000D02*
X221234000Y-81534000D01*
X221107000Y-81407000D02*
X221107000Y-80137000D01*
X221234000Y-81534000D02*
X221107000Y-81407000D01*
X219837000Y-83185000D02*
X219837000Y-81661000D01*
X219837000Y-81661000D02*
X219964000Y-81534000D01*
X218567000Y-80137000D02*
X218567000Y-81534000D01*
X219837000Y-81407000D02*
X219837000Y-80137000D01*
X219964000Y-81534000D02*
X219837000Y-81407000D01*
D48*
X215646000Y-83566000D02*
X217678000Y-81534000D01*
X217678000Y-81534000D02*
X218694000Y-81534000D01*
X218694000Y-81534000D02*
X218567000Y-81407000D01*
X218567000Y-81407000D02*
X218567000Y-80137000D01*
X214294720Y-83566000D02*
X215646000Y-83566000D01*
X215646000Y-85090000D02*
X215646000Y-83566000D01*
X214864000Y-85872000D02*
X215646000Y-85090000D01*
X214864000Y-86360000D02*
X214864000Y-85872000D01*
X214864000Y-86614000D02*
X214864000Y-85872000D01*
X214233760Y-63134240D02*
X215372000Y-61996000D01*
X215372000Y-61996000D02*
X215372000Y-60452000D01*
X214233760Y-63754000D02*
X214233760Y-63134240D01*
D46*
X232664000Y-73608000D02*
X232664000Y-69672200D01*
X232664000Y-69672200D02*
X232714800Y-69621400D01*
X234442000Y-63512000D02*
X234442000Y-63162000D01*
X232240000Y-63162000D02*
X231394000Y-64008000D01*
X231394000Y-64008000D02*
X231394000Y-66802000D01*
X234442000Y-63162000D02*
X232240000Y-63162000D01*
D50*
X231394000Y-66802000D02*
X232664000Y-68072000D01*
X232664000Y-68072000D02*
X232664000Y-73608000D01*
D51*
X232664000Y-68072000D02*
X232664000Y-73608000D01*
D47*
X228473000Y-65151000D02*
X228473000Y-66421000D01*
X228600000Y-65024000D02*
X228473000Y-65151000D01*
X227203000Y-66421000D02*
X227203000Y-65151000D01*
X227203000Y-65151000D02*
X227330000Y-65024000D01*
X227203000Y-64897000D02*
X227203000Y-63627000D01*
X227330000Y-65024000D02*
X227203000Y-64897000D01*
X225933000Y-66421000D02*
X225933000Y-65151000D01*
X225933000Y-65151000D02*
X226060000Y-65024000D01*
X225933000Y-64897000D02*
X225933000Y-63627000D01*
X226060000Y-65024000D02*
X225933000Y-64897000D01*
X224663000Y-66421000D02*
X224663000Y-65151000D01*
X224663000Y-65151000D02*
X224790000Y-65024000D01*
X224663000Y-64897000D02*
X224663000Y-63627000D01*
X224790000Y-65024000D02*
X224663000Y-64897000D01*
X222377000Y-65151000D02*
X222377000Y-66421000D01*
X222504000Y-65024000D02*
X222377000Y-65151000D01*
X221107000Y-66421000D02*
X221107000Y-65151000D01*
X221107000Y-65151000D02*
X221234000Y-65024000D01*
X221107000Y-64897000D02*
X221107000Y-63627000D01*
X221234000Y-65024000D02*
X221107000Y-64897000D01*
X218567000Y-63627000D02*
X218567000Y-64897000D01*
X218567000Y-64897000D02*
X218694000Y-65024000D01*
X219837000Y-66421000D02*
X219837000Y-65151000D01*
X219837000Y-65151000D02*
X219964000Y-65024000D01*
X218567000Y-66421000D02*
X218567000Y-65151000D01*
X218567000Y-65151000D02*
X218694000Y-65024000D01*
X219837000Y-64897000D02*
X219837000Y-63627000D01*
X219964000Y-65024000D02*
X219837000Y-64897000D01*
D48*
X212933280Y-60513280D02*
X212872000Y-60452000D01*
X212933280Y-60513280D02*
X212872000Y-60452000D01*
X212933280Y-61722000D02*
X212933280Y-60513280D01*
X212933280Y-63754000D02*
X212933280Y-61722000D01*
D47*
X212933280Y-61894720D02*
X212090000Y-62738000D01*
X216408000Y-63246000D02*
X216789000Y-63627000D01*
X216789000Y-63627000D02*
X218567000Y-63627000D01*
X212933280Y-61722000D02*
X212933280Y-61894720D01*
D46*
X199068000Y-82950000D02*
X200044000Y-82950000D01*
X203200000Y-83312000D02*
X203708000Y-83820000D01*
X200406000Y-83312000D02*
X203200000Y-83312000D01*
X200044000Y-82950000D02*
X200406000Y-83312000D01*
X203708000Y-83820000D02*
X203708000Y-84562000D01*
X201422000Y-84562000D02*
X199080000Y-84562000D01*
X199080000Y-84562000D02*
X199068000Y-84550000D01*
X201422000Y-85344000D02*
X201422000Y-84562000D01*
X200406000Y-86360000D02*
X201422000Y-85344000D01*
X195568000Y-93726000D02*
X195918000Y-93726000D01*
X198562000Y-93726000D02*
X199644000Y-92644000D01*
X195918000Y-93726000D02*
X198562000Y-93726000D01*
X202819000Y-100330000D02*
X203212000Y-100330000D01*
X234442000Y-65405000D02*
X234442000Y-65012000D01*
X234442000Y-65362000D02*
X234442000Y-65405000D01*
X234442000Y-65405000D02*
X234442000Y-66548000D01*
X234442000Y-66548000D02*
X235204000Y-67310000D01*
X201422000Y-100330000D02*
X202819000Y-100330000D01*
X202819000Y-100330000D02*
X202862000Y-100330000D01*
X199068000Y-81350000D02*
X200336000Y-81350000D01*
X201996000Y-93914000D02*
X201422000Y-93914000D01*
X202946000Y-92964000D02*
X201996000Y-93914000D01*
X202946000Y-91948000D02*
X202946000Y-92964000D01*
X200406000Y-80518000D02*
X202946000Y-80518000D01*
X200406000Y-81280000D02*
X200406000Y-80518000D01*
X200336000Y-81350000D02*
X200406000Y-81280000D01*
X199644000Y-92644000D02*
X199644000Y-92710000D01*
X199644000Y-92710000D02*
X200848000Y-93914000D01*
X200848000Y-93914000D02*
X201422000Y-93914000D01*
X195568000Y-91694000D02*
X195918000Y-91694000D01*
X195918000Y-91694000D02*
X197800000Y-91694000D01*
X203212000Y-97790000D02*
X202862000Y-97790000D01*
X202862000Y-97790000D02*
X201422000Y-97790000D01*
X233414000Y-85852000D02*
X233764000Y-85852000D01*
X207518000Y-107950000D02*
X228346000Y-107950000D01*
X228346000Y-107950000D02*
X228854000Y-107442000D01*
X228854000Y-107442000D02*
X228854000Y-106680000D01*
X228854000Y-106680000D02*
X230886000Y-104648000D01*
X230886000Y-104648000D02*
X232918000Y-104648000D01*
X232918000Y-104648000D02*
X235204000Y-102362000D01*
X235204000Y-102362000D02*
X235204000Y-88138000D01*
X235204000Y-87292000D02*
X233764000Y-85852000D01*
X235204000Y-88138000D02*
X235204000Y-87292000D01*
X201422000Y-92014000D02*
X201422000Y-90678000D01*
X201422000Y-90678000D02*
X201676000Y-90424000D01*
X201422000Y-92014000D02*
X201610000Y-92014000D01*
X196850000Y-82804000D02*
X197796000Y-83750000D01*
X197796000Y-83750000D02*
X199068000Y-83750000D01*
X197796000Y-83750000D02*
X199068000Y-83750000D01*
X197866000Y-91628000D02*
X198816000Y-91628000D01*
X198882000Y-91694000D02*
X201102000Y-91694000D01*
X198816000Y-91628000D02*
X198882000Y-91694000D01*
X201102000Y-91694000D02*
X201422000Y-92014000D01*
X197800000Y-91694000D02*
X197866000Y-91628000D01*
X195568000Y-89662000D02*
X195918000Y-89662000D01*
X195918000Y-89662000D02*
X197800000Y-89662000D01*
X203212000Y-95758000D02*
X202862000Y-95758000D01*
X202862000Y-95758000D02*
X201168000Y-95758000D01*
D48*
X214134000Y-103632000D02*
X213233000Y-103632000D01*
D46*
X213784000Y-103632000D02*
X213233000Y-103632000D01*
X213233000Y-103632000D02*
X212852000Y-103632000D01*
X198882000Y-101854000D02*
X200660000Y-103632000D01*
X200660000Y-103632000D02*
X212852000Y-103632000D01*
X199644000Y-90744000D02*
X199644000Y-89916000D01*
X197390000Y-80550000D02*
X199068000Y-80550000D01*
X197358000Y-80518000D02*
X197390000Y-80550000D01*
X199644000Y-89916000D02*
X200152000Y-89408000D01*
X197866000Y-89728000D02*
X198628000Y-89728000D01*
X198628000Y-89728000D02*
X199644000Y-90744000D01*
X197800000Y-89662000D02*
X197866000Y-89728000D01*
D47*
X189738000Y-56916000D02*
X191242000Y-56916000D01*
X191242000Y-56916000D02*
X192278000Y-55880000D01*
X194310000Y-51816000D02*
X193548000Y-51816000D01*
X193548000Y-51816000D02*
X192278000Y-53086000D01*
X192278000Y-53086000D02*
X192278000Y-55880000D01*
X192278000Y-55880000D02*
X194056000Y-57658000D01*
X194056000Y-57658000D02*
X198882000Y-57658000D01*
X196342000Y-108966000D02*
X196342000Y-103644700D01*
X196342000Y-103644700D02*
X196278500Y-103581200D01*
D48*
X199390000Y-97282000D02*
X199390000Y-97802000D01*
D46*
X199390000Y-97282000D02*
X199390000Y-97202000D01*
X199390000Y-97202000D02*
X199216000Y-97028000D01*
D47*
X196278500Y-97078800D02*
X196278500Y-95821500D01*
D46*
X193618000Y-78300000D02*
X193618000Y-76524000D01*
X192018000Y-76968000D02*
X192018000Y-78300000D01*
X193618000Y-76524000D02*
X193548000Y-76454000D01*
X193548000Y-76454000D02*
X192532000Y-76454000D01*
X192532000Y-76454000D02*
X192018000Y-76968000D01*
D47*
X196342000Y-97028000D02*
X199216000Y-97028000D01*
X199216000Y-97028000D02*
X199390000Y-97202000D01*
X222377000Y-104775000D02*
X222377000Y-104267000D01*
X222377000Y-104267000D02*
X223520000Y-103124000D01*
X229616000Y-103124000D02*
X228473000Y-104267000D01*
X228473000Y-104267000D02*
X228473000Y-104775000D01*
D48*
X228473000Y-104267000D02*
X228473000Y-104775000D01*
D46*
X215888000Y-92710000D02*
X216027000Y-92710000D01*
X216027000Y-92710000D02*
X216238000Y-92921000D01*
D47*
X216238000Y-92710000D02*
X216238000Y-92921000D01*
X216238000Y-92921000D02*
X216238000Y-93810000D01*
X216238000Y-93810000D02*
X216408000Y-93980000D01*
X229616000Y-94488000D02*
X228473000Y-95631000D01*
X228473000Y-95631000D02*
X228473000Y-96139000D01*
X222377000Y-95123000D02*
X222377000Y-96139000D01*
X223012000Y-94488000D02*
X222377000Y-95123000D01*
D46*
X222504000Y-95504000D02*
X222504000Y-96012000D01*
X222504000Y-96012000D02*
X222377000Y-96139000D01*
D47*
X218567000Y-75311000D02*
X218567000Y-74803000D01*
X217424000Y-76454000D02*
X218567000Y-75311000D01*
X224663000Y-75057000D02*
X224663000Y-74803000D01*
X223266000Y-76454000D02*
X224663000Y-75057000D01*
X218567000Y-83947000D02*
X218567000Y-83185000D01*
X224663000Y-83693000D02*
X224663000Y-83185000D01*
X223520000Y-84836000D02*
X224663000Y-83693000D01*
X217678000Y-84836000D02*
X218567000Y-83947000D01*
X222377000Y-71247000D02*
X222377000Y-71755000D01*
X223266000Y-70358000D02*
X222377000Y-71247000D01*
X228473000Y-71247000D02*
X228473000Y-71755000D01*
X229362000Y-70358000D02*
X228473000Y-71247000D01*
X222377000Y-63119000D02*
X222377000Y-63627000D01*
X223520000Y-61976000D02*
X222377000Y-63119000D01*
X229362000Y-61976000D02*
X228473000Y-62865000D01*
X228473000Y-62865000D02*
X228473000Y-63627000D01*
D46*
X207010000Y-68187000D02*
X207010000Y-68537000D01*
X206164000Y-68537000D02*
X206146400Y-68554600D01*
X207010000Y-68537000D02*
X206164000Y-68537000D01*
D48*
X191611000Y-80550000D02*
X190568000Y-80550000D01*
X192151000Y-80010000D02*
X191611000Y-80550000D01*
D46*
X206146400Y-68554600D02*
X203479400Y-68554600D01*
X203479400Y-68554600D02*
X203200000Y-68834000D01*
X212933280Y-68554600D02*
X206146400Y-68554600D01*
D48*
X188910000Y-84648000D02*
X189008000Y-84550000D01*
X189008000Y-84550000D02*
X190314000Y-84550000D01*
X187960000Y-84648000D02*
X188910000Y-84648000D01*
X189732000Y-85350000D02*
X190314000Y-85350000D01*
X189042000Y-86548000D02*
X189484000Y-86106000D01*
X189484000Y-86106000D02*
X189484000Y-85598000D01*
X189484000Y-85598000D02*
X189732000Y-85350000D01*
X187960000Y-86548000D02*
X189042000Y-86548000D01*
D46*
X210197000Y-74295000D02*
X209847000Y-74295000D01*
X209847000Y-74887000D02*
X209550000Y-75184000D01*
X209847000Y-74295000D02*
X209847000Y-74887000D01*
X192018000Y-86800000D02*
X192018000Y-85350000D01*
X213583520Y-69626480D02*
X213583520Y-68554600D01*
X213106000Y-70104000D02*
X213583520Y-69626480D01*
X213614000Y-75184000D02*
X213868000Y-74930000D01*
X203708000Y-75184000D02*
X209550000Y-75184000D01*
X209550000Y-75184000D02*
X213614000Y-75184000D01*
X202184000Y-73660000D02*
X203708000Y-75184000D01*
X196342000Y-73660000D02*
X202184000Y-73660000D01*
X195580000Y-74422000D02*
X196342000Y-73660000D01*
X193294000Y-84074000D02*
X193294000Y-83058000D01*
X192018000Y-85350000D02*
X193294000Y-84074000D01*
X194068000Y-89662000D02*
X193718000Y-89662000D01*
X192850000Y-89662000D02*
X192818000Y-89630000D01*
X192850000Y-89662000D02*
X193718000Y-89662000D01*
X194068000Y-91694000D02*
X193718000Y-91694000D01*
X192850000Y-91694000D02*
X192818000Y-91662000D01*
X192850000Y-91694000D02*
X193718000Y-91694000D01*
X194068000Y-93726000D02*
X193802000Y-93726000D01*
X193802000Y-93726000D02*
X193548000Y-93726000D01*
X192818000Y-91662000D02*
X192818000Y-93440000D01*
X193104000Y-93726000D02*
X193548000Y-93726000D01*
X193548000Y-93726000D02*
X193718000Y-93726000D01*
X192818000Y-93440000D02*
X193104000Y-93726000D01*
X192818000Y-89630000D02*
X192818000Y-91662000D01*
X192818000Y-86800000D02*
X192818000Y-89630000D01*
X204089000Y-89789000D02*
X204089000Y-89801000D01*
X204089000Y-89801000D02*
X204343000Y-90055000D01*
X194418000Y-86800000D02*
X194418000Y-88246000D01*
X213583520Y-101376480D02*
X213583520Y-100304600D01*
X212852000Y-102108000D02*
X213583520Y-101376480D01*
X209550000Y-102108000D02*
X212852000Y-102108000D01*
X207010000Y-99568000D02*
X209550000Y-102108000D01*
X207010000Y-92710000D02*
X207010000Y-99568000D01*
X202692000Y-88392000D02*
X203454000Y-89154000D01*
X203454000Y-89154000D02*
X204089000Y-89789000D01*
X204089000Y-89789000D02*
X207010000Y-92710000D01*
X194564000Y-88392000D02*
X202692000Y-88392000D01*
X194418000Y-88246000D02*
X194564000Y-88392000D01*
X196018000Y-86800000D02*
X196018000Y-85160000D01*
X196018000Y-85160000D02*
X196088000Y-85090000D01*
X205498000Y-87503000D02*
X205486000Y-87503000D01*
X205486000Y-87503000D02*
X205148000Y-87165000D01*
X205148000Y-87503000D02*
X205148000Y-87165000D01*
X205148000Y-87165000D02*
X205148000Y-86698000D01*
X205148000Y-86698000D02*
X205232000Y-86614000D01*
X212933280Y-100304600D02*
X212933280Y-101010720D01*
X196818000Y-75978000D02*
X196818000Y-78300000D01*
X197612000Y-75184000D02*
X196818000Y-75978000D01*
X201422000Y-75184000D02*
X197612000Y-75184000D01*
X205232000Y-78994000D02*
X201422000Y-75184000D01*
X205232000Y-90170000D02*
X205232000Y-86614000D01*
X205232000Y-86614000D02*
X205232000Y-78994000D01*
X207518000Y-92456000D02*
X205232000Y-90170000D01*
X207518000Y-99314000D02*
X207518000Y-92456000D01*
X209804000Y-101600000D02*
X207518000Y-99314000D01*
X212344000Y-101600000D02*
X209804000Y-101600000D01*
X212933280Y-101010720D02*
X212344000Y-101600000D01*
X207518000Y-77101000D02*
X207518000Y-76581000D01*
X207518000Y-76581000D02*
X207899000Y-76200000D01*
X196018000Y-78300000D02*
X196018000Y-76016000D01*
X213644480Y-76484480D02*
X213644480Y-78765400D01*
X213360000Y-76200000D02*
X213644480Y-76484480D01*
X203200000Y-76200000D02*
X207899000Y-76200000D01*
X207899000Y-76200000D02*
X208153000Y-76200000D01*
X208153000Y-76200000D02*
X213360000Y-76200000D01*
X201676000Y-74676000D02*
X203200000Y-76200000D01*
X197358000Y-74676000D02*
X201676000Y-74676000D01*
X196018000Y-76016000D02*
X197358000Y-74676000D01*
X215392000Y-76950000D02*
X215392000Y-77089000D01*
X215392000Y-77089000D02*
X215181000Y-77300000D01*
X215392000Y-77300000D02*
X215181000Y-77300000D01*
X215181000Y-77300000D02*
X214673000Y-77300000D01*
X214673000Y-77300000D02*
X214294720Y-77678280D01*
X214294720Y-78765400D02*
X214294720Y-77678280D01*
X214294720Y-77678280D02*
X214294720Y-76372720D01*
X195218000Y-76054000D02*
X195218000Y-78300000D01*
X197104000Y-74168000D02*
X195218000Y-76054000D01*
X201930000Y-74168000D02*
X197104000Y-74168000D01*
X203454000Y-75692000D02*
X201930000Y-74168000D01*
X213614000Y-75692000D02*
X203454000Y-75692000D01*
X214294720Y-76372720D02*
X213614000Y-75692000D01*
X192151000Y-74422000D02*
X191758000Y-74422000D01*
X192108000Y-74422000D02*
X192151000Y-74422000D01*
X192151000Y-74422000D02*
X193294000Y-74422000D01*
X194418000Y-75546000D02*
X194418000Y-78300000D01*
X193294000Y-74422000D02*
X194418000Y-75546000D01*
X194310000Y-80264000D02*
X193548000Y-80264000D01*
X193548000Y-80264000D02*
X192818000Y-79534000D01*
X192818000Y-79534000D02*
X192818000Y-78300000D01*
D47*
X191262000Y-108966000D02*
X191262000Y-106061500D01*
D48*
X214884000Y-101600000D02*
X214884000Y-100304600D01*
D46*
X214388000Y-92710000D02*
X214249000Y-92710000D01*
X214249000Y-92710000D02*
X214038000Y-92921000D01*
D48*
X213583520Y-95504000D02*
X213583520Y-94010480D01*
X214038000Y-93556000D02*
X214038000Y-92921000D01*
X214038000Y-92921000D02*
X214038000Y-92710000D01*
X213583520Y-94010480D02*
X214038000Y-93556000D01*
X212344000Y-77724000D02*
X212344000Y-78765400D01*
X212852000Y-77216000D02*
X212344000Y-77724000D01*
X213644480Y-84866480D02*
X213644480Y-83566000D01*
X213868000Y-85090000D02*
X213644480Y-84866480D01*
X214884000Y-68554600D02*
X214884000Y-69088000D01*
X215392000Y-69596000D02*
X215646000Y-69596000D01*
X214884000Y-69088000D02*
X215392000Y-69596000D01*
D46*
X213583520Y-62260480D02*
X213583520Y-63754000D01*
X213868000Y-61976000D02*
X213583520Y-62260480D01*
X197612000Y-94996000D02*
X192532000Y-94996000D01*
X192532000Y-94996000D02*
X192024000Y-94488000D01*
X192024000Y-94488000D02*
X191041020Y-94488000D01*
D47*
X191262000Y-103361500D02*
X193518800Y-103361500D01*
X193518800Y-103361500D02*
X193738500Y-103581200D01*
D48*
X191758000Y-71882000D02*
X191758000Y-71235000D01*
X191758000Y-71235000D02*
X191008000Y-70485000D01*
X198628000Y-69723000D02*
X200152000Y-69723000D01*
X198628000Y-69723000D02*
X201573000Y-69723000D01*
X201573000Y-69723000D02*
X201676000Y-69620000D01*
D46*
X193802000Y-85090000D02*
X194818000Y-85090000D01*
X195326000Y-84582000D02*
X195326000Y-81350000D01*
X194818000Y-85090000D02*
X195326000Y-84582000D01*
X189230000Y-101086000D02*
X189236000Y-101086000D01*
X189236000Y-101086000D02*
X190500000Y-99822000D01*
X190500000Y-99822000D02*
X196850000Y-99822000D01*
X196930000Y-99902000D02*
X196850000Y-99822000D01*
X201676000Y-68048000D02*
X201676000Y-67818000D01*
X201676000Y-69620000D02*
X200938000Y-69620000D01*
X190568000Y-81350000D02*
X189173000Y-81350000D01*
X188670500Y-78498000D02*
X187960000Y-78498000D01*
X188912500Y-78740000D02*
X188670500Y-78498000D01*
X188912500Y-81089500D02*
X188912500Y-78740000D01*
X189173000Y-81350000D02*
X188912500Y-81089500D01*
X186690000Y-83058000D02*
X186690000Y-78867000D01*
X186690000Y-78867000D02*
X187059000Y-78498000D01*
X187059000Y-78498000D02*
X187960000Y-78498000D01*
X186690000Y-85344000D02*
X186690000Y-88138000D01*
X186690000Y-88138000D02*
X187706000Y-89154000D01*
X187960000Y-85598000D02*
X186944000Y-85598000D01*
X186690000Y-85344000D02*
X186690000Y-83058000D01*
X186944000Y-85598000D02*
X186690000Y-85344000D01*
X201422000Y-82062000D02*
X202394500Y-82062000D01*
X202894500Y-82562000D02*
X203708000Y-82562000D01*
X202394500Y-82062000D02*
X202894500Y-82562000D01*
D47*
X192919500Y-81350000D02*
X190568000Y-81350000D01*
X199068000Y-82150000D02*
X197720000Y-82150000D01*
X197720000Y-82150000D02*
X196920000Y-81350000D01*
X196920000Y-81350000D02*
X195326000Y-81350000D01*
X195326000Y-81350000D02*
X192919500Y-81350000D01*
X201676000Y-69870000D02*
X202188000Y-69870000D01*
D46*
X199390000Y-99902000D02*
X199818000Y-99902000D01*
X199390000Y-99902000D02*
X196930000Y-99902000D01*
X186690000Y-83058000D02*
X187706000Y-83058000D01*
X189338000Y-82950000D02*
X190568000Y-82950000D01*
X188976000Y-83312000D02*
X189338000Y-82950000D01*
X187960000Y-83312000D02*
X188976000Y-83312000D01*
X187706000Y-83058000D02*
X187960000Y-83312000D01*
D48*
X199068000Y-82150000D02*
X201334000Y-82150000D01*
X201334000Y-82150000D02*
X201422000Y-82062000D01*
D46*
X196920000Y-81350000D02*
X192919500Y-81350000D01*
X197720000Y-82150000D02*
X196920000Y-81350000D01*
G36*
X221555671Y-94782794D02*
X221488000Y-95123000D01*
X221488000Y-95176874D01*
X221480849Y-95187340D01*
X221429840Y-95439230D01*
X221429840Y-96838770D01*
X221474118Y-97074087D01*
X221613190Y-97290211D01*
X221825390Y-97435201D01*
X222077280Y-97486210D01*
X222676720Y-97486210D01*
X222912037Y-97441932D01*
X223128161Y-97302860D01*
X223273151Y-97090660D01*
X223324160Y-96838770D01*
X223324160Y-95527039D01*
X223622689Y-95403689D01*
X223926622Y-95100286D01*
X224091313Y-94703668D01*
X224091390Y-94615000D01*
X228231764Y-94615000D01*
X228027554Y-94819210D01*
X227937963Y-94836068D01*
X227721839Y-94975140D01*
X227576849Y-95187340D01*
X227525840Y-95439230D01*
X227525840Y-96838770D01*
X227570118Y-97074087D01*
X227709190Y-97290211D01*
X227921390Y-97435201D01*
X228173280Y-97486210D01*
X228772720Y-97486210D01*
X229008037Y-97441932D01*
X229224161Y-97302860D01*
X229369151Y-97090660D01*
X229420160Y-96838770D01*
X229420160Y-95941076D01*
X229793581Y-95567655D01*
X229829784Y-95567687D01*
X230226689Y-95403689D01*
X230530622Y-95100286D01*
X230695313Y-94703668D01*
X230695390Y-94615000D01*
X233553000Y-94615000D01*
X233553000Y-102935369D01*
X233491370Y-102997000D01*
X230695611Y-102997000D01*
X230695687Y-102910216D01*
X230531689Y-102513311D01*
X230228286Y-102209378D01*
X229831668Y-102044687D01*
X229402216Y-102044313D01*
X229005311Y-102208311D01*
X228701378Y-102511714D01*
X228536687Y-102908332D01*
X228536654Y-102946110D01*
X228485764Y-102997000D01*
X224599611Y-102997000D01*
X224599687Y-102910216D01*
X224435689Y-102513311D01*
X224132286Y-102209378D01*
X223735668Y-102044687D01*
X223306216Y-102044313D01*
X222909311Y-102208311D01*
X222605378Y-102511714D01*
X222440687Y-102908332D01*
X222440654Y-102946110D01*
X222389764Y-102997000D01*
X216535000Y-102997000D01*
X216535000Y-96329611D01*
X216621784Y-96329687D01*
X217018689Y-96165689D01*
X217322622Y-95862286D01*
X217487313Y-95465668D01*
X217487687Y-95036216D01*
X217323689Y-94639311D01*
X217299644Y-94615224D01*
X217299868Y-94615000D01*
X221667788Y-94615000D01*
X221555671Y-94782794D01*
X221555671Y-94782794D01*
G37*
X221555671Y-94782794D02*
X221488000Y-95123000D01*
X221488000Y-95176874D01*
X221480849Y-95187340D01*
X221429840Y-95439230D01*
X221429840Y-96838770D01*
X221474118Y-97074087D01*
X221613190Y-97290211D01*
X221825390Y-97435201D01*
X222077280Y-97486210D01*
X222676720Y-97486210D01*
X222912037Y-97441932D01*
X223128161Y-97302860D01*
X223273151Y-97090660D01*
X223324160Y-96838770D01*
X223324160Y-95527039D01*
X223622689Y-95403689D01*
X223926622Y-95100286D01*
X224091313Y-94703668D01*
X224091390Y-94615000D01*
X228231764Y-94615000D01*
X228027554Y-94819210D01*
X227937963Y-94836068D01*
X227721839Y-94975140D01*
X227576849Y-95187340D01*
X227525840Y-95439230D01*
X227525840Y-96838770D01*
X227570118Y-97074087D01*
X227709190Y-97290211D01*
X227921390Y-97435201D01*
X228173280Y-97486210D01*
X228772720Y-97486210D01*
X229008037Y-97441932D01*
X229224161Y-97302860D01*
X229369151Y-97090660D01*
X229420160Y-96838770D01*
X229420160Y-95941076D01*
X229793581Y-95567655D01*
X229829784Y-95567687D01*
X230226689Y-95403689D01*
X230530622Y-95100286D01*
X230695313Y-94703668D01*
X230695390Y-94615000D01*
X233553000Y-94615000D01*
X233553000Y-102935369D01*
X233491370Y-102997000D01*
X230695611Y-102997000D01*
X230695687Y-102910216D01*
X230531689Y-102513311D01*
X230228286Y-102209378D01*
X229831668Y-102044687D01*
X229402216Y-102044313D01*
X229005311Y-102208311D01*
X228701378Y-102511714D01*
X228536687Y-102908332D01*
X228536654Y-102946110D01*
X228485764Y-102997000D01*
X224599611Y-102997000D01*
X224599687Y-102910216D01*
X224435689Y-102513311D01*
X224132286Y-102209378D01*
X223735668Y-102044687D01*
X223306216Y-102044313D01*
X222909311Y-102208311D01*
X222605378Y-102511714D01*
X222440687Y-102908332D01*
X222440654Y-102946110D01*
X222389764Y-102997000D01*
X216535000Y-102997000D01*
X216535000Y-96329611D01*
X216621784Y-96329687D01*
X217018689Y-96165689D01*
X217322622Y-95862286D01*
X217487313Y-95465668D01*
X217487687Y-95036216D01*
X217323689Y-94639311D01*
X217299644Y-94615224D01*
X217299868Y-94615000D01*
X221667788Y-94615000D01*
X221555671Y-94782794D01*
G36*
X222653714Y-77368622D02*
X223050332Y-77533313D01*
X223479784Y-77533687D01*
X223876689Y-77369689D01*
X224157868Y-77089000D01*
X235077000Y-77089000D01*
X235077000Y-84455000D01*
X225249215Y-84455000D01*
X225414161Y-84348860D01*
X225559151Y-84136660D01*
X225610160Y-83884770D01*
X225610160Y-82485230D01*
X225565882Y-82249913D01*
X225426810Y-82033789D01*
X225214610Y-81888799D01*
X224962720Y-81837790D01*
X224363280Y-81837790D01*
X224127963Y-81882068D01*
X223911839Y-82021140D01*
X223766849Y-82233340D01*
X223715840Y-82485230D01*
X223715840Y-83382924D01*
X223342419Y-83756345D01*
X223306216Y-83756313D01*
X222909311Y-83920311D01*
X222605378Y-84223714D01*
X222509339Y-84455000D01*
X219276212Y-84455000D01*
X219388329Y-84287206D01*
X219399845Y-84229312D01*
X219463151Y-84136660D01*
X219514160Y-83884770D01*
X219514160Y-82485230D01*
X219469882Y-82249913D01*
X219330810Y-82033789D01*
X219118610Y-81888799D01*
X218866720Y-81837790D01*
X218267280Y-81837790D01*
X218031963Y-81882068D01*
X217815839Y-82021140D01*
X217670849Y-82233340D01*
X217619840Y-82485230D01*
X217619840Y-83636924D01*
X217500419Y-83756345D01*
X217464216Y-83756313D01*
X217067311Y-83920311D01*
X217043000Y-83944580D01*
X217043000Y-77464661D01*
X217208332Y-77533313D01*
X217637784Y-77533687D01*
X218034689Y-77369689D01*
X218315868Y-77089000D01*
X222374580Y-77089000D01*
X222653714Y-77368622D01*
X222653714Y-77368622D01*
G37*
X222653714Y-77368622D02*
X223050332Y-77533313D01*
X223479784Y-77533687D01*
X223876689Y-77369689D01*
X224157868Y-77089000D01*
X235077000Y-77089000D01*
X235077000Y-84455000D01*
X225249215Y-84455000D01*
X225414161Y-84348860D01*
X225559151Y-84136660D01*
X225610160Y-83884770D01*
X225610160Y-82485230D01*
X225565882Y-82249913D01*
X225426810Y-82033789D01*
X225214610Y-81888799D01*
X224962720Y-81837790D01*
X224363280Y-81837790D01*
X224127963Y-81882068D01*
X223911839Y-82021140D01*
X223766849Y-82233340D01*
X223715840Y-82485230D01*
X223715840Y-83382924D01*
X223342419Y-83756345D01*
X223306216Y-83756313D01*
X222909311Y-83920311D01*
X222605378Y-84223714D01*
X222509339Y-84455000D01*
X219276212Y-84455000D01*
X219388329Y-84287206D01*
X219399845Y-84229312D01*
X219463151Y-84136660D01*
X219514160Y-83884770D01*
X219514160Y-82485230D01*
X219469882Y-82249913D01*
X219330810Y-82033789D01*
X219118610Y-81888799D01*
X218866720Y-81837790D01*
X218267280Y-81837790D01*
X218031963Y-81882068D01*
X217815839Y-82021140D01*
X217670849Y-82233340D01*
X217619840Y-82485230D01*
X217619840Y-83636924D01*
X217500419Y-83756345D01*
X217464216Y-83756313D01*
X217067311Y-83920311D01*
X217043000Y-83944580D01*
X217043000Y-77464661D01*
X217208332Y-77533313D01*
X217637784Y-77533687D01*
X218034689Y-77369689D01*
X218315868Y-77089000D01*
X222374580Y-77089000D01*
X222653714Y-77368622D01*
G36*
X221625839Y-62463140D02*
X221480849Y-62675340D01*
X221429840Y-62927230D01*
X221429840Y-64326770D01*
X221474118Y-64562087D01*
X221613190Y-64778211D01*
X221825390Y-64923201D01*
X222077280Y-64974210D01*
X222676720Y-64974210D01*
X222912037Y-64929932D01*
X223128161Y-64790860D01*
X223273151Y-64578660D01*
X223324160Y-64326770D01*
X223324160Y-63429076D01*
X223697581Y-63055655D01*
X223733784Y-63055687D01*
X224130689Y-62891689D01*
X224434622Y-62588286D01*
X224530661Y-62357000D01*
X227763788Y-62357000D01*
X227651671Y-62524794D01*
X227640155Y-62582688D01*
X227576849Y-62675340D01*
X227525840Y-62927230D01*
X227525840Y-64326770D01*
X227570118Y-64562087D01*
X227709190Y-64778211D01*
X227921390Y-64923201D01*
X228173280Y-64974210D01*
X228772720Y-64974210D01*
X229008037Y-64929932D01*
X229224161Y-64790860D01*
X229369151Y-64578660D01*
X229420160Y-64326770D01*
X229420160Y-63175076D01*
X229539581Y-63055655D01*
X229575784Y-63055687D01*
X229972689Y-62891689D01*
X230276622Y-62588286D01*
X230372661Y-62357000D01*
X232791000Y-62357000D01*
X232791000Y-68707000D01*
X217297000Y-68707000D01*
X217297000Y-62357000D01*
X221790785Y-62357000D01*
X221625839Y-62463140D01*
X221625839Y-62463140D01*
G37*
X221625839Y-62463140D02*
X221480849Y-62675340D01*
X221429840Y-62927230D01*
X221429840Y-64326770D01*
X221474118Y-64562087D01*
X221613190Y-64778211D01*
X221825390Y-64923201D01*
X222077280Y-64974210D01*
X222676720Y-64974210D01*
X222912037Y-64929932D01*
X223128161Y-64790860D01*
X223273151Y-64578660D01*
X223324160Y-64326770D01*
X223324160Y-63429076D01*
X223697581Y-63055655D01*
X223733784Y-63055687D01*
X224130689Y-62891689D01*
X224434622Y-62588286D01*
X224530661Y-62357000D01*
X227763788Y-62357000D01*
X227651671Y-62524794D01*
X227640155Y-62582688D01*
X227576849Y-62675340D01*
X227525840Y-62927230D01*
X227525840Y-64326770D01*
X227570118Y-64562087D01*
X227709190Y-64778211D01*
X227921390Y-64923201D01*
X228173280Y-64974210D01*
X228772720Y-64974210D01*
X229008037Y-64929932D01*
X229224161Y-64790860D01*
X229369151Y-64578660D01*
X229420160Y-64326770D01*
X229420160Y-63175076D01*
X229539581Y-63055655D01*
X229575784Y-63055687D01*
X229972689Y-62891689D01*
X230276622Y-62588286D01*
X230372661Y-62357000D01*
X232791000Y-62357000D01*
X232791000Y-68707000D01*
X217297000Y-68707000D01*
X217297000Y-62357000D01*
X221790785Y-62357000D01*
X221625839Y-62463140D01*
G36*
X221480849Y-103823340D02*
X221429840Y-104075230D01*
X221429840Y-105474770D01*
X221474118Y-105710087D01*
X221613190Y-105926211D01*
X221825390Y-106071201D01*
X222077280Y-106122210D01*
X222676720Y-106122210D01*
X222912037Y-106077932D01*
X223128161Y-105938860D01*
X223273151Y-105726660D01*
X223324160Y-105474770D01*
X223324160Y-104577076D01*
X223697581Y-104203655D01*
X223733784Y-104203687D01*
X224130689Y-104039689D01*
X224411868Y-103759000D01*
X227620811Y-103759000D01*
X227576849Y-103823340D01*
X227525840Y-104075230D01*
X227525840Y-105474770D01*
X227570118Y-105710087D01*
X227709190Y-105926211D01*
X227921390Y-106071201D01*
X228173280Y-106122210D01*
X228334160Y-106122210D01*
X228315185Y-106141185D01*
X228150004Y-106388395D01*
X228092000Y-106680000D01*
X228092000Y-107126369D01*
X228030370Y-107188000D01*
X208282642Y-107188000D01*
X208130286Y-107035378D01*
X207733668Y-106870687D01*
X207304216Y-106870313D01*
X206907311Y-107034311D01*
X206603378Y-107337714D01*
X206438687Y-107734332D01*
X206438313Y-108163784D01*
X206602311Y-108560689D01*
X206905714Y-108864622D01*
X207302332Y-109029313D01*
X207731784Y-109029687D01*
X208128689Y-108865689D01*
X208282646Y-108712000D01*
X228346000Y-108712000D01*
X228637605Y-108653996D01*
X228884815Y-108488815D01*
X229115602Y-108258029D01*
X229570727Y-109359515D01*
X230015435Y-109805000D01*
X202057000Y-109805000D01*
X202057000Y-104394000D01*
X212916103Y-104394000D01*
X212917095Y-104394663D01*
X213233000Y-104457500D01*
X213371043Y-104457500D01*
X213419910Y-104533441D01*
X213632110Y-104678431D01*
X213884000Y-104729440D01*
X214384000Y-104729440D01*
X214619317Y-104685162D01*
X214835441Y-104546090D01*
X214883134Y-104476289D01*
X214919910Y-104533441D01*
X215132110Y-104678431D01*
X215384000Y-104729440D01*
X215884000Y-104729440D01*
X216119317Y-104685162D01*
X216335441Y-104546090D01*
X216480431Y-104333890D01*
X216494448Y-104264674D01*
X216567717Y-104215717D01*
X216746663Y-103947905D01*
X216784238Y-103759000D01*
X221524811Y-103759000D01*
X221480849Y-103823340D01*
X221480849Y-103823340D01*
G37*
X221480849Y-103823340D02*
X221429840Y-104075230D01*
X221429840Y-105474770D01*
X221474118Y-105710087D01*
X221613190Y-105926211D01*
X221825390Y-106071201D01*
X222077280Y-106122210D01*
X222676720Y-106122210D01*
X222912037Y-106077932D01*
X223128161Y-105938860D01*
X223273151Y-105726660D01*
X223324160Y-105474770D01*
X223324160Y-104577076D01*
X223697581Y-104203655D01*
X223733784Y-104203687D01*
X224130689Y-104039689D01*
X224411868Y-103759000D01*
X227620811Y-103759000D01*
X227576849Y-103823340D01*
X227525840Y-104075230D01*
X227525840Y-105474770D01*
X227570118Y-105710087D01*
X227709190Y-105926211D01*
X227921390Y-106071201D01*
X228173280Y-106122210D01*
X228334160Y-106122210D01*
X228315185Y-106141185D01*
X228150004Y-106388395D01*
X228092000Y-106680000D01*
X228092000Y-107126369D01*
X228030370Y-107188000D01*
X208282642Y-107188000D01*
X208130286Y-107035378D01*
X207733668Y-106870687D01*
X207304216Y-106870313D01*
X206907311Y-107034311D01*
X206603378Y-107337714D01*
X206438687Y-107734332D01*
X206438313Y-108163784D01*
X206602311Y-108560689D01*
X206905714Y-108864622D01*
X207302332Y-109029313D01*
X207731784Y-109029687D01*
X208128689Y-108865689D01*
X208282646Y-108712000D01*
X228346000Y-108712000D01*
X228637605Y-108653996D01*
X228884815Y-108488815D01*
X229115602Y-108258029D01*
X229570727Y-109359515D01*
X230015435Y-109805000D01*
X202057000Y-109805000D01*
X202057000Y-104394000D01*
X212916103Y-104394000D01*
X212917095Y-104394663D01*
X213233000Y-104457500D01*
X213371043Y-104457500D01*
X213419910Y-104533441D01*
X213632110Y-104678431D01*
X213884000Y-104729440D01*
X214384000Y-104729440D01*
X214619317Y-104685162D01*
X214835441Y-104546090D01*
X214883134Y-104476289D01*
X214919910Y-104533441D01*
X215132110Y-104678431D01*
X215384000Y-104729440D01*
X215884000Y-104729440D01*
X216119317Y-104685162D01*
X216335441Y-104546090D01*
X216480431Y-104333890D01*
X216494448Y-104264674D01*
X216567717Y-104215717D01*
X216746663Y-103947905D01*
X216784238Y-103759000D01*
X221524811Y-103759000D01*
X221480849Y-103823340D01*
G36*
X204470000Y-91430000D02*
X204490000Y-91430000D01*
X204490000Y-91680000D01*
X204470000Y-91680000D01*
X204470000Y-92281250D01*
X204628750Y-92440000D01*
X204919310Y-92440000D01*
X205152699Y-92343327D01*
X205331327Y-92164698D01*
X205347653Y-92125283D01*
X206248000Y-93025630D01*
X206248000Y-99568000D01*
X206306004Y-99859605D01*
X206429380Y-100044250D01*
X206471185Y-100106815D01*
X209011184Y-102646815D01*
X209216189Y-102783795D01*
X209258395Y-102811996D01*
X209550000Y-102870000D01*
X202057000Y-102870000D01*
X202057000Y-101221420D01*
X202186646Y-101092000D01*
X202408182Y-101092000D01*
X202497910Y-101231441D01*
X202710110Y-101376431D01*
X202962000Y-101427440D01*
X203462000Y-101427440D01*
X203697317Y-101383162D01*
X203913441Y-101244090D01*
X203959969Y-101175994D01*
X204102302Y-101318327D01*
X204335691Y-101415000D01*
X204428250Y-101415000D01*
X204587000Y-101256250D01*
X204587000Y-100457000D01*
X204837000Y-100457000D01*
X204837000Y-101256250D01*
X204995750Y-101415000D01*
X205088309Y-101415000D01*
X205321698Y-101318327D01*
X205500327Y-101139699D01*
X205597000Y-100906310D01*
X205597000Y-100615750D01*
X205438250Y-100457000D01*
X204837000Y-100457000D01*
X204587000Y-100457000D01*
X204565000Y-100457000D01*
X204565000Y-100203000D01*
X204587000Y-100203000D01*
X204587000Y-99403750D01*
X204837000Y-99403750D01*
X204837000Y-100203000D01*
X205438250Y-100203000D01*
X205597000Y-100044250D01*
X205597000Y-99753690D01*
X205500327Y-99520301D01*
X205321698Y-99341673D01*
X205088309Y-99245000D01*
X204995750Y-99245000D01*
X204837000Y-99403750D01*
X204587000Y-99403750D01*
X204428250Y-99245000D01*
X204335691Y-99245000D01*
X204102302Y-99341673D01*
X203961064Y-99482910D01*
X203926090Y-99428559D01*
X203713890Y-99283569D01*
X203462000Y-99232560D01*
X202962000Y-99232560D01*
X202726683Y-99276838D01*
X202510559Y-99415910D01*
X202406640Y-99568000D01*
X202186642Y-99568000D01*
X202057000Y-99438132D01*
X202057000Y-98681420D01*
X202186646Y-98552000D01*
X202408182Y-98552000D01*
X202497910Y-98691441D01*
X202710110Y-98836431D01*
X202962000Y-98887440D01*
X203462000Y-98887440D01*
X203697317Y-98843162D01*
X203913441Y-98704090D01*
X203959969Y-98635994D01*
X204102302Y-98778327D01*
X204335691Y-98875000D01*
X204428250Y-98875000D01*
X204587000Y-98716250D01*
X204587000Y-97917000D01*
X204837000Y-97917000D01*
X204837000Y-98716250D01*
X204995750Y-98875000D01*
X205088309Y-98875000D01*
X205321698Y-98778327D01*
X205500327Y-98599699D01*
X205597000Y-98366310D01*
X205597000Y-98075750D01*
X205438250Y-97917000D01*
X204837000Y-97917000D01*
X204587000Y-97917000D01*
X204565000Y-97917000D01*
X204565000Y-97663000D01*
X204587000Y-97663000D01*
X204587000Y-96863750D01*
X204497250Y-96774000D01*
X204587000Y-96684250D01*
X204587000Y-95885000D01*
X204837000Y-95885000D01*
X204837000Y-96684250D01*
X204926750Y-96774000D01*
X204837000Y-96863750D01*
X204837000Y-97663000D01*
X205438250Y-97663000D01*
X205597000Y-97504250D01*
X205597000Y-97213690D01*
X205500327Y-96980301D01*
X205321698Y-96801673D01*
X205254890Y-96774000D01*
X205321698Y-96746327D01*
X205500327Y-96567699D01*
X205597000Y-96334310D01*
X205597000Y-96043750D01*
X205438250Y-95885000D01*
X204837000Y-95885000D01*
X204587000Y-95885000D01*
X204565000Y-95885000D01*
X204565000Y-95631000D01*
X204587000Y-95631000D01*
X204587000Y-94831750D01*
X204837000Y-94831750D01*
X204837000Y-95631000D01*
X205438250Y-95631000D01*
X205597000Y-95472250D01*
X205597000Y-95181690D01*
X205500327Y-94948301D01*
X205321698Y-94769673D01*
X205088309Y-94673000D01*
X204995750Y-94673000D01*
X204837000Y-94831750D01*
X204587000Y-94831750D01*
X204428250Y-94673000D01*
X204335691Y-94673000D01*
X204102302Y-94769673D01*
X203961064Y-94910910D01*
X203926090Y-94856559D01*
X203713890Y-94711569D01*
X203462000Y-94660560D01*
X202962000Y-94660560D01*
X202726683Y-94704838D01*
X202510559Y-94843910D01*
X202406640Y-94996000D01*
X202057000Y-94996000D01*
X202057000Y-94701279D01*
X202141155Y-94647127D01*
X202287605Y-94617996D01*
X202534815Y-94452815D01*
X203484815Y-93502815D01*
X203535631Y-93426763D01*
X203649996Y-93255605D01*
X203708000Y-92964000D01*
X203708000Y-92712642D01*
X203860622Y-92560286D01*
X203910569Y-92440000D01*
X204057250Y-92440000D01*
X204216000Y-92281250D01*
X204216000Y-91680000D01*
X204196000Y-91680000D01*
X204196000Y-91430000D01*
X204216000Y-91430000D01*
X204216000Y-91408000D01*
X204470000Y-91408000D01*
X204470000Y-91430000D01*
X204470000Y-91430000D01*
G37*
X204470000Y-91430000D02*
X204490000Y-91430000D01*
X204490000Y-91680000D01*
X204470000Y-91680000D01*
X204470000Y-92281250D01*
X204628750Y-92440000D01*
X204919310Y-92440000D01*
X205152699Y-92343327D01*
X205331327Y-92164698D01*
X205347653Y-92125283D01*
X206248000Y-93025630D01*
X206248000Y-99568000D01*
X206306004Y-99859605D01*
X206429380Y-100044250D01*
X206471185Y-100106815D01*
X209011184Y-102646815D01*
X209216189Y-102783795D01*
X209258395Y-102811996D01*
X209550000Y-102870000D01*
X202057000Y-102870000D01*
X202057000Y-101221420D01*
X202186646Y-101092000D01*
X202408182Y-101092000D01*
X202497910Y-101231441D01*
X202710110Y-101376431D01*
X202962000Y-101427440D01*
X203462000Y-101427440D01*
X203697317Y-101383162D01*
X203913441Y-101244090D01*
X203959969Y-101175994D01*
X204102302Y-101318327D01*
X204335691Y-101415000D01*
X204428250Y-101415000D01*
X204587000Y-101256250D01*
X204587000Y-100457000D01*
X204837000Y-100457000D01*
X204837000Y-101256250D01*
X204995750Y-101415000D01*
X205088309Y-101415000D01*
X205321698Y-101318327D01*
X205500327Y-101139699D01*
X205597000Y-100906310D01*
X205597000Y-100615750D01*
X205438250Y-100457000D01*
X204837000Y-100457000D01*
X204587000Y-100457000D01*
X204565000Y-100457000D01*
X204565000Y-100203000D01*
X204587000Y-100203000D01*
X204587000Y-99403750D01*
X204837000Y-99403750D01*
X204837000Y-100203000D01*
X205438250Y-100203000D01*
X205597000Y-100044250D01*
X205597000Y-99753690D01*
X205500327Y-99520301D01*
X205321698Y-99341673D01*
X205088309Y-99245000D01*
X204995750Y-99245000D01*
X204837000Y-99403750D01*
X204587000Y-99403750D01*
X204428250Y-99245000D01*
X204335691Y-99245000D01*
X204102302Y-99341673D01*
X203961064Y-99482910D01*
X203926090Y-99428559D01*
X203713890Y-99283569D01*
X203462000Y-99232560D01*
X202962000Y-99232560D01*
X202726683Y-99276838D01*
X202510559Y-99415910D01*
X202406640Y-99568000D01*
X202186642Y-99568000D01*
X202057000Y-99438132D01*
X202057000Y-98681420D01*
X202186646Y-98552000D01*
X202408182Y-98552000D01*
X202497910Y-98691441D01*
X202710110Y-98836431D01*
X202962000Y-98887440D01*
X203462000Y-98887440D01*
X203697317Y-98843162D01*
X203913441Y-98704090D01*
X203959969Y-98635994D01*
X204102302Y-98778327D01*
X204335691Y-98875000D01*
X204428250Y-98875000D01*
X204587000Y-98716250D01*
X204587000Y-97917000D01*
X204837000Y-97917000D01*
X204837000Y-98716250D01*
X204995750Y-98875000D01*
X205088309Y-98875000D01*
X205321698Y-98778327D01*
X205500327Y-98599699D01*
X205597000Y-98366310D01*
X205597000Y-98075750D01*
X205438250Y-97917000D01*
X204837000Y-97917000D01*
X204587000Y-97917000D01*
X204565000Y-97917000D01*
X204565000Y-97663000D01*
X204587000Y-97663000D01*
X204587000Y-96863750D01*
X204497250Y-96774000D01*
X204587000Y-96684250D01*
X204587000Y-95885000D01*
X204837000Y-95885000D01*
X204837000Y-96684250D01*
X204926750Y-96774000D01*
X204837000Y-96863750D01*
X204837000Y-97663000D01*
X205438250Y-97663000D01*
X205597000Y-97504250D01*
X205597000Y-97213690D01*
X205500327Y-96980301D01*
X205321698Y-96801673D01*
X205254890Y-96774000D01*
X205321698Y-96746327D01*
X205500327Y-96567699D01*
X205597000Y-96334310D01*
X205597000Y-96043750D01*
X205438250Y-95885000D01*
X204837000Y-95885000D01*
X204587000Y-95885000D01*
X204565000Y-95885000D01*
X204565000Y-95631000D01*
X204587000Y-95631000D01*
X204587000Y-94831750D01*
X204837000Y-94831750D01*
X204837000Y-95631000D01*
X205438250Y-95631000D01*
X205597000Y-95472250D01*
X205597000Y-95181690D01*
X205500327Y-94948301D01*
X205321698Y-94769673D01*
X205088309Y-94673000D01*
X204995750Y-94673000D01*
X204837000Y-94831750D01*
X204587000Y-94831750D01*
X204428250Y-94673000D01*
X204335691Y-94673000D01*
X204102302Y-94769673D01*
X203961064Y-94910910D01*
X203926090Y-94856559D01*
X203713890Y-94711569D01*
X203462000Y-94660560D01*
X202962000Y-94660560D01*
X202726683Y-94704838D01*
X202510559Y-94843910D01*
X202406640Y-94996000D01*
X202057000Y-94996000D01*
X202057000Y-94701279D01*
X202141155Y-94647127D01*
X202287605Y-94617996D01*
X202534815Y-94452815D01*
X203484815Y-93502815D01*
X203535631Y-93426763D01*
X203649996Y-93255605D01*
X203708000Y-92964000D01*
X203708000Y-92712642D01*
X203860622Y-92560286D01*
X203910569Y-92440000D01*
X204057250Y-92440000D01*
X204216000Y-92281250D01*
X204216000Y-91680000D01*
X204196000Y-91680000D01*
X204196000Y-91430000D01*
X204216000Y-91430000D01*
X204216000Y-91408000D01*
X204470000Y-91408000D01*
X204470000Y-91430000D01*
G36*
X210920311Y-94590689D02*
X211223714Y-94894622D01*
X211620332Y-95059313D01*
X212049784Y-95059687D01*
X212082640Y-95046111D01*
X212082640Y-96012000D01*
X212126918Y-96247317D01*
X212265990Y-96463441D01*
X212478190Y-96608431D01*
X212510085Y-96614890D01*
X212445673Y-96679301D01*
X212349000Y-96912690D01*
X212349000Y-97618250D01*
X212507750Y-97777000D01*
X213782000Y-97777000D01*
X213782000Y-97757000D01*
X214036000Y-97757000D01*
X214036000Y-97777000D01*
X215310250Y-97777000D01*
X215469000Y-97618250D01*
X215469000Y-96912690D01*
X215372327Y-96679301D01*
X215310457Y-96617431D01*
X215322517Y-96615162D01*
X215538641Y-96476090D01*
X215683631Y-96263890D01*
X215719246Y-96088020D01*
X215773000Y-96141868D01*
X215773000Y-100962576D01*
X215715860Y-100905336D01*
X215734640Y-100812600D01*
X215734640Y-99796600D01*
X215690362Y-99561283D01*
X215551290Y-99345159D01*
X215339090Y-99200169D01*
X215307295Y-99193730D01*
X215372327Y-99128699D01*
X215469000Y-98895310D01*
X215469000Y-98189750D01*
X215310250Y-98031000D01*
X214036000Y-98031000D01*
X214036000Y-98051000D01*
X213782000Y-98051000D01*
X213782000Y-98031000D01*
X212507750Y-98031000D01*
X212349000Y-98189750D01*
X212349000Y-98895310D01*
X212445673Y-99128699D01*
X212507934Y-99190960D01*
X212494763Y-99193438D01*
X212278639Y-99332510D01*
X212133649Y-99544710D01*
X212082640Y-99796600D01*
X212082640Y-100783730D01*
X212028370Y-100838000D01*
X210119631Y-100838000D01*
X208944630Y-99663000D01*
X209010250Y-99663000D01*
X209169000Y-99504250D01*
X209169000Y-98405000D01*
X209423000Y-98405000D01*
X209423000Y-99504250D01*
X209581750Y-99663000D01*
X210047310Y-99663000D01*
X210280699Y-99566327D01*
X210459327Y-99387698D01*
X210556000Y-99154309D01*
X210556000Y-98563750D01*
X210397250Y-98405000D01*
X209423000Y-98405000D01*
X209169000Y-98405000D01*
X209149000Y-98405000D01*
X209149000Y-98151000D01*
X209169000Y-98151000D01*
X209169000Y-98131000D01*
X209423000Y-98131000D01*
X209423000Y-98151000D01*
X210397250Y-98151000D01*
X210556000Y-97992250D01*
X210556000Y-97401691D01*
X210459327Y-97168302D01*
X210318090Y-97027064D01*
X210372441Y-96992090D01*
X210517431Y-96779890D01*
X210568440Y-96528000D01*
X210568440Y-95028000D01*
X210524162Y-94792683D01*
X210385090Y-94576559D01*
X210379021Y-94572412D01*
X210415982Y-94535452D01*
X210686618Y-94354618D01*
X210770745Y-94228713D01*
X210920311Y-94590689D01*
X210920311Y-94590689D01*
G37*
X210920311Y-94590689D02*
X211223714Y-94894622D01*
X211620332Y-95059313D01*
X212049784Y-95059687D01*
X212082640Y-95046111D01*
X212082640Y-96012000D01*
X212126918Y-96247317D01*
X212265990Y-96463441D01*
X212478190Y-96608431D01*
X212510085Y-96614890D01*
X212445673Y-96679301D01*
X212349000Y-96912690D01*
X212349000Y-97618250D01*
X212507750Y-97777000D01*
X213782000Y-97777000D01*
X213782000Y-97757000D01*
X214036000Y-97757000D01*
X214036000Y-97777000D01*
X215310250Y-97777000D01*
X215469000Y-97618250D01*
X215469000Y-96912690D01*
X215372327Y-96679301D01*
X215310457Y-96617431D01*
X215322517Y-96615162D01*
X215538641Y-96476090D01*
X215683631Y-96263890D01*
X215719246Y-96088020D01*
X215773000Y-96141868D01*
X215773000Y-100962576D01*
X215715860Y-100905336D01*
X215734640Y-100812600D01*
X215734640Y-99796600D01*
X215690362Y-99561283D01*
X215551290Y-99345159D01*
X215339090Y-99200169D01*
X215307295Y-99193730D01*
X215372327Y-99128699D01*
X215469000Y-98895310D01*
X215469000Y-98189750D01*
X215310250Y-98031000D01*
X214036000Y-98031000D01*
X214036000Y-98051000D01*
X213782000Y-98051000D01*
X213782000Y-98031000D01*
X212507750Y-98031000D01*
X212349000Y-98189750D01*
X212349000Y-98895310D01*
X212445673Y-99128699D01*
X212507934Y-99190960D01*
X212494763Y-99193438D01*
X212278639Y-99332510D01*
X212133649Y-99544710D01*
X212082640Y-99796600D01*
X212082640Y-100783730D01*
X212028370Y-100838000D01*
X210119631Y-100838000D01*
X208944630Y-99663000D01*
X209010250Y-99663000D01*
X209169000Y-99504250D01*
X209169000Y-98405000D01*
X209423000Y-98405000D01*
X209423000Y-99504250D01*
X209581750Y-99663000D01*
X210047310Y-99663000D01*
X210280699Y-99566327D01*
X210459327Y-99387698D01*
X210556000Y-99154309D01*
X210556000Y-98563750D01*
X210397250Y-98405000D01*
X209423000Y-98405000D01*
X209169000Y-98405000D01*
X209149000Y-98405000D01*
X209149000Y-98151000D01*
X209169000Y-98151000D01*
X209169000Y-98131000D01*
X209423000Y-98131000D01*
X209423000Y-98151000D01*
X210397250Y-98151000D01*
X210556000Y-97992250D01*
X210556000Y-97401691D01*
X210459327Y-97168302D01*
X210318090Y-97027064D01*
X210372441Y-96992090D01*
X210517431Y-96779890D01*
X210568440Y-96528000D01*
X210568440Y-95028000D01*
X210524162Y-94792683D01*
X210385090Y-94576559D01*
X210379021Y-94572412D01*
X210415982Y-94535452D01*
X210686618Y-94354618D01*
X210770745Y-94228713D01*
X210920311Y-94590689D01*
G36*
X206420560Y-77351000D02*
X206464838Y-77586317D01*
X206603910Y-77802441D01*
X206672006Y-77848969D01*
X206529673Y-77991302D01*
X206433000Y-78224691D01*
X206433000Y-78317250D01*
X206591750Y-78476000D01*
X207391000Y-78476000D01*
X207391000Y-78454000D01*
X207645000Y-78454000D01*
X207645000Y-78476000D01*
X208444250Y-78476000D01*
X208603000Y-78317250D01*
X208603000Y-78224691D01*
X208506327Y-77991302D01*
X208365090Y-77850064D01*
X208419441Y-77815090D01*
X208564431Y-77602890D01*
X208615440Y-77351000D01*
X208615440Y-76962000D01*
X211788604Y-76962000D01*
X211772687Y-77000332D01*
X211772576Y-77127990D01*
X211760283Y-77140283D01*
X211581337Y-77408094D01*
X211561099Y-77509838D01*
X211518500Y-77724000D01*
X211518500Y-78133255D01*
X211493360Y-78257400D01*
X211493360Y-79273400D01*
X211537638Y-79508717D01*
X211676710Y-79724841D01*
X211888910Y-79869831D01*
X211920705Y-79876270D01*
X211855673Y-79941301D01*
X211759000Y-80174690D01*
X211759000Y-80880250D01*
X211917750Y-81039000D01*
X213192000Y-81039000D01*
X213192000Y-81019000D01*
X213446000Y-81019000D01*
X213446000Y-81039000D01*
X214720250Y-81039000D01*
X214879000Y-80880250D01*
X214879000Y-80174690D01*
X214782327Y-79941301D01*
X214720066Y-79879040D01*
X214733237Y-79876562D01*
X214949361Y-79737490D01*
X215094351Y-79525290D01*
X215145360Y-79273400D01*
X215145360Y-78257400D01*
X215108593Y-78062000D01*
X215392000Y-78062000D01*
X215683605Y-78003996D01*
X215930815Y-77838815D01*
X215936995Y-77829565D01*
X216077317Y-77803162D01*
X216281000Y-77672096D01*
X216281000Y-81763566D01*
X215304066Y-82740500D01*
X215048199Y-82740500D01*
X214962010Y-82606559D01*
X214749810Y-82461569D01*
X214717915Y-82455110D01*
X214782327Y-82390699D01*
X214879000Y-82157310D01*
X214879000Y-81451750D01*
X214720250Y-81293000D01*
X213446000Y-81293000D01*
X213446000Y-81313000D01*
X213192000Y-81313000D01*
X213192000Y-81293000D01*
X211917750Y-81293000D01*
X211867113Y-81343637D01*
X211495216Y-81343313D01*
X211318000Y-81416537D01*
X211318000Y-81077750D01*
X211159250Y-80919000D01*
X210185000Y-80919000D01*
X210185000Y-80939000D01*
X209931000Y-80939000D01*
X209931000Y-80919000D01*
X208956750Y-80919000D01*
X208798000Y-81077750D01*
X208798000Y-81668309D01*
X208894673Y-81901698D01*
X209035910Y-82042936D01*
X208981559Y-82077910D01*
X208836569Y-82290110D01*
X208785560Y-82542000D01*
X208785560Y-84042000D01*
X208829838Y-84277317D01*
X208968910Y-84493441D01*
X209169000Y-84630157D01*
X209169000Y-93447567D01*
X208712283Y-93904283D01*
X208533337Y-94172094D01*
X208497031Y-94354618D01*
X208484906Y-94415576D01*
X208435683Y-94424838D01*
X208280000Y-94525017D01*
X208280000Y-92456000D01*
X208221996Y-92164395D01*
X208213854Y-92152210D01*
X208056815Y-91917184D01*
X205994000Y-89854370D01*
X205994000Y-88549288D01*
X206199441Y-88417090D01*
X206245969Y-88348994D01*
X206388302Y-88491327D01*
X206621691Y-88588000D01*
X206714250Y-88588000D01*
X206873000Y-88429250D01*
X206873000Y-87630000D01*
X207123000Y-87630000D01*
X207123000Y-88429250D01*
X207281750Y-88588000D01*
X207374309Y-88588000D01*
X207607698Y-88491327D01*
X207786327Y-88312699D01*
X207883000Y-88079310D01*
X207883000Y-87788750D01*
X207724250Y-87630000D01*
X207123000Y-87630000D01*
X206873000Y-87630000D01*
X206851000Y-87630000D01*
X206851000Y-87376000D01*
X206873000Y-87376000D01*
X206873000Y-86576750D01*
X207123000Y-86576750D01*
X207123000Y-87376000D01*
X207724250Y-87376000D01*
X207883000Y-87217250D01*
X207883000Y-86926690D01*
X207786327Y-86693301D01*
X207607698Y-86514673D01*
X207374309Y-86418000D01*
X207281750Y-86418000D01*
X207123000Y-86576750D01*
X206873000Y-86576750D01*
X206714250Y-86418000D01*
X206621691Y-86418000D01*
X206388302Y-86514673D01*
X206247064Y-86655910D01*
X206212090Y-86601559D01*
X205999890Y-86456569D01*
X205994000Y-86455376D01*
X205994000Y-79915691D01*
X208798000Y-79915691D01*
X208798000Y-80506250D01*
X208956750Y-80665000D01*
X209931000Y-80665000D01*
X209931000Y-79565750D01*
X210185000Y-79565750D01*
X210185000Y-80665000D01*
X211159250Y-80665000D01*
X211318000Y-80506250D01*
X211318000Y-79915691D01*
X211221327Y-79682302D01*
X211042699Y-79503673D01*
X210809310Y-79407000D01*
X210343750Y-79407000D01*
X210185000Y-79565750D01*
X209931000Y-79565750D01*
X209772250Y-79407000D01*
X209306690Y-79407000D01*
X209073301Y-79503673D01*
X208894673Y-79682302D01*
X208798000Y-79915691D01*
X205994000Y-79915691D01*
X205994000Y-78994000D01*
X205972269Y-78884750D01*
X206433000Y-78884750D01*
X206433000Y-78977309D01*
X206529673Y-79210698D01*
X206708301Y-79389327D01*
X206941690Y-79486000D01*
X207232250Y-79486000D01*
X207391000Y-79327250D01*
X207391000Y-78726000D01*
X207645000Y-78726000D01*
X207645000Y-79327250D01*
X207803750Y-79486000D01*
X208094310Y-79486000D01*
X208327699Y-79389327D01*
X208506327Y-79210698D01*
X208603000Y-78977309D01*
X208603000Y-78884750D01*
X208444250Y-78726000D01*
X207645000Y-78726000D01*
X207391000Y-78726000D01*
X206591750Y-78726000D01*
X206433000Y-78884750D01*
X205972269Y-78884750D01*
X205935996Y-78702395D01*
X205869834Y-78603377D01*
X205770816Y-78455185D01*
X204277631Y-76962000D01*
X206420560Y-76962000D01*
X206420560Y-77351000D01*
X206420560Y-77351000D01*
G37*
X206420560Y-77351000D02*
X206464838Y-77586317D01*
X206603910Y-77802441D01*
X206672006Y-77848969D01*
X206529673Y-77991302D01*
X206433000Y-78224691D01*
X206433000Y-78317250D01*
X206591750Y-78476000D01*
X207391000Y-78476000D01*
X207391000Y-78454000D01*
X207645000Y-78454000D01*
X207645000Y-78476000D01*
X208444250Y-78476000D01*
X208603000Y-78317250D01*
X208603000Y-78224691D01*
X208506327Y-77991302D01*
X208365090Y-77850064D01*
X208419441Y-77815090D01*
X208564431Y-77602890D01*
X208615440Y-77351000D01*
X208615440Y-76962000D01*
X211788604Y-76962000D01*
X211772687Y-77000332D01*
X211772576Y-77127990D01*
X211760283Y-77140283D01*
X211581337Y-77408094D01*
X211561099Y-77509838D01*
X211518500Y-77724000D01*
X211518500Y-78133255D01*
X211493360Y-78257400D01*
X211493360Y-79273400D01*
X211537638Y-79508717D01*
X211676710Y-79724841D01*
X211888910Y-79869831D01*
X211920705Y-79876270D01*
X211855673Y-79941301D01*
X211759000Y-80174690D01*
X211759000Y-80880250D01*
X211917750Y-81039000D01*
X213192000Y-81039000D01*
X213192000Y-81019000D01*
X213446000Y-81019000D01*
X213446000Y-81039000D01*
X214720250Y-81039000D01*
X214879000Y-80880250D01*
X214879000Y-80174690D01*
X214782327Y-79941301D01*
X214720066Y-79879040D01*
X214733237Y-79876562D01*
X214949361Y-79737490D01*
X215094351Y-79525290D01*
X215145360Y-79273400D01*
X215145360Y-78257400D01*
X215108593Y-78062000D01*
X215392000Y-78062000D01*
X215683605Y-78003996D01*
X215930815Y-77838815D01*
X215936995Y-77829565D01*
X216077317Y-77803162D01*
X216281000Y-77672096D01*
X216281000Y-81763566D01*
X215304066Y-82740500D01*
X215048199Y-82740500D01*
X214962010Y-82606559D01*
X214749810Y-82461569D01*
X214717915Y-82455110D01*
X214782327Y-82390699D01*
X214879000Y-82157310D01*
X214879000Y-81451750D01*
X214720250Y-81293000D01*
X213446000Y-81293000D01*
X213446000Y-81313000D01*
X213192000Y-81313000D01*
X213192000Y-81293000D01*
X211917750Y-81293000D01*
X211867113Y-81343637D01*
X211495216Y-81343313D01*
X211318000Y-81416537D01*
X211318000Y-81077750D01*
X211159250Y-80919000D01*
X210185000Y-80919000D01*
X210185000Y-80939000D01*
X209931000Y-80939000D01*
X209931000Y-80919000D01*
X208956750Y-80919000D01*
X208798000Y-81077750D01*
X208798000Y-81668309D01*
X208894673Y-81901698D01*
X209035910Y-82042936D01*
X208981559Y-82077910D01*
X208836569Y-82290110D01*
X208785560Y-82542000D01*
X208785560Y-84042000D01*
X208829838Y-84277317D01*
X208968910Y-84493441D01*
X209169000Y-84630157D01*
X209169000Y-93447567D01*
X208712283Y-93904283D01*
X208533337Y-94172094D01*
X208497031Y-94354618D01*
X208484906Y-94415576D01*
X208435683Y-94424838D01*
X208280000Y-94525017D01*
X208280000Y-92456000D01*
X208221996Y-92164395D01*
X208213854Y-92152210D01*
X208056815Y-91917184D01*
X205994000Y-89854370D01*
X205994000Y-88549288D01*
X206199441Y-88417090D01*
X206245969Y-88348994D01*
X206388302Y-88491327D01*
X206621691Y-88588000D01*
X206714250Y-88588000D01*
X206873000Y-88429250D01*
X206873000Y-87630000D01*
X207123000Y-87630000D01*
X207123000Y-88429250D01*
X207281750Y-88588000D01*
X207374309Y-88588000D01*
X207607698Y-88491327D01*
X207786327Y-88312699D01*
X207883000Y-88079310D01*
X207883000Y-87788750D01*
X207724250Y-87630000D01*
X207123000Y-87630000D01*
X206873000Y-87630000D01*
X206851000Y-87630000D01*
X206851000Y-87376000D01*
X206873000Y-87376000D01*
X206873000Y-86576750D01*
X207123000Y-86576750D01*
X207123000Y-87376000D01*
X207724250Y-87376000D01*
X207883000Y-87217250D01*
X207883000Y-86926690D01*
X207786327Y-86693301D01*
X207607698Y-86514673D01*
X207374309Y-86418000D01*
X207281750Y-86418000D01*
X207123000Y-86576750D01*
X206873000Y-86576750D01*
X206714250Y-86418000D01*
X206621691Y-86418000D01*
X206388302Y-86514673D01*
X206247064Y-86655910D01*
X206212090Y-86601559D01*
X205999890Y-86456569D01*
X205994000Y-86455376D01*
X205994000Y-79915691D01*
X208798000Y-79915691D01*
X208798000Y-80506250D01*
X208956750Y-80665000D01*
X209931000Y-80665000D01*
X209931000Y-79565750D01*
X210185000Y-79565750D01*
X210185000Y-80665000D01*
X211159250Y-80665000D01*
X211318000Y-80506250D01*
X211318000Y-79915691D01*
X211221327Y-79682302D01*
X211042699Y-79503673D01*
X210809310Y-79407000D01*
X210343750Y-79407000D01*
X210185000Y-79565750D01*
X209931000Y-79565750D01*
X209772250Y-79407000D01*
X209306690Y-79407000D01*
X209073301Y-79503673D01*
X208894673Y-79682302D01*
X208798000Y-79915691D01*
X205994000Y-79915691D01*
X205994000Y-78994000D01*
X205972269Y-78884750D01*
X206433000Y-78884750D01*
X206433000Y-78977309D01*
X206529673Y-79210698D01*
X206708301Y-79389327D01*
X206941690Y-79486000D01*
X207232250Y-79486000D01*
X207391000Y-79327250D01*
X207391000Y-78726000D01*
X207645000Y-78726000D01*
X207645000Y-79327250D01*
X207803750Y-79486000D01*
X208094310Y-79486000D01*
X208327699Y-79389327D01*
X208506327Y-79210698D01*
X208603000Y-78977309D01*
X208603000Y-78884750D01*
X208444250Y-78726000D01*
X207645000Y-78726000D01*
X207391000Y-78726000D01*
X206591750Y-78726000D01*
X206433000Y-78884750D01*
X205972269Y-78884750D01*
X205935996Y-78702395D01*
X205869834Y-78603377D01*
X205770816Y-78455185D01*
X204277631Y-76962000D01*
X206420560Y-76962000D01*
X206420560Y-77351000D01*
G36*
X212228060Y-69455096D02*
X212191378Y-69491714D01*
X212026687Y-69888332D01*
X212026313Y-70317784D01*
X212190311Y-70714689D01*
X212493714Y-71018622D01*
X212890332Y-71183313D01*
X213319784Y-71183687D01*
X213716689Y-71019689D01*
X214020622Y-70716286D01*
X214185313Y-70319668D01*
X214185530Y-70070718D01*
X214287516Y-69918085D01*
X214288805Y-69911605D01*
X214330509Y-69701943D01*
X214656416Y-70027849D01*
X214730311Y-70206689D01*
X215033714Y-70510622D01*
X215430332Y-70675313D01*
X215859784Y-70675687D01*
X216256689Y-70511689D01*
X216560622Y-70208286D01*
X216657048Y-69976068D01*
X216662000Y-69977000D01*
X222255339Y-69977000D01*
X222186687Y-70142332D01*
X222186654Y-70180110D01*
X221931554Y-70435210D01*
X221841963Y-70452068D01*
X221625839Y-70591140D01*
X221480849Y-70803340D01*
X221429840Y-71055230D01*
X221429840Y-72454770D01*
X221474118Y-72690087D01*
X221613190Y-72906211D01*
X221825390Y-73051201D01*
X222077280Y-73102210D01*
X222676720Y-73102210D01*
X222912037Y-73057932D01*
X223128161Y-72918860D01*
X223273151Y-72706660D01*
X223324160Y-72454770D01*
X223324160Y-71557076D01*
X223443581Y-71437655D01*
X223479784Y-71437687D01*
X223876689Y-71273689D01*
X224180622Y-70970286D01*
X224345313Y-70573668D01*
X224345687Y-70144216D01*
X224276595Y-69977000D01*
X228351339Y-69977000D01*
X228282687Y-70142332D01*
X228282654Y-70180110D01*
X228027554Y-70435210D01*
X227937963Y-70452068D01*
X227721839Y-70591140D01*
X227576849Y-70803340D01*
X227525840Y-71055230D01*
X227525840Y-72454770D01*
X227570118Y-72690087D01*
X227709190Y-72906211D01*
X227921390Y-73051201D01*
X228173280Y-73102210D01*
X228772720Y-73102210D01*
X229008037Y-73057932D01*
X229224161Y-72918860D01*
X229369151Y-72706660D01*
X229420160Y-72454770D01*
X229420160Y-71557076D01*
X229539581Y-71437655D01*
X229575784Y-71437687D01*
X229972689Y-71273689D01*
X229997000Y-71249420D01*
X229997000Y-76327000D01*
X224650236Y-76327000D01*
X224827026Y-76150210D01*
X224962720Y-76150210D01*
X225198037Y-76105932D01*
X225414161Y-75966860D01*
X225559151Y-75754660D01*
X225610160Y-75502770D01*
X225610160Y-74103230D01*
X225565882Y-73867913D01*
X225426810Y-73651789D01*
X225214610Y-73506799D01*
X224962720Y-73455790D01*
X224363280Y-73455790D01*
X224127963Y-73500068D01*
X223911839Y-73639140D01*
X223766849Y-73851340D01*
X223715840Y-74103230D01*
X223715840Y-74746924D01*
X223088419Y-75374345D01*
X223052216Y-75374313D01*
X222655311Y-75538311D01*
X222351378Y-75841714D01*
X222186687Y-76238332D01*
X222186610Y-76327000D01*
X218808236Y-76327000D01*
X219012446Y-76122790D01*
X219102037Y-76105932D01*
X219318161Y-75966860D01*
X219463151Y-75754660D01*
X219514160Y-75502770D01*
X219514160Y-74103230D01*
X219469882Y-73867913D01*
X219330810Y-73651789D01*
X219118610Y-73506799D01*
X218866720Y-73455790D01*
X218267280Y-73455790D01*
X218031963Y-73500068D01*
X217815839Y-73639140D01*
X217670849Y-73851340D01*
X217619840Y-74103230D01*
X217619840Y-75000924D01*
X217246419Y-75374345D01*
X217210216Y-75374313D01*
X216813311Y-75538311D01*
X216509378Y-75841714D01*
X216344687Y-76238332D01*
X216344626Y-76308446D01*
X216306090Y-76248559D01*
X216237994Y-76202031D01*
X216380327Y-76059698D01*
X216477000Y-75826309D01*
X216477000Y-75733750D01*
X216318250Y-75575000D01*
X215519000Y-75575000D01*
X215519000Y-75597000D01*
X215265000Y-75597000D01*
X215265000Y-75575000D01*
X215245000Y-75575000D01*
X215245000Y-75325000D01*
X215265000Y-75325000D01*
X215265000Y-74723750D01*
X215519000Y-74723750D01*
X215519000Y-75325000D01*
X216318250Y-75325000D01*
X216477000Y-75166250D01*
X216477000Y-75073691D01*
X216380327Y-74840302D01*
X216201699Y-74661673D01*
X215968310Y-74565000D01*
X215677750Y-74565000D01*
X215519000Y-74723750D01*
X215265000Y-74723750D01*
X215106250Y-74565000D01*
X214885206Y-74565000D01*
X214783689Y-74319311D01*
X214480286Y-74015378D01*
X214083668Y-73850687D01*
X213654216Y-73850313D01*
X213257311Y-74014311D01*
X212953378Y-74317714D01*
X212910074Y-74422000D01*
X211550000Y-74422000D01*
X211550000Y-74168000D01*
X211572000Y-74168000D01*
X211572000Y-73368750D01*
X211822000Y-73368750D01*
X211822000Y-74168000D01*
X212423250Y-74168000D01*
X212582000Y-74009250D01*
X212582000Y-73718690D01*
X212485327Y-73485301D01*
X212306698Y-73306673D01*
X212073309Y-73210000D01*
X211980750Y-73210000D01*
X211822000Y-73368750D01*
X211572000Y-73368750D01*
X211413250Y-73210000D01*
X211320691Y-73210000D01*
X211087302Y-73306673D01*
X210946064Y-73447910D01*
X210911090Y-73393559D01*
X210698890Y-73248569D01*
X210447000Y-73197560D01*
X209947000Y-73197560D01*
X209711683Y-73241838D01*
X209495559Y-73380910D01*
X209350569Y-73593110D01*
X209319010Y-73748952D01*
X209308185Y-73756185D01*
X209143004Y-74003395D01*
X209085000Y-74295000D01*
X209085000Y-74422000D01*
X204023631Y-74422000D01*
X203327000Y-73725370D01*
X203327000Y-69913611D01*
X203413784Y-69913687D01*
X203810689Y-69749689D01*
X204114622Y-69446286D01*
X204168473Y-69316600D01*
X212138940Y-69316600D01*
X212228060Y-69455096D01*
X212228060Y-69455096D01*
G37*
X212228060Y-69455096D02*
X212191378Y-69491714D01*
X212026687Y-69888332D01*
X212026313Y-70317784D01*
X212190311Y-70714689D01*
X212493714Y-71018622D01*
X212890332Y-71183313D01*
X213319784Y-71183687D01*
X213716689Y-71019689D01*
X214020622Y-70716286D01*
X214185313Y-70319668D01*
X214185530Y-70070718D01*
X214287516Y-69918085D01*
X214288805Y-69911605D01*
X214330509Y-69701943D01*
X214656416Y-70027849D01*
X214730311Y-70206689D01*
X215033714Y-70510622D01*
X215430332Y-70675313D01*
X215859784Y-70675687D01*
X216256689Y-70511689D01*
X216560622Y-70208286D01*
X216657048Y-69976068D01*
X216662000Y-69977000D01*
X222255339Y-69977000D01*
X222186687Y-70142332D01*
X222186654Y-70180110D01*
X221931554Y-70435210D01*
X221841963Y-70452068D01*
X221625839Y-70591140D01*
X221480849Y-70803340D01*
X221429840Y-71055230D01*
X221429840Y-72454770D01*
X221474118Y-72690087D01*
X221613190Y-72906211D01*
X221825390Y-73051201D01*
X222077280Y-73102210D01*
X222676720Y-73102210D01*
X222912037Y-73057932D01*
X223128161Y-72918860D01*
X223273151Y-72706660D01*
X223324160Y-72454770D01*
X223324160Y-71557076D01*
X223443581Y-71437655D01*
X223479784Y-71437687D01*
X223876689Y-71273689D01*
X224180622Y-70970286D01*
X224345313Y-70573668D01*
X224345687Y-70144216D01*
X224276595Y-69977000D01*
X228351339Y-69977000D01*
X228282687Y-70142332D01*
X228282654Y-70180110D01*
X228027554Y-70435210D01*
X227937963Y-70452068D01*
X227721839Y-70591140D01*
X227576849Y-70803340D01*
X227525840Y-71055230D01*
X227525840Y-72454770D01*
X227570118Y-72690087D01*
X227709190Y-72906211D01*
X227921390Y-73051201D01*
X228173280Y-73102210D01*
X228772720Y-73102210D01*
X229008037Y-73057932D01*
X229224161Y-72918860D01*
X229369151Y-72706660D01*
X229420160Y-72454770D01*
X229420160Y-71557076D01*
X229539581Y-71437655D01*
X229575784Y-71437687D01*
X229972689Y-71273689D01*
X229997000Y-71249420D01*
X229997000Y-76327000D01*
X224650236Y-76327000D01*
X224827026Y-76150210D01*
X224962720Y-76150210D01*
X225198037Y-76105932D01*
X225414161Y-75966860D01*
X225559151Y-75754660D01*
X225610160Y-75502770D01*
X225610160Y-74103230D01*
X225565882Y-73867913D01*
X225426810Y-73651789D01*
X225214610Y-73506799D01*
X224962720Y-73455790D01*
X224363280Y-73455790D01*
X224127963Y-73500068D01*
X223911839Y-73639140D01*
X223766849Y-73851340D01*
X223715840Y-74103230D01*
X223715840Y-74746924D01*
X223088419Y-75374345D01*
X223052216Y-75374313D01*
X222655311Y-75538311D01*
X222351378Y-75841714D01*
X222186687Y-76238332D01*
X222186610Y-76327000D01*
X218808236Y-76327000D01*
X219012446Y-76122790D01*
X219102037Y-76105932D01*
X219318161Y-75966860D01*
X219463151Y-75754660D01*
X219514160Y-75502770D01*
X219514160Y-74103230D01*
X219469882Y-73867913D01*
X219330810Y-73651789D01*
X219118610Y-73506799D01*
X218866720Y-73455790D01*
X218267280Y-73455790D01*
X218031963Y-73500068D01*
X217815839Y-73639140D01*
X217670849Y-73851340D01*
X217619840Y-74103230D01*
X217619840Y-75000924D01*
X217246419Y-75374345D01*
X217210216Y-75374313D01*
X216813311Y-75538311D01*
X216509378Y-75841714D01*
X216344687Y-76238332D01*
X216344626Y-76308446D01*
X216306090Y-76248559D01*
X216237994Y-76202031D01*
X216380327Y-76059698D01*
X216477000Y-75826309D01*
X216477000Y-75733750D01*
X216318250Y-75575000D01*
X215519000Y-75575000D01*
X215519000Y-75597000D01*
X215265000Y-75597000D01*
X215265000Y-75575000D01*
X215245000Y-75575000D01*
X215245000Y-75325000D01*
X215265000Y-75325000D01*
X215265000Y-74723750D01*
X215519000Y-74723750D01*
X215519000Y-75325000D01*
X216318250Y-75325000D01*
X216477000Y-75166250D01*
X216477000Y-75073691D01*
X216380327Y-74840302D01*
X216201699Y-74661673D01*
X215968310Y-74565000D01*
X215677750Y-74565000D01*
X215519000Y-74723750D01*
X215265000Y-74723750D01*
X215106250Y-74565000D01*
X214885206Y-74565000D01*
X214783689Y-74319311D01*
X214480286Y-74015378D01*
X214083668Y-73850687D01*
X213654216Y-73850313D01*
X213257311Y-74014311D01*
X212953378Y-74317714D01*
X212910074Y-74422000D01*
X211550000Y-74422000D01*
X211550000Y-74168000D01*
X211572000Y-74168000D01*
X211572000Y-73368750D01*
X211822000Y-73368750D01*
X211822000Y-74168000D01*
X212423250Y-74168000D01*
X212582000Y-74009250D01*
X212582000Y-73718690D01*
X212485327Y-73485301D01*
X212306698Y-73306673D01*
X212073309Y-73210000D01*
X211980750Y-73210000D01*
X211822000Y-73368750D01*
X211572000Y-73368750D01*
X211413250Y-73210000D01*
X211320691Y-73210000D01*
X211087302Y-73306673D01*
X210946064Y-73447910D01*
X210911090Y-73393559D01*
X210698890Y-73248569D01*
X210447000Y-73197560D01*
X209947000Y-73197560D01*
X209711683Y-73241838D01*
X209495559Y-73380910D01*
X209350569Y-73593110D01*
X209319010Y-73748952D01*
X209308185Y-73756185D01*
X209143004Y-74003395D01*
X209085000Y-74295000D01*
X209085000Y-74422000D01*
X204023631Y-74422000D01*
X203327000Y-73725370D01*
X203327000Y-69913611D01*
X203413784Y-69913687D01*
X203810689Y-69749689D01*
X204114622Y-69446286D01*
X204168473Y-69316600D01*
X212138940Y-69316600D01*
X212228060Y-69455096D01*
G36*
X208179382Y-64656618D02*
X208467794Y-64849329D01*
X208808000Y-64917000D01*
X209065715Y-64917000D01*
X209083838Y-65013317D01*
X209222910Y-65229441D01*
X209291006Y-65275969D01*
X209148673Y-65418302D01*
X209052000Y-65651691D01*
X209052000Y-66242250D01*
X209210750Y-66401000D01*
X210185000Y-66401000D01*
X210185000Y-66381000D01*
X210439000Y-66381000D01*
X210439000Y-66401000D01*
X211413250Y-66401000D01*
X211572000Y-66242250D01*
X211572000Y-66083244D01*
X211620332Y-66103313D01*
X212049784Y-66103687D01*
X212428114Y-65947364D01*
X212507750Y-66027000D01*
X213782000Y-66027000D01*
X213782000Y-66007000D01*
X214036000Y-66007000D01*
X214036000Y-66027000D01*
X215310250Y-66027000D01*
X215366085Y-65971165D01*
X215684332Y-66103313D01*
X216113784Y-66103687D01*
X216510689Y-65939689D01*
X216535000Y-65915420D01*
X216535000Y-68958575D01*
X216258286Y-68681378D01*
X215861668Y-68516687D01*
X215734640Y-68516576D01*
X215734640Y-68046600D01*
X215690362Y-67811283D01*
X215551290Y-67595159D01*
X215339090Y-67450169D01*
X215307295Y-67443730D01*
X215372327Y-67378699D01*
X215469000Y-67145310D01*
X215469000Y-66439750D01*
X215310250Y-66281000D01*
X214036000Y-66281000D01*
X214036000Y-66301000D01*
X213782000Y-66301000D01*
X213782000Y-66281000D01*
X212507750Y-66281000D01*
X212349000Y-66439750D01*
X212349000Y-67145310D01*
X212445673Y-67378699D01*
X212507934Y-67440960D01*
X212494763Y-67443438D01*
X212278639Y-67582510D01*
X212135091Y-67792600D01*
X211320426Y-67792600D01*
X211475327Y-67637698D01*
X211572000Y-67404309D01*
X211572000Y-66813750D01*
X211413250Y-66655000D01*
X210439000Y-66655000D01*
X210439000Y-66675000D01*
X210185000Y-66675000D01*
X210185000Y-66655000D01*
X209210750Y-66655000D01*
X209052000Y-66813750D01*
X209052000Y-67404309D01*
X209148673Y-67637698D01*
X209303574Y-67792600D01*
X208080269Y-67792600D01*
X208063162Y-67701683D01*
X207924090Y-67485559D01*
X207855994Y-67439031D01*
X207998327Y-67296698D01*
X208095000Y-67063309D01*
X208095000Y-66970750D01*
X207936250Y-66812000D01*
X207137000Y-66812000D01*
X207137000Y-66834000D01*
X206883000Y-66834000D01*
X206883000Y-66812000D01*
X206083750Y-66812000D01*
X205925000Y-66970750D01*
X205925000Y-67063309D01*
X206021673Y-67296698D01*
X206162910Y-67437936D01*
X206108559Y-67472910D01*
X205963569Y-67685110D01*
X205941802Y-67792600D01*
X203506972Y-67792600D01*
X203415668Y-67754687D01*
X203327000Y-67754610D01*
X203327000Y-66310691D01*
X205925000Y-66310691D01*
X205925000Y-66403250D01*
X206083750Y-66562000D01*
X206883000Y-66562000D01*
X206883000Y-65960750D01*
X207137000Y-65960750D01*
X207137000Y-66562000D01*
X207936250Y-66562000D01*
X208095000Y-66403250D01*
X208095000Y-66310691D01*
X207998327Y-66077302D01*
X207819699Y-65898673D01*
X207586310Y-65802000D01*
X207295750Y-65802000D01*
X207137000Y-65960750D01*
X206883000Y-65960750D01*
X206724250Y-65802000D01*
X206433690Y-65802000D01*
X206200301Y-65898673D01*
X206021673Y-66077302D01*
X205925000Y-66310691D01*
X203327000Y-66310691D01*
X203327000Y-64097417D01*
X203416000Y-64115440D01*
X205016000Y-64115440D01*
X205251317Y-64071162D01*
X205467441Y-63932090D01*
X205518748Y-63857000D01*
X207379764Y-63857000D01*
X208179382Y-64656618D01*
X208179382Y-64656618D01*
G37*
X208179382Y-64656618D02*
X208467794Y-64849329D01*
X208808000Y-64917000D01*
X209065715Y-64917000D01*
X209083838Y-65013317D01*
X209222910Y-65229441D01*
X209291006Y-65275969D01*
X209148673Y-65418302D01*
X209052000Y-65651691D01*
X209052000Y-66242250D01*
X209210750Y-66401000D01*
X210185000Y-66401000D01*
X210185000Y-66381000D01*
X210439000Y-66381000D01*
X210439000Y-66401000D01*
X211413250Y-66401000D01*
X211572000Y-66242250D01*
X211572000Y-66083244D01*
X211620332Y-66103313D01*
X212049784Y-66103687D01*
X212428114Y-65947364D01*
X212507750Y-66027000D01*
X213782000Y-66027000D01*
X213782000Y-66007000D01*
X214036000Y-66007000D01*
X214036000Y-66027000D01*
X215310250Y-66027000D01*
X215366085Y-65971165D01*
X215684332Y-66103313D01*
X216113784Y-66103687D01*
X216510689Y-65939689D01*
X216535000Y-65915420D01*
X216535000Y-68958575D01*
X216258286Y-68681378D01*
X215861668Y-68516687D01*
X215734640Y-68516576D01*
X215734640Y-68046600D01*
X215690362Y-67811283D01*
X215551290Y-67595159D01*
X215339090Y-67450169D01*
X215307295Y-67443730D01*
X215372327Y-67378699D01*
X215469000Y-67145310D01*
X215469000Y-66439750D01*
X215310250Y-66281000D01*
X214036000Y-66281000D01*
X214036000Y-66301000D01*
X213782000Y-66301000D01*
X213782000Y-66281000D01*
X212507750Y-66281000D01*
X212349000Y-66439750D01*
X212349000Y-67145310D01*
X212445673Y-67378699D01*
X212507934Y-67440960D01*
X212494763Y-67443438D01*
X212278639Y-67582510D01*
X212135091Y-67792600D01*
X211320426Y-67792600D01*
X211475327Y-67637698D01*
X211572000Y-67404309D01*
X211572000Y-66813750D01*
X211413250Y-66655000D01*
X210439000Y-66655000D01*
X210439000Y-66675000D01*
X210185000Y-66675000D01*
X210185000Y-66655000D01*
X209210750Y-66655000D01*
X209052000Y-66813750D01*
X209052000Y-67404309D01*
X209148673Y-67637698D01*
X209303574Y-67792600D01*
X208080269Y-67792600D01*
X208063162Y-67701683D01*
X207924090Y-67485559D01*
X207855994Y-67439031D01*
X207998327Y-67296698D01*
X208095000Y-67063309D01*
X208095000Y-66970750D01*
X207936250Y-66812000D01*
X207137000Y-66812000D01*
X207137000Y-66834000D01*
X206883000Y-66834000D01*
X206883000Y-66812000D01*
X206083750Y-66812000D01*
X205925000Y-66970750D01*
X205925000Y-67063309D01*
X206021673Y-67296698D01*
X206162910Y-67437936D01*
X206108559Y-67472910D01*
X205963569Y-67685110D01*
X205941802Y-67792600D01*
X203506972Y-67792600D01*
X203415668Y-67754687D01*
X203327000Y-67754610D01*
X203327000Y-66310691D01*
X205925000Y-66310691D01*
X205925000Y-66403250D01*
X206083750Y-66562000D01*
X206883000Y-66562000D01*
X206883000Y-65960750D01*
X207137000Y-65960750D01*
X207137000Y-66562000D01*
X207936250Y-66562000D01*
X208095000Y-66403250D01*
X208095000Y-66310691D01*
X207998327Y-66077302D01*
X207819699Y-65898673D01*
X207586310Y-65802000D01*
X207295750Y-65802000D01*
X207137000Y-65960750D01*
X206883000Y-65960750D01*
X206724250Y-65802000D01*
X206433690Y-65802000D01*
X206200301Y-65898673D01*
X206021673Y-66077302D01*
X205925000Y-66310691D01*
X203327000Y-66310691D01*
X203327000Y-64097417D01*
X203416000Y-64115440D01*
X205016000Y-64115440D01*
X205251317Y-64071162D01*
X205467441Y-63932090D01*
X205518748Y-63857000D01*
X207379764Y-63857000D01*
X208179382Y-64656618D01*
G36*
X209290194Y-51278249D02*
X208735632Y-52613782D01*
X208734370Y-54059874D01*
X209286600Y-55396372D01*
X210308249Y-56419806D01*
X211643782Y-56974368D01*
X213089874Y-56975630D01*
X214426372Y-56423400D01*
X215449806Y-55401751D01*
X215612578Y-55009752D01*
X215646000Y-55016400D01*
X215937605Y-54958396D01*
X216184815Y-54793215D01*
X216349996Y-54546005D01*
X216408000Y-54254400D01*
X216349996Y-53962796D01*
X216184815Y-53715585D01*
X216004831Y-53535601D01*
X216005347Y-52944000D01*
X216761560Y-52944000D01*
X216761560Y-54244000D01*
X216805838Y-54479317D01*
X216944910Y-54695441D01*
X217157110Y-54840431D01*
X217409000Y-54891440D01*
X218709000Y-54891440D01*
X218944317Y-54847162D01*
X219160441Y-54708090D01*
X219305431Y-54495890D01*
X219306012Y-54493016D01*
X221139590Y-54493016D01*
X221195271Y-54723611D01*
X221678078Y-54891622D01*
X222188428Y-54862083D01*
X222522729Y-54723611D01*
X222578410Y-54493016D01*
X221859000Y-53773605D01*
X221139590Y-54493016D01*
X219306012Y-54493016D01*
X219356440Y-54244000D01*
X219356440Y-53413078D01*
X220561378Y-53413078D01*
X220590917Y-53923428D01*
X220729389Y-54257729D01*
X220959984Y-54313410D01*
X221679395Y-53594000D01*
X222038605Y-53594000D01*
X222758016Y-54313410D01*
X222988611Y-54257729D01*
X223156622Y-53774922D01*
X223127083Y-53264572D01*
X222988611Y-52930271D01*
X222758016Y-52874590D01*
X222038605Y-53594000D01*
X221679395Y-53594000D01*
X220959984Y-52874590D01*
X220729389Y-52930271D01*
X220561378Y-53413078D01*
X219356440Y-53413078D01*
X219356440Y-52944000D01*
X219312162Y-52708683D01*
X219303347Y-52694984D01*
X221139590Y-52694984D01*
X221859000Y-53414395D01*
X222578410Y-52694984D01*
X222522729Y-52464389D01*
X222039922Y-52296378D01*
X221529572Y-52325917D01*
X221195271Y-52464389D01*
X221139590Y-52694984D01*
X219303347Y-52694984D01*
X219173090Y-52492559D01*
X218960890Y-52347569D01*
X218709000Y-52296560D01*
X217409000Y-52296560D01*
X217173683Y-52340838D01*
X216957559Y-52479910D01*
X216812569Y-52692110D01*
X216761560Y-52944000D01*
X216005347Y-52944000D01*
X216005630Y-52620126D01*
X215453400Y-51283628D01*
X214893750Y-50723000D01*
X230159695Y-50723000D01*
X229573826Y-51307847D01*
X229095546Y-52459674D01*
X229094457Y-53706854D01*
X229570727Y-54859515D01*
X230451847Y-55742174D01*
X231603674Y-56220454D01*
X232850854Y-56221543D01*
X234003515Y-55745273D01*
X234886174Y-54864153D01*
X235364454Y-53712326D01*
X235365543Y-52465146D01*
X234889273Y-51312485D01*
X234300816Y-50723000D01*
X234693394Y-50723000D01*
X235535000Y-51564606D01*
X235535000Y-53560444D01*
X235334136Y-61595000D01*
X232721000Y-61595000D01*
X232721000Y-57405000D01*
X229384742Y-57405000D01*
X229375882Y-57357913D01*
X229236810Y-57141789D01*
X229024610Y-56996799D01*
X228772720Y-56945790D01*
X228173280Y-56945790D01*
X227937963Y-56990068D01*
X227838464Y-57054094D01*
X227754610Y-56996799D01*
X227502720Y-56945790D01*
X226903280Y-56945790D01*
X226667963Y-56990068D01*
X226568464Y-57054094D01*
X226484610Y-56996799D01*
X226232720Y-56945790D01*
X225633280Y-56945790D01*
X225397963Y-56990068D01*
X225298464Y-57054094D01*
X225214610Y-56996799D01*
X224962720Y-56945790D01*
X224363280Y-56945790D01*
X224127963Y-56990068D01*
X223911839Y-57129140D01*
X223766849Y-57341340D01*
X223715840Y-57593230D01*
X223715840Y-58992770D01*
X223760118Y-59228087D01*
X223899190Y-59444211D01*
X223920310Y-59458642D01*
X223920310Y-60973357D01*
X223735668Y-60896687D01*
X223306216Y-60896313D01*
X223119690Y-60973384D01*
X223119690Y-59462311D01*
X223128161Y-59456860D01*
X223273151Y-59244660D01*
X223324160Y-58992770D01*
X223324160Y-57593230D01*
X223279882Y-57357913D01*
X223140810Y-57141789D01*
X222928610Y-56996799D01*
X222676720Y-56945790D01*
X222077280Y-56945790D01*
X221841963Y-56990068D01*
X221742464Y-57054094D01*
X221658610Y-56996799D01*
X221406720Y-56945790D01*
X220807280Y-56945790D01*
X220571963Y-56990068D01*
X220472464Y-57054094D01*
X220388610Y-56996799D01*
X220136720Y-56945790D01*
X219537280Y-56945790D01*
X219301963Y-56990068D01*
X219202464Y-57054094D01*
X219118610Y-56996799D01*
X218866720Y-56945790D01*
X218267280Y-56945790D01*
X218031963Y-56990068D01*
X217815839Y-57129140D01*
X217670849Y-57341340D01*
X217619840Y-57593230D01*
X217619840Y-58992770D01*
X217664118Y-59228087D01*
X217803190Y-59444211D01*
X217824310Y-59458642D01*
X217824310Y-61089540D01*
X217868588Y-61324857D01*
X218007660Y-61540981D01*
X218082922Y-61592405D01*
X218083910Y-61593941D01*
X218085460Y-61595000D01*
X216662000Y-61595000D01*
X216612590Y-61605006D01*
X216570965Y-61633447D01*
X216543685Y-61675841D01*
X216535000Y-61722000D01*
X216535000Y-62166610D01*
X216194216Y-62166313D01*
X216160883Y-62180086D01*
X216197500Y-61996000D01*
X216197500Y-61710234D01*
X216357317Y-61680162D01*
X216573441Y-61541090D01*
X216718431Y-61328890D01*
X216769440Y-61077000D01*
X216769440Y-59827000D01*
X216725162Y-59591683D01*
X216586090Y-59375559D01*
X216373890Y-59230569D01*
X216122000Y-59179560D01*
X214622000Y-59179560D01*
X214386683Y-59223838D01*
X214170559Y-59362910D01*
X214122866Y-59432711D01*
X214086090Y-59375559D01*
X213873890Y-59230569D01*
X213622000Y-59179560D01*
X212122000Y-59179560D01*
X211886683Y-59223838D01*
X211670559Y-59362910D01*
X211525569Y-59575110D01*
X211474560Y-59827000D01*
X211474560Y-61077000D01*
X211518838Y-61312317D01*
X211657910Y-61528441D01*
X211858623Y-61665582D01*
X211479311Y-61822311D01*
X211175378Y-62125714D01*
X211010687Y-62522332D01*
X211010580Y-62645460D01*
X210937000Y-62630560D01*
X209687000Y-62630560D01*
X209451683Y-62674838D01*
X209235559Y-62813910D01*
X209090569Y-63026110D01*
X209085985Y-63048749D01*
X208376618Y-62339382D01*
X208258533Y-62260480D01*
X208088206Y-62146671D01*
X207748000Y-62079000D01*
X205520270Y-62079000D01*
X205480090Y-62016559D01*
X205267890Y-61871569D01*
X205016000Y-61820560D01*
X203416000Y-61820560D01*
X203327000Y-61837307D01*
X203327000Y-61103000D01*
X203930250Y-61103000D01*
X204089000Y-60944250D01*
X204089000Y-60095000D01*
X204343000Y-60095000D01*
X204343000Y-60944250D01*
X204501750Y-61103000D01*
X205142310Y-61103000D01*
X205375699Y-61006327D01*
X205554327Y-60827698D01*
X205651000Y-60594309D01*
X205651000Y-60253750D01*
X205492250Y-60095000D01*
X204343000Y-60095000D01*
X204089000Y-60095000D01*
X204069000Y-60095000D01*
X204069000Y-59841000D01*
X204089000Y-59841000D01*
X204089000Y-58991750D01*
X204343000Y-58991750D01*
X204343000Y-59841000D01*
X205492250Y-59841000D01*
X205651000Y-59682250D01*
X205651000Y-59341691D01*
X205554327Y-59108302D01*
X205375699Y-58929673D01*
X205142310Y-58833000D01*
X204501750Y-58833000D01*
X204343000Y-58991750D01*
X204089000Y-58991750D01*
X203930250Y-58833000D01*
X203327000Y-58833000D01*
X203327000Y-58674000D01*
X203316994Y-58624590D01*
X203288553Y-58582965D01*
X203246159Y-58555685D01*
X203200000Y-58547000D01*
X208165764Y-58547000D01*
X208877649Y-59258885D01*
X208888311Y-59284689D01*
X209191714Y-59588622D01*
X209588332Y-59753313D01*
X210017784Y-59753687D01*
X210414689Y-59589689D01*
X210718622Y-59286286D01*
X210883313Y-58889668D01*
X210883687Y-58460216D01*
X210719689Y-58063311D01*
X210416286Y-57759378D01*
X210019668Y-57594687D01*
X209727669Y-57594433D01*
X209162618Y-57029382D01*
X209113854Y-56996799D01*
X208874206Y-56836671D01*
X208534000Y-56769000D01*
X202044236Y-56769000D01*
X201295000Y-56019764D01*
X201295000Y-50723000D01*
X209846413Y-50723000D01*
X209290194Y-51278249D01*
X209290194Y-51278249D01*
G37*
X209290194Y-51278249D02*
X208735632Y-52613782D01*
X208734370Y-54059874D01*
X209286600Y-55396372D01*
X210308249Y-56419806D01*
X211643782Y-56974368D01*
X213089874Y-56975630D01*
X214426372Y-56423400D01*
X215449806Y-55401751D01*
X215612578Y-55009752D01*
X215646000Y-55016400D01*
X215937605Y-54958396D01*
X216184815Y-54793215D01*
X216349996Y-54546005D01*
X216408000Y-54254400D01*
X216349996Y-53962796D01*
X216184815Y-53715585D01*
X216004831Y-53535601D01*
X216005347Y-52944000D01*
X216761560Y-52944000D01*
X216761560Y-54244000D01*
X216805838Y-54479317D01*
X216944910Y-54695441D01*
X217157110Y-54840431D01*
X217409000Y-54891440D01*
X218709000Y-54891440D01*
X218944317Y-54847162D01*
X219160441Y-54708090D01*
X219305431Y-54495890D01*
X219306012Y-54493016D01*
X221139590Y-54493016D01*
X221195271Y-54723611D01*
X221678078Y-54891622D01*
X222188428Y-54862083D01*
X222522729Y-54723611D01*
X222578410Y-54493016D01*
X221859000Y-53773605D01*
X221139590Y-54493016D01*
X219306012Y-54493016D01*
X219356440Y-54244000D01*
X219356440Y-53413078D01*
X220561378Y-53413078D01*
X220590917Y-53923428D01*
X220729389Y-54257729D01*
X220959984Y-54313410D01*
X221679395Y-53594000D01*
X222038605Y-53594000D01*
X222758016Y-54313410D01*
X222988611Y-54257729D01*
X223156622Y-53774922D01*
X223127083Y-53264572D01*
X222988611Y-52930271D01*
X222758016Y-52874590D01*
X222038605Y-53594000D01*
X221679395Y-53594000D01*
X220959984Y-52874590D01*
X220729389Y-52930271D01*
X220561378Y-53413078D01*
X219356440Y-53413078D01*
X219356440Y-52944000D01*
X219312162Y-52708683D01*
X219303347Y-52694984D01*
X221139590Y-52694984D01*
X221859000Y-53414395D01*
X222578410Y-52694984D01*
X222522729Y-52464389D01*
X222039922Y-52296378D01*
X221529572Y-52325917D01*
X221195271Y-52464389D01*
X221139590Y-52694984D01*
X219303347Y-52694984D01*
X219173090Y-52492559D01*
X218960890Y-52347569D01*
X218709000Y-52296560D01*
X217409000Y-52296560D01*
X217173683Y-52340838D01*
X216957559Y-52479910D01*
X216812569Y-52692110D01*
X216761560Y-52944000D01*
X216005347Y-52944000D01*
X216005630Y-52620126D01*
X215453400Y-51283628D01*
X214893750Y-50723000D01*
X230159695Y-50723000D01*
X229573826Y-51307847D01*
X229095546Y-52459674D01*
X229094457Y-53706854D01*
X229570727Y-54859515D01*
X230451847Y-55742174D01*
X231603674Y-56220454D01*
X232850854Y-56221543D01*
X234003515Y-55745273D01*
X234886174Y-54864153D01*
X235364454Y-53712326D01*
X235365543Y-52465146D01*
X234889273Y-51312485D01*
X234300816Y-50723000D01*
X234693394Y-50723000D01*
X235535000Y-51564606D01*
X235535000Y-53560444D01*
X235334136Y-61595000D01*
X232721000Y-61595000D01*
X232721000Y-57405000D01*
X229384742Y-57405000D01*
X229375882Y-57357913D01*
X229236810Y-57141789D01*
X229024610Y-56996799D01*
X228772720Y-56945790D01*
X228173280Y-56945790D01*
X227937963Y-56990068D01*
X227838464Y-57054094D01*
X227754610Y-56996799D01*
X227502720Y-56945790D01*
X226903280Y-56945790D01*
X226667963Y-56990068D01*
X226568464Y-57054094D01*
X226484610Y-56996799D01*
X226232720Y-56945790D01*
X225633280Y-56945790D01*
X225397963Y-56990068D01*
X225298464Y-57054094D01*
X225214610Y-56996799D01*
X224962720Y-56945790D01*
X224363280Y-56945790D01*
X224127963Y-56990068D01*
X223911839Y-57129140D01*
X223766849Y-57341340D01*
X223715840Y-57593230D01*
X223715840Y-58992770D01*
X223760118Y-59228087D01*
X223899190Y-59444211D01*
X223920310Y-59458642D01*
X223920310Y-60973357D01*
X223735668Y-60896687D01*
X223306216Y-60896313D01*
X223119690Y-60973384D01*
X223119690Y-59462311D01*
X223128161Y-59456860D01*
X223273151Y-59244660D01*
X223324160Y-58992770D01*
X223324160Y-57593230D01*
X223279882Y-57357913D01*
X223140810Y-57141789D01*
X222928610Y-56996799D01*
X222676720Y-56945790D01*
X222077280Y-56945790D01*
X221841963Y-56990068D01*
X221742464Y-57054094D01*
X221658610Y-56996799D01*
X221406720Y-56945790D01*
X220807280Y-56945790D01*
X220571963Y-56990068D01*
X220472464Y-57054094D01*
X220388610Y-56996799D01*
X220136720Y-56945790D01*
X219537280Y-56945790D01*
X219301963Y-56990068D01*
X219202464Y-57054094D01*
X219118610Y-56996799D01*
X218866720Y-56945790D01*
X218267280Y-56945790D01*
X218031963Y-56990068D01*
X217815839Y-57129140D01*
X217670849Y-57341340D01*
X217619840Y-57593230D01*
X217619840Y-58992770D01*
X217664118Y-59228087D01*
X217803190Y-59444211D01*
X217824310Y-59458642D01*
X217824310Y-61089540D01*
X217868588Y-61324857D01*
X218007660Y-61540981D01*
X218082922Y-61592405D01*
X218083910Y-61593941D01*
X218085460Y-61595000D01*
X216662000Y-61595000D01*
X216612590Y-61605006D01*
X216570965Y-61633447D01*
X216543685Y-61675841D01*
X216535000Y-61722000D01*
X216535000Y-62166610D01*
X216194216Y-62166313D01*
X216160883Y-62180086D01*
X216197500Y-61996000D01*
X216197500Y-61710234D01*
X216357317Y-61680162D01*
X216573441Y-61541090D01*
X216718431Y-61328890D01*
X216769440Y-61077000D01*
X216769440Y-59827000D01*
X216725162Y-59591683D01*
X216586090Y-59375559D01*
X216373890Y-59230569D01*
X216122000Y-59179560D01*
X214622000Y-59179560D01*
X214386683Y-59223838D01*
X214170559Y-59362910D01*
X214122866Y-59432711D01*
X214086090Y-59375559D01*
X213873890Y-59230569D01*
X213622000Y-59179560D01*
X212122000Y-59179560D01*
X211886683Y-59223838D01*
X211670559Y-59362910D01*
X211525569Y-59575110D01*
X211474560Y-59827000D01*
X211474560Y-61077000D01*
X211518838Y-61312317D01*
X211657910Y-61528441D01*
X211858623Y-61665582D01*
X211479311Y-61822311D01*
X211175378Y-62125714D01*
X211010687Y-62522332D01*
X211010580Y-62645460D01*
X210937000Y-62630560D01*
X209687000Y-62630560D01*
X209451683Y-62674838D01*
X209235559Y-62813910D01*
X209090569Y-63026110D01*
X209085985Y-63048749D01*
X208376618Y-62339382D01*
X208258533Y-62260480D01*
X208088206Y-62146671D01*
X207748000Y-62079000D01*
X205520270Y-62079000D01*
X205480090Y-62016559D01*
X205267890Y-61871569D01*
X205016000Y-61820560D01*
X203416000Y-61820560D01*
X203327000Y-61837307D01*
X203327000Y-61103000D01*
X203930250Y-61103000D01*
X204089000Y-60944250D01*
X204089000Y-60095000D01*
X204343000Y-60095000D01*
X204343000Y-60944250D01*
X204501750Y-61103000D01*
X205142310Y-61103000D01*
X205375699Y-61006327D01*
X205554327Y-60827698D01*
X205651000Y-60594309D01*
X205651000Y-60253750D01*
X205492250Y-60095000D01*
X204343000Y-60095000D01*
X204089000Y-60095000D01*
X204069000Y-60095000D01*
X204069000Y-59841000D01*
X204089000Y-59841000D01*
X204089000Y-58991750D01*
X204343000Y-58991750D01*
X204343000Y-59841000D01*
X205492250Y-59841000D01*
X205651000Y-59682250D01*
X205651000Y-59341691D01*
X205554327Y-59108302D01*
X205375699Y-58929673D01*
X205142310Y-58833000D01*
X204501750Y-58833000D01*
X204343000Y-58991750D01*
X204089000Y-58991750D01*
X203930250Y-58833000D01*
X203327000Y-58833000D01*
X203327000Y-58674000D01*
X203316994Y-58624590D01*
X203288553Y-58582965D01*
X203246159Y-58555685D01*
X203200000Y-58547000D01*
X208165764Y-58547000D01*
X208877649Y-59258885D01*
X208888311Y-59284689D01*
X209191714Y-59588622D01*
X209588332Y-59753313D01*
X210017784Y-59753687D01*
X210414689Y-59589689D01*
X210718622Y-59286286D01*
X210883313Y-58889668D01*
X210883687Y-58460216D01*
X210719689Y-58063311D01*
X210416286Y-57759378D01*
X210019668Y-57594687D01*
X209727669Y-57594433D01*
X209162618Y-57029382D01*
X209113854Y-56996799D01*
X208874206Y-56836671D01*
X208534000Y-56769000D01*
X202044236Y-56769000D01*
X201295000Y-56019764D01*
X201295000Y-50723000D01*
X209846413Y-50723000D01*
X209290194Y-51278249D01*
G36*
X191095560Y-87600000D02*
X191139838Y-87835317D01*
X191278910Y-88051441D01*
X191491110Y-88196431D01*
X191743000Y-88247440D01*
X192056000Y-88247440D01*
X192056000Y-93403946D01*
X191892350Y-93292129D01*
X191640460Y-93241120D01*
X190441580Y-93241120D01*
X190206263Y-93285398D01*
X189990139Y-93424470D01*
X189984544Y-93432659D01*
X189902118Y-93350233D01*
X189668729Y-93253560D01*
X189228730Y-93253560D01*
X189069980Y-93412310D01*
X189069980Y-94361000D01*
X189089980Y-94361000D01*
X189089980Y-94615000D01*
X189069980Y-94615000D01*
X189069980Y-95563690D01*
X189228730Y-95722440D01*
X189668729Y-95722440D01*
X189902118Y-95625767D01*
X189984331Y-95543555D01*
X190189690Y-95683871D01*
X190441580Y-95734880D01*
X191640460Y-95734880D01*
X191875777Y-95690602D01*
X192054357Y-95575689D01*
X192216262Y-95683871D01*
X192240395Y-95699996D01*
X192532000Y-95758000D01*
X195199054Y-95758000D01*
X195198813Y-96035284D01*
X195273867Y-96216927D01*
X195231010Y-96428560D01*
X195231010Y-97729040D01*
X195275288Y-97964357D01*
X195414360Y-98180481D01*
X195626560Y-98325471D01*
X195878450Y-98376480D01*
X196678550Y-98376480D01*
X196913867Y-98332202D01*
X197129991Y-98193130D01*
X197274981Y-97980930D01*
X197287927Y-97917000D01*
X198292560Y-97917000D01*
X198292560Y-98052000D01*
X198336838Y-98287317D01*
X198475910Y-98503441D01*
X198544006Y-98549969D01*
X198401673Y-98692302D01*
X198305000Y-98925691D01*
X198305000Y-99018250D01*
X198463750Y-99177000D01*
X199263000Y-99177000D01*
X199263000Y-99155000D01*
X199517000Y-99155000D01*
X199517000Y-99177000D01*
X200316250Y-99177000D01*
X200475000Y-99018250D01*
X200475000Y-98925691D01*
X200378327Y-98692302D01*
X200237090Y-98551064D01*
X200291441Y-98516090D01*
X200436431Y-98303890D01*
X200446260Y-98255354D01*
X200506311Y-98400689D01*
X200809714Y-98704622D01*
X201206332Y-98869313D01*
X201295000Y-98869390D01*
X201295000Y-99250389D01*
X201208216Y-99250313D01*
X200811311Y-99414311D01*
X200507378Y-99717714D01*
X200342687Y-100114332D01*
X200342313Y-100543784D01*
X200506311Y-100940689D01*
X200809714Y-101244622D01*
X201206332Y-101409313D01*
X201295000Y-101409390D01*
X201295000Y-102870000D01*
X200975631Y-102870000D01*
X199961499Y-101855869D01*
X199961687Y-101640216D01*
X199797689Y-101243311D01*
X199494286Y-100939378D01*
X199097668Y-100774687D01*
X198668216Y-100774313D01*
X198271311Y-100938311D01*
X197967378Y-101241714D01*
X197802687Y-101638332D01*
X197802313Y-102067784D01*
X197838170Y-102154564D01*
X196939803Y-101256197D01*
X196899410Y-101229006D01*
X196850000Y-101219000D01*
X190871041Y-101219000D01*
X190851856Y-100700540D01*
X190649387Y-100211736D01*
X190382532Y-100113073D01*
X189409605Y-101086000D01*
X189423748Y-101100143D01*
X189244143Y-101279748D01*
X189230000Y-101265605D01*
X189215858Y-101279748D01*
X189036253Y-101100143D01*
X189050395Y-101086000D01*
X188077468Y-100113073D01*
X187810613Y-100211736D01*
X187584092Y-100821461D01*
X187608144Y-101471460D01*
X187810613Y-101960264D01*
X188077466Y-102058926D01*
X187963186Y-102173206D01*
X188024980Y-102235000D01*
X186867000Y-102235000D01*
X186867000Y-99933468D01*
X188257073Y-99933468D01*
X189230000Y-100906395D01*
X190202927Y-99933468D01*
X190104264Y-99666613D01*
X189886606Y-99585750D01*
X198305000Y-99585750D01*
X198305000Y-99678309D01*
X198401673Y-99911698D01*
X198580301Y-100090327D01*
X198813690Y-100187000D01*
X199104250Y-100187000D01*
X199263000Y-100028250D01*
X199263000Y-99427000D01*
X199517000Y-99427000D01*
X199517000Y-100028250D01*
X199675750Y-100187000D01*
X199966310Y-100187000D01*
X200199699Y-100090327D01*
X200378327Y-99911698D01*
X200475000Y-99678309D01*
X200475000Y-99585750D01*
X200316250Y-99427000D01*
X199517000Y-99427000D01*
X199263000Y-99427000D01*
X198463750Y-99427000D01*
X198305000Y-99585750D01*
X189886606Y-99585750D01*
X189494539Y-99440092D01*
X188844540Y-99464144D01*
X188355736Y-99666613D01*
X188257073Y-99933468D01*
X186867000Y-99933468D01*
X186867000Y-97305284D01*
X191198313Y-97305284D01*
X191362311Y-97702189D01*
X191665714Y-98006122D01*
X192062332Y-98170813D01*
X192491784Y-98171187D01*
X192789281Y-98048264D01*
X192874360Y-98180481D01*
X193086560Y-98325471D01*
X193338450Y-98376480D01*
X194138550Y-98376480D01*
X194373867Y-98332202D01*
X194589991Y-98193130D01*
X194734981Y-97980930D01*
X194785990Y-97729040D01*
X194785990Y-96428560D01*
X194741712Y-96193243D01*
X194602640Y-95977119D01*
X194390440Y-95832129D01*
X194138550Y-95781120D01*
X193338450Y-95781120D01*
X193103133Y-95825398D01*
X192887009Y-95964470D01*
X192774677Y-96128873D01*
X192493668Y-96012187D01*
X192064216Y-96011813D01*
X191667311Y-96175811D01*
X191363378Y-96479214D01*
X191198687Y-96875832D01*
X191198313Y-97305284D01*
X186867000Y-97305284D01*
X186867000Y-94773750D01*
X187708540Y-94773750D01*
X187708540Y-95213750D01*
X187805213Y-95447139D01*
X187983842Y-95625767D01*
X188217231Y-95722440D01*
X188657230Y-95722440D01*
X188815980Y-95563690D01*
X188815980Y-94615000D01*
X187867290Y-94615000D01*
X187708540Y-94773750D01*
X186867000Y-94773750D01*
X186867000Y-93762250D01*
X187708540Y-93762250D01*
X187708540Y-94202250D01*
X187867290Y-94361000D01*
X188815980Y-94361000D01*
X188815980Y-93412310D01*
X188657230Y-93253560D01*
X188217231Y-93253560D01*
X187983842Y-93350233D01*
X187805213Y-93528861D01*
X187708540Y-93762250D01*
X186867000Y-93762250D01*
X186867000Y-87456357D01*
X187060000Y-87495440D01*
X188860000Y-87495440D01*
X189095317Y-87451162D01*
X189293861Y-87323402D01*
X189357906Y-87310663D01*
X189625717Y-87131717D01*
X190067714Y-86689719D01*
X190067717Y-86689717D01*
X190246663Y-86421905D01*
X190276393Y-86272440D01*
X191095560Y-86272440D01*
X191095560Y-87600000D01*
X191095560Y-87600000D01*
G37*
X191095560Y-87600000D02*
X191139838Y-87835317D01*
X191278910Y-88051441D01*
X191491110Y-88196431D01*
X191743000Y-88247440D01*
X192056000Y-88247440D01*
X192056000Y-93403946D01*
X191892350Y-93292129D01*
X191640460Y-93241120D01*
X190441580Y-93241120D01*
X190206263Y-93285398D01*
X189990139Y-93424470D01*
X189984544Y-93432659D01*
X189902118Y-93350233D01*
X189668729Y-93253560D01*
X189228730Y-93253560D01*
X189069980Y-93412310D01*
X189069980Y-94361000D01*
X189089980Y-94361000D01*
X189089980Y-94615000D01*
X189069980Y-94615000D01*
X189069980Y-95563690D01*
X189228730Y-95722440D01*
X189668729Y-95722440D01*
X189902118Y-95625767D01*
X189984331Y-95543555D01*
X190189690Y-95683871D01*
X190441580Y-95734880D01*
X191640460Y-95734880D01*
X191875777Y-95690602D01*
X192054357Y-95575689D01*
X192216262Y-95683871D01*
X192240395Y-95699996D01*
X192532000Y-95758000D01*
X195199054Y-95758000D01*
X195198813Y-96035284D01*
X195273867Y-96216927D01*
X195231010Y-96428560D01*
X195231010Y-97729040D01*
X195275288Y-97964357D01*
X195414360Y-98180481D01*
X195626560Y-98325471D01*
X195878450Y-98376480D01*
X196678550Y-98376480D01*
X196913867Y-98332202D01*
X197129991Y-98193130D01*
X197274981Y-97980930D01*
X197287927Y-97917000D01*
X198292560Y-97917000D01*
X198292560Y-98052000D01*
X198336838Y-98287317D01*
X198475910Y-98503441D01*
X198544006Y-98549969D01*
X198401673Y-98692302D01*
X198305000Y-98925691D01*
X198305000Y-99018250D01*
X198463750Y-99177000D01*
X199263000Y-99177000D01*
X199263000Y-99155000D01*
X199517000Y-99155000D01*
X199517000Y-99177000D01*
X200316250Y-99177000D01*
X200475000Y-99018250D01*
X200475000Y-98925691D01*
X200378327Y-98692302D01*
X200237090Y-98551064D01*
X200291441Y-98516090D01*
X200436431Y-98303890D01*
X200446260Y-98255354D01*
X200506311Y-98400689D01*
X200809714Y-98704622D01*
X201206332Y-98869313D01*
X201295000Y-98869390D01*
X201295000Y-99250389D01*
X201208216Y-99250313D01*
X200811311Y-99414311D01*
X200507378Y-99717714D01*
X200342687Y-100114332D01*
X200342313Y-100543784D01*
X200506311Y-100940689D01*
X200809714Y-101244622D01*
X201206332Y-101409313D01*
X201295000Y-101409390D01*
X201295000Y-102870000D01*
X200975631Y-102870000D01*
X199961499Y-101855869D01*
X199961687Y-101640216D01*
X199797689Y-101243311D01*
X199494286Y-100939378D01*
X199097668Y-100774687D01*
X198668216Y-100774313D01*
X198271311Y-100938311D01*
X197967378Y-101241714D01*
X197802687Y-101638332D01*
X197802313Y-102067784D01*
X197838170Y-102154564D01*
X196939803Y-101256197D01*
X196899410Y-101229006D01*
X196850000Y-101219000D01*
X190871041Y-101219000D01*
X190851856Y-100700540D01*
X190649387Y-100211736D01*
X190382532Y-100113073D01*
X189409605Y-101086000D01*
X189423748Y-101100143D01*
X189244143Y-101279748D01*
X189230000Y-101265605D01*
X189215858Y-101279748D01*
X189036253Y-101100143D01*
X189050395Y-101086000D01*
X188077468Y-100113073D01*
X187810613Y-100211736D01*
X187584092Y-100821461D01*
X187608144Y-101471460D01*
X187810613Y-101960264D01*
X188077466Y-102058926D01*
X187963186Y-102173206D01*
X188024980Y-102235000D01*
X186867000Y-102235000D01*
X186867000Y-99933468D01*
X188257073Y-99933468D01*
X189230000Y-100906395D01*
X190202927Y-99933468D01*
X190104264Y-99666613D01*
X189886606Y-99585750D01*
X198305000Y-99585750D01*
X198305000Y-99678309D01*
X198401673Y-99911698D01*
X198580301Y-100090327D01*
X198813690Y-100187000D01*
X199104250Y-100187000D01*
X199263000Y-100028250D01*
X199263000Y-99427000D01*
X199517000Y-99427000D01*
X199517000Y-100028250D01*
X199675750Y-100187000D01*
X199966310Y-100187000D01*
X200199699Y-100090327D01*
X200378327Y-99911698D01*
X200475000Y-99678309D01*
X200475000Y-99585750D01*
X200316250Y-99427000D01*
X199517000Y-99427000D01*
X199263000Y-99427000D01*
X198463750Y-99427000D01*
X198305000Y-99585750D01*
X189886606Y-99585750D01*
X189494539Y-99440092D01*
X188844540Y-99464144D01*
X188355736Y-99666613D01*
X188257073Y-99933468D01*
X186867000Y-99933468D01*
X186867000Y-97305284D01*
X191198313Y-97305284D01*
X191362311Y-97702189D01*
X191665714Y-98006122D01*
X192062332Y-98170813D01*
X192491784Y-98171187D01*
X192789281Y-98048264D01*
X192874360Y-98180481D01*
X193086560Y-98325471D01*
X193338450Y-98376480D01*
X194138550Y-98376480D01*
X194373867Y-98332202D01*
X194589991Y-98193130D01*
X194734981Y-97980930D01*
X194785990Y-97729040D01*
X194785990Y-96428560D01*
X194741712Y-96193243D01*
X194602640Y-95977119D01*
X194390440Y-95832129D01*
X194138550Y-95781120D01*
X193338450Y-95781120D01*
X193103133Y-95825398D01*
X192887009Y-95964470D01*
X192774677Y-96128873D01*
X192493668Y-96012187D01*
X192064216Y-96011813D01*
X191667311Y-96175811D01*
X191363378Y-96479214D01*
X191198687Y-96875832D01*
X191198313Y-97305284D01*
X186867000Y-97305284D01*
X186867000Y-94773750D01*
X187708540Y-94773750D01*
X187708540Y-95213750D01*
X187805213Y-95447139D01*
X187983842Y-95625767D01*
X188217231Y-95722440D01*
X188657230Y-95722440D01*
X188815980Y-95563690D01*
X188815980Y-94615000D01*
X187867290Y-94615000D01*
X187708540Y-94773750D01*
X186867000Y-94773750D01*
X186867000Y-93762250D01*
X187708540Y-93762250D01*
X187708540Y-94202250D01*
X187867290Y-94361000D01*
X188815980Y-94361000D01*
X188815980Y-93412310D01*
X188657230Y-93253560D01*
X188217231Y-93253560D01*
X187983842Y-93350233D01*
X187805213Y-93528861D01*
X187708540Y-93762250D01*
X186867000Y-93762250D01*
X186867000Y-87456357D01*
X187060000Y-87495440D01*
X188860000Y-87495440D01*
X189095317Y-87451162D01*
X189293861Y-87323402D01*
X189357906Y-87310663D01*
X189625717Y-87131717D01*
X190067714Y-86689719D01*
X190067717Y-86689717D01*
X190246663Y-86421905D01*
X190276393Y-86272440D01*
X191095560Y-86272440D01*
X191095560Y-87600000D01*
G36*
X188107000Y-85600560D02*
X187813000Y-85600560D01*
X187813000Y-85595440D01*
X188107000Y-85595440D01*
X188107000Y-85600560D01*
X188107000Y-85600560D01*
G37*
X188107000Y-85600560D02*
X187813000Y-85600560D01*
X187813000Y-85595440D01*
X188107000Y-85595440D01*
X188107000Y-85600560D01*
G36*
X196543000Y-79747440D02*
X196601928Y-79747440D01*
X196443378Y-79905714D01*
X196278687Y-80302332D01*
X196278313Y-80731784D01*
X196442311Y-81128689D01*
X196745714Y-81432622D01*
X197142332Y-81597313D01*
X197571784Y-81597687D01*
X197620560Y-81577533D01*
X197620560Y-81625000D01*
X197640450Y-81730705D01*
X197633000Y-81748690D01*
X197633000Y-81864250D01*
X197729401Y-81960651D01*
X197769520Y-82022998D01*
X197633000Y-82022998D01*
X197633000Y-82060390D01*
X197462286Y-81889378D01*
X197065668Y-81724687D01*
X196636216Y-81724313D01*
X196239311Y-81888311D01*
X195935378Y-82191714D01*
X195770687Y-82588332D01*
X195770313Y-83017784D01*
X195934311Y-83414689D01*
X196237714Y-83718622D01*
X196634332Y-83883313D01*
X196851872Y-83883502D01*
X197257185Y-84288815D01*
X197504395Y-84453996D01*
X197620560Y-84477103D01*
X197620560Y-84825000D01*
X197644944Y-84954589D01*
X197620560Y-85075000D01*
X197620560Y-85352560D01*
X197343000Y-85352560D01*
X197213411Y-85376944D01*
X197143588Y-85362804D01*
X197167313Y-85305668D01*
X197167687Y-84876216D01*
X197003689Y-84479311D01*
X196700286Y-84175378D01*
X196303668Y-84010687D01*
X195874216Y-84010313D01*
X195477311Y-84174311D01*
X195389337Y-84262132D01*
X195389687Y-83860216D01*
X195225689Y-83463311D01*
X195135500Y-83372964D01*
X195135500Y-82296000D01*
X195072663Y-81980095D01*
X195072663Y-81980094D01*
X194893717Y-81712283D01*
X194747717Y-81566283D01*
X194479906Y-81387337D01*
X194259303Y-81343457D01*
X194523784Y-81343687D01*
X194920689Y-81179689D01*
X195224622Y-80876286D01*
X195389313Y-80479668D01*
X195389687Y-80050216D01*
X195264582Y-79747440D01*
X195493000Y-79747440D01*
X195622589Y-79723056D01*
X195743000Y-79747440D01*
X196293000Y-79747440D01*
X196422589Y-79723056D01*
X196543000Y-79747440D01*
X196543000Y-79747440D01*
G37*
X196543000Y-79747440D02*
X196601928Y-79747440D01*
X196443378Y-79905714D01*
X196278687Y-80302332D01*
X196278313Y-80731784D01*
X196442311Y-81128689D01*
X196745714Y-81432622D01*
X197142332Y-81597313D01*
X197571784Y-81597687D01*
X197620560Y-81577533D01*
X197620560Y-81625000D01*
X197640450Y-81730705D01*
X197633000Y-81748690D01*
X197633000Y-81864250D01*
X197729401Y-81960651D01*
X197769520Y-82022998D01*
X197633000Y-82022998D01*
X197633000Y-82060390D01*
X197462286Y-81889378D01*
X197065668Y-81724687D01*
X196636216Y-81724313D01*
X196239311Y-81888311D01*
X195935378Y-82191714D01*
X195770687Y-82588332D01*
X195770313Y-83017784D01*
X195934311Y-83414689D01*
X196237714Y-83718622D01*
X196634332Y-83883313D01*
X196851872Y-83883502D01*
X197257185Y-84288815D01*
X197504395Y-84453996D01*
X197620560Y-84477103D01*
X197620560Y-84825000D01*
X197644944Y-84954589D01*
X197620560Y-85075000D01*
X197620560Y-85352560D01*
X197343000Y-85352560D01*
X197213411Y-85376944D01*
X197143588Y-85362804D01*
X197167313Y-85305668D01*
X197167687Y-84876216D01*
X197003689Y-84479311D01*
X196700286Y-84175378D01*
X196303668Y-84010687D01*
X195874216Y-84010313D01*
X195477311Y-84174311D01*
X195389337Y-84262132D01*
X195389687Y-83860216D01*
X195225689Y-83463311D01*
X195135500Y-83372964D01*
X195135500Y-82296000D01*
X195072663Y-81980095D01*
X195072663Y-81980094D01*
X194893717Y-81712283D01*
X194747717Y-81566283D01*
X194479906Y-81387337D01*
X194259303Y-81343457D01*
X194523784Y-81343687D01*
X194920689Y-81179689D01*
X195224622Y-80876286D01*
X195389313Y-80479668D01*
X195389687Y-80050216D01*
X195264582Y-79747440D01*
X195493000Y-79747440D01*
X195622589Y-79723056D01*
X195743000Y-79747440D01*
X196293000Y-79747440D01*
X196422589Y-79723056D01*
X196543000Y-79747440D01*
G36*
X193697714Y-84988622D02*
X194094332Y-85153313D01*
X194523784Y-85153687D01*
X194920689Y-84989689D01*
X195008663Y-84901868D01*
X195008313Y-85303784D01*
X195028467Y-85352560D01*
X194943000Y-85352560D01*
X194813411Y-85376944D01*
X194693000Y-85352560D01*
X194143000Y-85352560D01*
X194013411Y-85376944D01*
X193893000Y-85352560D01*
X193343000Y-85352560D01*
X193213411Y-85376944D01*
X193093059Y-85352572D01*
X193577466Y-84868164D01*
X193697714Y-84988622D01*
X193697714Y-84988622D01*
G37*
X193697714Y-84988622D02*
X194094332Y-85153313D01*
X194523784Y-85153687D01*
X194920689Y-84989689D01*
X195008663Y-84901868D01*
X195008313Y-85303784D01*
X195028467Y-85352560D01*
X194943000Y-85352560D01*
X194813411Y-85376944D01*
X194693000Y-85352560D01*
X194143000Y-85352560D01*
X194013411Y-85376944D01*
X193893000Y-85352560D01*
X193343000Y-85352560D01*
X193213411Y-85376944D01*
X193093059Y-85352572D01*
X193577466Y-84868164D01*
X193697714Y-84988622D01*
G36*
X186905952Y-74779990D02*
X186913185Y-74790815D01*
X187160395Y-74955996D01*
X187452000Y-75014000D01*
X189146000Y-75014000D01*
X189146000Y-75265212D01*
X189077378Y-75333714D01*
X188912687Y-75730332D01*
X188912313Y-76159784D01*
X189076311Y-76556689D01*
X189379714Y-76860622D01*
X189776332Y-77025313D01*
X190205784Y-77025687D01*
X190602689Y-76861689D01*
X190906622Y-76558286D01*
X191071313Y-76161668D01*
X191071687Y-75732216D01*
X190918813Y-75362233D01*
X190959441Y-75336090D01*
X191007134Y-75266289D01*
X191043910Y-75323441D01*
X191256110Y-75468431D01*
X191508000Y-75519440D01*
X192008000Y-75519440D01*
X192243317Y-75475162D01*
X192459441Y-75336090D01*
X192563360Y-75184000D01*
X192978370Y-75184000D01*
X193287082Y-75492712D01*
X193007311Y-75608311D01*
X192923476Y-75692000D01*
X192532000Y-75692000D01*
X192240395Y-75750004D01*
X192141377Y-75816166D01*
X191993185Y-75915184D01*
X191479185Y-76429185D01*
X191314004Y-76676395D01*
X191256000Y-76968000D01*
X191256000Y-77087952D01*
X191146569Y-77248110D01*
X191095560Y-77500000D01*
X191095560Y-78827560D01*
X189768000Y-78827560D01*
X189532683Y-78871838D01*
X189316559Y-79010910D01*
X189171569Y-79223110D01*
X189120560Y-79475000D01*
X189120560Y-80025000D01*
X189144944Y-80154589D01*
X189120560Y-80275000D01*
X189120560Y-80825000D01*
X189140450Y-80930705D01*
X189133000Y-80948690D01*
X189133000Y-81064250D01*
X189229401Y-81160651D01*
X189269520Y-81222998D01*
X189133000Y-81222998D01*
X189133000Y-81297796D01*
X188937668Y-81216687D01*
X188785500Y-81216554D01*
X188785500Y-80964237D01*
X188813776Y-80822084D01*
X188931431Y-80649890D01*
X188982440Y-80398000D01*
X188982440Y-79598000D01*
X188938162Y-79362683D01*
X188871671Y-79259354D01*
X188873327Y-79257698D01*
X188970000Y-79024309D01*
X188970000Y-78783750D01*
X188811250Y-78625000D01*
X188087000Y-78625000D01*
X188087000Y-78645000D01*
X187833000Y-78645000D01*
X187833000Y-78625000D01*
X187108750Y-78625000D01*
X186950000Y-78783750D01*
X186950000Y-79024309D01*
X187046673Y-79257698D01*
X187048043Y-79259068D01*
X186988569Y-79346110D01*
X186937560Y-79598000D01*
X186937560Y-80398000D01*
X186981838Y-80633317D01*
X187107530Y-80828647D01*
X187134500Y-80964237D01*
X187134500Y-82042000D01*
X187197337Y-82357906D01*
X187376283Y-82625717D01*
X187630281Y-82879714D01*
X187630283Y-82879717D01*
X187773633Y-82975500D01*
X187898094Y-83058663D01*
X187972867Y-83073536D01*
X188109714Y-83210622D01*
X188506332Y-83375313D01*
X188935784Y-83375687D01*
X189133000Y-83294199D01*
X189133000Y-83351310D01*
X189141468Y-83371753D01*
X189120560Y-83475000D01*
X189120560Y-83724500D01*
X189008005Y-83724500D01*
X189008000Y-83724499D01*
X188992974Y-83727488D01*
X188860000Y-83700560D01*
X187060000Y-83700560D01*
X186867000Y-83736875D01*
X186867000Y-77971691D01*
X186950000Y-77971691D01*
X186950000Y-78212250D01*
X187108750Y-78371000D01*
X187833000Y-78371000D01*
X187833000Y-77621750D01*
X188087000Y-77621750D01*
X188087000Y-78371000D01*
X188811250Y-78371000D01*
X188970000Y-78212250D01*
X188970000Y-77971691D01*
X188873327Y-77738302D01*
X188694699Y-77559673D01*
X188461310Y-77463000D01*
X188245750Y-77463000D01*
X188087000Y-77621750D01*
X187833000Y-77621750D01*
X187674250Y-77463000D01*
X187458690Y-77463000D01*
X187225301Y-77559673D01*
X187046673Y-77738302D01*
X186950000Y-77971691D01*
X186867000Y-77971691D01*
X186867000Y-74772102D01*
X186905952Y-74779990D01*
X186905952Y-74779990D01*
G37*
X186905952Y-74779990D02*
X186913185Y-74790815D01*
X187160395Y-74955996D01*
X187452000Y-75014000D01*
X189146000Y-75014000D01*
X189146000Y-75265212D01*
X189077378Y-75333714D01*
X188912687Y-75730332D01*
X188912313Y-76159784D01*
X189076311Y-76556689D01*
X189379714Y-76860622D01*
X189776332Y-77025313D01*
X190205784Y-77025687D01*
X190602689Y-76861689D01*
X190906622Y-76558286D01*
X191071313Y-76161668D01*
X191071687Y-75732216D01*
X190918813Y-75362233D01*
X190959441Y-75336090D01*
X191007134Y-75266289D01*
X191043910Y-75323441D01*
X191256110Y-75468431D01*
X191508000Y-75519440D01*
X192008000Y-75519440D01*
X192243317Y-75475162D01*
X192459441Y-75336090D01*
X192563360Y-75184000D01*
X192978370Y-75184000D01*
X193287082Y-75492712D01*
X193007311Y-75608311D01*
X192923476Y-75692000D01*
X192532000Y-75692000D01*
X192240395Y-75750004D01*
X192141377Y-75816166D01*
X191993185Y-75915184D01*
X191479185Y-76429185D01*
X191314004Y-76676395D01*
X191256000Y-76968000D01*
X191256000Y-77087952D01*
X191146569Y-77248110D01*
X191095560Y-77500000D01*
X191095560Y-78827560D01*
X189768000Y-78827560D01*
X189532683Y-78871838D01*
X189316559Y-79010910D01*
X189171569Y-79223110D01*
X189120560Y-79475000D01*
X189120560Y-80025000D01*
X189144944Y-80154589D01*
X189120560Y-80275000D01*
X189120560Y-80825000D01*
X189140450Y-80930705D01*
X189133000Y-80948690D01*
X189133000Y-81064250D01*
X189229401Y-81160651D01*
X189269520Y-81222998D01*
X189133000Y-81222998D01*
X189133000Y-81297796D01*
X188937668Y-81216687D01*
X188785500Y-81216554D01*
X188785500Y-80964237D01*
X188813776Y-80822084D01*
X188931431Y-80649890D01*
X188982440Y-80398000D01*
X188982440Y-79598000D01*
X188938162Y-79362683D01*
X188871671Y-79259354D01*
X188873327Y-79257698D01*
X188970000Y-79024309D01*
X188970000Y-78783750D01*
X188811250Y-78625000D01*
X188087000Y-78625000D01*
X188087000Y-78645000D01*
X187833000Y-78645000D01*
X187833000Y-78625000D01*
X187108750Y-78625000D01*
X186950000Y-78783750D01*
X186950000Y-79024309D01*
X187046673Y-79257698D01*
X187048043Y-79259068D01*
X186988569Y-79346110D01*
X186937560Y-79598000D01*
X186937560Y-80398000D01*
X186981838Y-80633317D01*
X187107530Y-80828647D01*
X187134500Y-80964237D01*
X187134500Y-82042000D01*
X187197337Y-82357906D01*
X187376283Y-82625717D01*
X187630281Y-82879714D01*
X187630283Y-82879717D01*
X187773633Y-82975500D01*
X187898094Y-83058663D01*
X187972867Y-83073536D01*
X188109714Y-83210622D01*
X188506332Y-83375313D01*
X188935784Y-83375687D01*
X189133000Y-83294199D01*
X189133000Y-83351310D01*
X189141468Y-83371753D01*
X189120560Y-83475000D01*
X189120560Y-83724500D01*
X189008005Y-83724500D01*
X189008000Y-83724499D01*
X188992974Y-83727488D01*
X188860000Y-83700560D01*
X187060000Y-83700560D01*
X186867000Y-83736875D01*
X186867000Y-77971691D01*
X186950000Y-77971691D01*
X186950000Y-78212250D01*
X187108750Y-78371000D01*
X187833000Y-78371000D01*
X187833000Y-77621750D01*
X188087000Y-77621750D01*
X188087000Y-78371000D01*
X188811250Y-78371000D01*
X188970000Y-78212250D01*
X188970000Y-77971691D01*
X188873327Y-77738302D01*
X188694699Y-77559673D01*
X188461310Y-77463000D01*
X188245750Y-77463000D01*
X188087000Y-77621750D01*
X187833000Y-77621750D01*
X187674250Y-77463000D01*
X187458690Y-77463000D01*
X187225301Y-77559673D01*
X187046673Y-77738302D01*
X186950000Y-77971691D01*
X186867000Y-77971691D01*
X186867000Y-74772102D01*
X186905952Y-74779990D01*
G36*
X201549000Y-81935000D02*
X201569000Y-81935000D01*
X201569000Y-82189000D01*
X201549000Y-82189000D01*
X201549000Y-82209000D01*
X201295000Y-82209000D01*
X201295000Y-82189000D01*
X201275000Y-82189000D01*
X201275000Y-81935000D01*
X201295000Y-81935000D01*
X201295000Y-81915000D01*
X201549000Y-81915000D01*
X201549000Y-81935000D01*
X201549000Y-81935000D01*
G37*
X201549000Y-81935000D02*
X201569000Y-81935000D01*
X201569000Y-82189000D01*
X201549000Y-82189000D01*
X201549000Y-82209000D01*
X201295000Y-82209000D01*
X201295000Y-82189000D01*
X201275000Y-82189000D01*
X201275000Y-81935000D01*
X201295000Y-81935000D01*
X201295000Y-81915000D01*
X201549000Y-81915000D01*
X201549000Y-81935000D01*
G36*
X187451847Y-55742174D02*
X188603674Y-56220454D01*
X188648861Y-56220493D01*
X188516569Y-56414110D01*
X188465560Y-56666000D01*
X188465560Y-57666000D01*
X188509838Y-57901317D01*
X188648910Y-58117441D01*
X188718711Y-58165134D01*
X188661559Y-58201910D01*
X188516569Y-58414110D01*
X188465560Y-58666000D01*
X188465560Y-59666000D01*
X188509838Y-59901317D01*
X188648910Y-60117441D01*
X188861110Y-60262431D01*
X189113000Y-60313440D01*
X190363000Y-60313440D01*
X190582424Y-60272152D01*
X190614560Y-60320247D01*
X190614560Y-61772800D01*
X190658838Y-62008117D01*
X190797910Y-62224241D01*
X191010110Y-62369231D01*
X191262000Y-62420240D01*
X193294000Y-62420240D01*
X193529317Y-62375962D01*
X193745441Y-62236890D01*
X193890431Y-62024690D01*
X193941440Y-61772800D01*
X193941440Y-61087000D01*
X197799887Y-61087000D01*
X197630683Y-61118838D01*
X197414559Y-61257910D01*
X197269569Y-61470110D01*
X197218560Y-61722000D01*
X197218560Y-62738000D01*
X197254388Y-62928409D01*
X197144216Y-62928313D01*
X196747311Y-63092311D01*
X196443378Y-63395714D01*
X196278687Y-63792332D01*
X196278313Y-64221784D01*
X196442311Y-64618689D01*
X196745714Y-64922622D01*
X196964560Y-65013495D01*
X196964560Y-65659000D01*
X197008838Y-65894317D01*
X197147910Y-66110441D01*
X197360110Y-66255431D01*
X197548314Y-66293543D01*
X197376683Y-66325838D01*
X197160559Y-66464910D01*
X197015569Y-66677110D01*
X197012068Y-66694400D01*
X196934824Y-66746013D01*
X196774283Y-66853283D01*
X196774281Y-66853286D01*
X195504283Y-68123283D01*
X195325337Y-68391094D01*
X195294095Y-68548162D01*
X195262500Y-68707000D01*
X195262500Y-70926747D01*
X195173378Y-71015714D01*
X195008687Y-71412332D01*
X195008313Y-71841784D01*
X195024930Y-71882000D01*
X194056000Y-71882000D01*
X193764395Y-71940004D01*
X193517184Y-72105185D01*
X193232370Y-72390000D01*
X192790229Y-72390000D01*
X192793000Y-72383310D01*
X192793000Y-72167750D01*
X192634250Y-72009000D01*
X191885000Y-72009000D01*
X191885000Y-72029000D01*
X191631000Y-72029000D01*
X191631000Y-72009000D01*
X191611000Y-72009000D01*
X191611000Y-71755000D01*
X191631000Y-71755000D01*
X191631000Y-71030750D01*
X191885000Y-71030750D01*
X191885000Y-71755000D01*
X192634250Y-71755000D01*
X192793000Y-71596250D01*
X192793000Y-71380690D01*
X192696327Y-71147301D01*
X192517698Y-70968673D01*
X192284309Y-70872000D01*
X192043750Y-70872000D01*
X191885000Y-71030750D01*
X191631000Y-71030750D01*
X191472250Y-70872000D01*
X191231691Y-70872000D01*
X190998302Y-70968673D01*
X190996932Y-70970043D01*
X190909890Y-70910569D01*
X190658000Y-70859560D01*
X189858000Y-70859560D01*
X189622683Y-70903838D01*
X189406559Y-71042910D01*
X189261569Y-71255110D01*
X189254504Y-71290000D01*
X187452000Y-71290000D01*
X187160395Y-71348004D01*
X186913185Y-71513185D01*
X186907005Y-71522435D01*
X186867000Y-71529962D01*
X186867000Y-65608200D01*
X190360560Y-65608200D01*
X190360560Y-69265800D01*
X190404838Y-69501117D01*
X190543910Y-69717241D01*
X190756110Y-69862231D01*
X191008000Y-69913240D01*
X193040000Y-69913240D01*
X193275317Y-69868962D01*
X193491441Y-69729890D01*
X193636431Y-69517690D01*
X193687440Y-69265800D01*
X193687440Y-65608200D01*
X193643162Y-65372883D01*
X193504090Y-65156759D01*
X193291890Y-65011769D01*
X193040000Y-64960760D01*
X191008000Y-64960760D01*
X190772683Y-65005038D01*
X190556559Y-65144110D01*
X190411569Y-65356310D01*
X190360560Y-65608200D01*
X186867000Y-65608200D01*
X186867000Y-55156305D01*
X187451847Y-55742174D01*
X187451847Y-55742174D01*
G37*
X187451847Y-55742174D02*
X188603674Y-56220454D01*
X188648861Y-56220493D01*
X188516569Y-56414110D01*
X188465560Y-56666000D01*
X188465560Y-57666000D01*
X188509838Y-57901317D01*
X188648910Y-58117441D01*
X188718711Y-58165134D01*
X188661559Y-58201910D01*
X188516569Y-58414110D01*
X188465560Y-58666000D01*
X188465560Y-59666000D01*
X188509838Y-59901317D01*
X188648910Y-60117441D01*
X188861110Y-60262431D01*
X189113000Y-60313440D01*
X190363000Y-60313440D01*
X190582424Y-60272152D01*
X190614560Y-60320247D01*
X190614560Y-61772800D01*
X190658838Y-62008117D01*
X190797910Y-62224241D01*
X191010110Y-62369231D01*
X191262000Y-62420240D01*
X193294000Y-62420240D01*
X193529317Y-62375962D01*
X193745441Y-62236890D01*
X193890431Y-62024690D01*
X193941440Y-61772800D01*
X193941440Y-61087000D01*
X197799887Y-61087000D01*
X197630683Y-61118838D01*
X197414559Y-61257910D01*
X197269569Y-61470110D01*
X197218560Y-61722000D01*
X197218560Y-62738000D01*
X197254388Y-62928409D01*
X197144216Y-62928313D01*
X196747311Y-63092311D01*
X196443378Y-63395714D01*
X196278687Y-63792332D01*
X196278313Y-64221784D01*
X196442311Y-64618689D01*
X196745714Y-64922622D01*
X196964560Y-65013495D01*
X196964560Y-65659000D01*
X197008838Y-65894317D01*
X197147910Y-66110441D01*
X197360110Y-66255431D01*
X197548314Y-66293543D01*
X197376683Y-66325838D01*
X197160559Y-66464910D01*
X197015569Y-66677110D01*
X197012068Y-66694400D01*
X196934824Y-66746013D01*
X196774283Y-66853283D01*
X196774281Y-66853286D01*
X195504283Y-68123283D01*
X195325337Y-68391094D01*
X195294095Y-68548162D01*
X195262500Y-68707000D01*
X195262500Y-70926747D01*
X195173378Y-71015714D01*
X195008687Y-71412332D01*
X195008313Y-71841784D01*
X195024930Y-71882000D01*
X194056000Y-71882000D01*
X193764395Y-71940004D01*
X193517184Y-72105185D01*
X193232370Y-72390000D01*
X192790229Y-72390000D01*
X192793000Y-72383310D01*
X192793000Y-72167750D01*
X192634250Y-72009000D01*
X191885000Y-72009000D01*
X191885000Y-72029000D01*
X191631000Y-72029000D01*
X191631000Y-72009000D01*
X191611000Y-72009000D01*
X191611000Y-71755000D01*
X191631000Y-71755000D01*
X191631000Y-71030750D01*
X191885000Y-71030750D01*
X191885000Y-71755000D01*
X192634250Y-71755000D01*
X192793000Y-71596250D01*
X192793000Y-71380690D01*
X192696327Y-71147301D01*
X192517698Y-70968673D01*
X192284309Y-70872000D01*
X192043750Y-70872000D01*
X191885000Y-71030750D01*
X191631000Y-71030750D01*
X191472250Y-70872000D01*
X191231691Y-70872000D01*
X190998302Y-70968673D01*
X190996932Y-70970043D01*
X190909890Y-70910569D01*
X190658000Y-70859560D01*
X189858000Y-70859560D01*
X189622683Y-70903838D01*
X189406559Y-71042910D01*
X189261569Y-71255110D01*
X189254504Y-71290000D01*
X187452000Y-71290000D01*
X187160395Y-71348004D01*
X186913185Y-71513185D01*
X186907005Y-71522435D01*
X186867000Y-71529962D01*
X186867000Y-65608200D01*
X190360560Y-65608200D01*
X190360560Y-69265800D01*
X190404838Y-69501117D01*
X190543910Y-69717241D01*
X190756110Y-69862231D01*
X191008000Y-69913240D01*
X193040000Y-69913240D01*
X193275317Y-69868962D01*
X193491441Y-69729890D01*
X193636431Y-69517690D01*
X193687440Y-69265800D01*
X193687440Y-65608200D01*
X193643162Y-65372883D01*
X193504090Y-65156759D01*
X193291890Y-65011769D01*
X193040000Y-64960760D01*
X191008000Y-64960760D01*
X190772683Y-65005038D01*
X190556559Y-65144110D01*
X190411569Y-65356310D01*
X190360560Y-65608200D01*
X186867000Y-65608200D01*
X186867000Y-55156305D01*
X187451847Y-55742174D01*
G36*
X200876000Y-66195440D02*
X202476000Y-66195440D01*
X202505751Y-66189842D01*
X202499407Y-66913000D01*
X201961750Y-66913000D01*
X201803000Y-67071750D01*
X201803000Y-67921000D01*
X201823000Y-67921000D01*
X201823000Y-68175000D01*
X201803000Y-68175000D01*
X201803000Y-69493000D01*
X201823000Y-69493000D01*
X201823000Y-69747000D01*
X201803000Y-69747000D01*
X201803000Y-70596250D01*
X201961750Y-70755000D01*
X202465706Y-70755000D01*
X202459411Y-71472560D01*
X201761796Y-71472560D01*
X201288618Y-70999382D01*
X201000205Y-70806671D01*
X200660000Y-70739000D01*
X200340764Y-70802500D01*
X199923612Y-70802500D01*
X200003699Y-70769327D01*
X200182327Y-70590698D01*
X200279000Y-70357309D01*
X200279000Y-70338049D01*
X200337673Y-70479698D01*
X200516301Y-70658327D01*
X200749690Y-70755000D01*
X201390250Y-70755000D01*
X201549000Y-70596250D01*
X201549000Y-69747000D01*
X200399750Y-69747000D01*
X200241000Y-69905750D01*
X200241000Y-69970750D01*
X200120250Y-69850000D01*
X198755000Y-69850000D01*
X198755000Y-69870000D01*
X198501000Y-69870000D01*
X198501000Y-69850000D01*
X197135750Y-69850000D01*
X196977000Y-70008750D01*
X196977000Y-70357309D01*
X197073673Y-70590698D01*
X197252301Y-70769327D01*
X197332388Y-70802500D01*
X196913500Y-70802500D01*
X196913500Y-69048934D01*
X197050014Y-68912420D01*
X196977000Y-69088691D01*
X196977000Y-69437250D01*
X197135750Y-69596000D01*
X198501000Y-69596000D01*
X198501000Y-69576000D01*
X198755000Y-69576000D01*
X198755000Y-69596000D01*
X200120250Y-69596000D01*
X200279000Y-69437250D01*
X200279000Y-69372250D01*
X200399750Y-69493000D01*
X201549000Y-69493000D01*
X201549000Y-68175000D01*
X201529000Y-68175000D01*
X201529000Y-67921000D01*
X201549000Y-67921000D01*
X201549000Y-67071750D01*
X201390250Y-66913000D01*
X200749690Y-66913000D01*
X200516301Y-67009673D01*
X200337673Y-67188302D01*
X200291440Y-67299918D01*
X200291440Y-66929000D01*
X200247162Y-66693683D01*
X200108090Y-66477559D01*
X199895890Y-66332569D01*
X199707686Y-66294457D01*
X199879317Y-66262162D01*
X200027203Y-66167000D01*
X200735559Y-66167000D01*
X200876000Y-66195440D01*
X200876000Y-66195440D01*
G37*
X200876000Y-66195440D02*
X202476000Y-66195440D01*
X202505751Y-66189842D01*
X202499407Y-66913000D01*
X201961750Y-66913000D01*
X201803000Y-67071750D01*
X201803000Y-67921000D01*
X201823000Y-67921000D01*
X201823000Y-68175000D01*
X201803000Y-68175000D01*
X201803000Y-69493000D01*
X201823000Y-69493000D01*
X201823000Y-69747000D01*
X201803000Y-69747000D01*
X201803000Y-70596250D01*
X201961750Y-70755000D01*
X202465706Y-70755000D01*
X202459411Y-71472560D01*
X201761796Y-71472560D01*
X201288618Y-70999382D01*
X201000205Y-70806671D01*
X200660000Y-70739000D01*
X200340764Y-70802500D01*
X199923612Y-70802500D01*
X200003699Y-70769327D01*
X200182327Y-70590698D01*
X200279000Y-70357309D01*
X200279000Y-70338049D01*
X200337673Y-70479698D01*
X200516301Y-70658327D01*
X200749690Y-70755000D01*
X201390250Y-70755000D01*
X201549000Y-70596250D01*
X201549000Y-69747000D01*
X200399750Y-69747000D01*
X200241000Y-69905750D01*
X200241000Y-69970750D01*
X200120250Y-69850000D01*
X198755000Y-69850000D01*
X198755000Y-69870000D01*
X198501000Y-69870000D01*
X198501000Y-69850000D01*
X197135750Y-69850000D01*
X196977000Y-70008750D01*
X196977000Y-70357309D01*
X197073673Y-70590698D01*
X197252301Y-70769327D01*
X197332388Y-70802500D01*
X196913500Y-70802500D01*
X196913500Y-69048934D01*
X197050014Y-68912420D01*
X196977000Y-69088691D01*
X196977000Y-69437250D01*
X197135750Y-69596000D01*
X198501000Y-69596000D01*
X198501000Y-69576000D01*
X198755000Y-69576000D01*
X198755000Y-69596000D01*
X200120250Y-69596000D01*
X200279000Y-69437250D01*
X200279000Y-69372250D01*
X200399750Y-69493000D01*
X201549000Y-69493000D01*
X201549000Y-68175000D01*
X201529000Y-68175000D01*
X201529000Y-67921000D01*
X201549000Y-67921000D01*
X201549000Y-67071750D01*
X201390250Y-66913000D01*
X200749690Y-66913000D01*
X200516301Y-67009673D01*
X200337673Y-67188302D01*
X200291440Y-67299918D01*
X200291440Y-66929000D01*
X200247162Y-66693683D01*
X200108090Y-66477559D01*
X199895890Y-66332569D01*
X199707686Y-66294457D01*
X199879317Y-66262162D01*
X200027203Y-66167000D01*
X200735559Y-66167000D01*
X200876000Y-66195440D01*
M02*
