G04 #@! TF.FileFunction,Soldermask,Top*
%FSLAX46Y46*%
G04 Gerber Fmt 4.6, Leading zero omitted, Abs format (unit mm)*
G04 Created by KiCad (PCBNEW 0.201511171411+6319~30~ubuntu15.10.1-product) date Fr 04 Dez 2015 11:44:42 CET*
%MOMM*%
G01*
G04 APERTURE LIST*
%ADD10C,0.100000*%
%ADD11O,4.200000X5.200000*%
%ADD12R,6.200000X6.200000*%
%ADD13C,6.200000*%
%ADD14R,1.500000X1.500000*%
%ADD15C,1.500000*%
%ADD16R,1.398880X1.398880*%
%ADD17R,1.400000X1.400000*%
%ADD18C,5.200000*%
%ADD19C,2.200000*%
%ADD20R,2.232000X3.857600*%
%ADD21R,2.232000X1.216000*%
%ADD22R,0.606400X1.216000*%
%ADD23R,2.050000X1.930000*%
%ADD24R,1.450000X1.700000*%
%ADD25R,1.700000X1.450000*%
%ADD26R,1.800000X1.200000*%
%ADD27R,1.800000X0.750000*%
%ADD28R,0.750000X1.800000*%
%ADD29R,1.927200X2.232000*%
%ADD30O,1.927200X2.232000*%
%ADD31R,1.500000X1.700000*%
%ADD32R,2.000000X0.800000*%
%ADD33R,1.927200X1.927200*%
%ADD34O,1.927200X1.927200*%
%ADD35R,1.000000X0.950000*%
%ADD36R,0.950000X1.000000*%
%ADD37R,1.450000X1.200000*%
%ADD38R,1.000100X1.500480*%
%ADD39R,0.799440X1.599540*%
%ADD40R,4.200500X2.999080*%
%ADD41R,1.000000X1.200000*%
%ADD42R,1.100000X0.700000*%
%ADD43R,0.700000X1.100000*%
G04 APERTURE END LIST*
D10*
D11*
X232664000Y-89408000D03*
X232664000Y-81508000D03*
X232664000Y-73608000D03*
D12*
X204470000Y-53340000D03*
D13*
X212370000Y-53340000D03*
D14*
X218059000Y-53594000D03*
D15*
X221859000Y-53594000D03*
D16*
X191041020Y-94488000D03*
X188942980Y-94488000D03*
D17*
X204724000Y-73406000D03*
X205724000Y-73406000D03*
X206724000Y-73406000D03*
X206724000Y-72406000D03*
X205724000Y-72406000D03*
X203724000Y-71406000D03*
X203724000Y-72406000D03*
X204724000Y-72406000D03*
X204724000Y-71406000D03*
X206724000Y-71406000D03*
X205724000Y-71406000D03*
X206724000Y-70406000D03*
X205724000Y-70406000D03*
X204724000Y-70406000D03*
D18*
X189230000Y-53086000D03*
X232230000Y-53086000D03*
D19*
X189230000Y-101086000D03*
D18*
X232230000Y-107586000D03*
D20*
X192278000Y-59944000D03*
D21*
X198882000Y-59944000D03*
X198882000Y-57658000D03*
X198882000Y-62230000D03*
D22*
X214884000Y-68554600D03*
X214233760Y-68554600D03*
X213583520Y-68554600D03*
X212933280Y-68554600D03*
X214884000Y-63754000D03*
X214233760Y-63754000D03*
X213583520Y-63754000D03*
X212933280Y-63754000D03*
D23*
X213909000Y-66154000D03*
D22*
X212344000Y-78765400D03*
X212994240Y-78765400D03*
X213644480Y-78765400D03*
X214294720Y-78765400D03*
X212344000Y-83566000D03*
X212994240Y-83566000D03*
X213644480Y-83566000D03*
X214294720Y-83566000D03*
D23*
X213319000Y-81166000D03*
D22*
X214884000Y-100304600D03*
X214233760Y-100304600D03*
X213583520Y-100304600D03*
X212933280Y-100304600D03*
X214884000Y-95504000D03*
X214233760Y-95504000D03*
X213583520Y-95504000D03*
X212933280Y-95504000D03*
D23*
X213909000Y-97904000D03*
D24*
X209296000Y-95778000D03*
X209296000Y-98278000D03*
D25*
X215118000Y-90932000D03*
X212618000Y-90932000D03*
D24*
X210312000Y-64028000D03*
X210312000Y-66528000D03*
D25*
X212364000Y-86614000D03*
X214864000Y-86614000D03*
D24*
X210058000Y-83292000D03*
X210058000Y-80792000D03*
D25*
X215372000Y-60452000D03*
X212872000Y-60452000D03*
D24*
X201422000Y-82062000D03*
X201422000Y-84562000D03*
D26*
X201676000Y-62968000D03*
X201676000Y-59968000D03*
D27*
X190568000Y-79750000D03*
X190568000Y-80550000D03*
X190568000Y-81350000D03*
X190568000Y-82150000D03*
X190568000Y-82950000D03*
X190568000Y-83750000D03*
X190568000Y-84550000D03*
X190568000Y-85350000D03*
D28*
X192018000Y-86800000D03*
X192818000Y-86800000D03*
X193618000Y-86800000D03*
X194418000Y-86800000D03*
X195218000Y-86800000D03*
X196018000Y-86800000D03*
X196818000Y-86800000D03*
X197618000Y-86800000D03*
D27*
X199068000Y-85350000D03*
X199068000Y-84550000D03*
X199068000Y-83750000D03*
X199068000Y-82950000D03*
X199068000Y-82150000D03*
X199068000Y-81350000D03*
X199068000Y-80550000D03*
X199068000Y-79750000D03*
D28*
X197618000Y-78300000D03*
X196818000Y-78300000D03*
X196018000Y-78300000D03*
X195218000Y-78300000D03*
X194418000Y-78300000D03*
X193618000Y-78300000D03*
X192818000Y-78300000D03*
X192018000Y-78300000D03*
D29*
X191262000Y-108966000D03*
D30*
X193802000Y-108966000D03*
X196342000Y-108966000D03*
D31*
X191262000Y-103361500D03*
X191262000Y-106061500D03*
D32*
X187960000Y-84648000D03*
X187960000Y-85598000D03*
X187960000Y-86548000D03*
D33*
X196850000Y-54356000D03*
D34*
X196850000Y-51816000D03*
X194310000Y-54356000D03*
X194310000Y-51816000D03*
D26*
X201676000Y-65048000D03*
X201676000Y-68048000D03*
X201676000Y-72620000D03*
X201676000Y-69620000D03*
X204216000Y-62968000D03*
X204216000Y-59968000D03*
D35*
X190258000Y-71882000D03*
X191758000Y-71882000D03*
D36*
X187960000Y-79998000D03*
X187960000Y-78498000D03*
X203708000Y-84062000D03*
X203708000Y-82562000D03*
X201422000Y-93714000D03*
X201422000Y-92214000D03*
X199644000Y-90944000D03*
X199644000Y-92444000D03*
X197866000Y-89928000D03*
X197866000Y-91428000D03*
D37*
X189738000Y-57166000D03*
X189738000Y-59166000D03*
D38*
X196278500Y-103581200D03*
X193738500Y-103581200D03*
X193738500Y-97078800D03*
X196278500Y-97078800D03*
D39*
X218567000Y-90805000D03*
X218567000Y-96139000D03*
X219837000Y-90805000D03*
X221107000Y-90805000D03*
X222377000Y-90805000D03*
X219837000Y-96139000D03*
X221107000Y-96139000D03*
X222377000Y-96139000D03*
D40*
X220472000Y-92202000D03*
D41*
X218948000Y-91313000D03*
X219710000Y-91313000D03*
X220472000Y-91313000D03*
X221234000Y-91313000D03*
X221996000Y-91313000D03*
X218948000Y-92329000D03*
X219710000Y-92329000D03*
X220472000Y-92329000D03*
X221234000Y-92329000D03*
X221996000Y-92329000D03*
X218948000Y-93154500D03*
X219710000Y-93154500D03*
X220472000Y-93154500D03*
X221234000Y-93154500D03*
X221996000Y-93154500D03*
D39*
X224663000Y-90805000D03*
X224663000Y-96139000D03*
X225933000Y-90805000D03*
X227203000Y-90805000D03*
X228473000Y-90805000D03*
X225933000Y-96139000D03*
X227203000Y-96139000D03*
X228473000Y-96139000D03*
D40*
X226568000Y-92202000D03*
D41*
X225044000Y-91313000D03*
X225806000Y-91313000D03*
X226568000Y-91313000D03*
X227330000Y-91313000D03*
X228092000Y-91313000D03*
X225044000Y-92329000D03*
X225806000Y-92329000D03*
X226568000Y-92329000D03*
X227330000Y-92329000D03*
X228092000Y-92329000D03*
X225044000Y-93154500D03*
X225806000Y-93154500D03*
X226568000Y-93154500D03*
X227330000Y-93154500D03*
X228092000Y-93154500D03*
D39*
X218567000Y-99441000D03*
X218567000Y-104775000D03*
X219837000Y-99441000D03*
X221107000Y-99441000D03*
X222377000Y-99441000D03*
X219837000Y-104775000D03*
X221107000Y-104775000D03*
X222377000Y-104775000D03*
D40*
X220472000Y-100838000D03*
D41*
X218948000Y-99949000D03*
X219710000Y-99949000D03*
X220472000Y-99949000D03*
X221234000Y-99949000D03*
X221996000Y-99949000D03*
X218948000Y-100965000D03*
X219710000Y-100965000D03*
X220472000Y-100965000D03*
X221234000Y-100965000D03*
X221996000Y-100965000D03*
X218948000Y-101790500D03*
X219710000Y-101790500D03*
X220472000Y-101790500D03*
X221234000Y-101790500D03*
X221996000Y-101790500D03*
D39*
X224663000Y-99441000D03*
X224663000Y-104775000D03*
X225933000Y-99441000D03*
X227203000Y-99441000D03*
X228473000Y-99441000D03*
X225933000Y-104775000D03*
X227203000Y-104775000D03*
X228473000Y-104775000D03*
D40*
X226568000Y-100838000D03*
D41*
X225044000Y-99949000D03*
X225806000Y-99949000D03*
X226568000Y-99949000D03*
X227330000Y-99949000D03*
X228092000Y-99949000D03*
X225044000Y-100965000D03*
X225806000Y-100965000D03*
X226568000Y-100965000D03*
X227330000Y-100965000D03*
X228092000Y-100965000D03*
X225044000Y-101790500D03*
X225806000Y-101790500D03*
X226568000Y-101790500D03*
X227330000Y-101790500D03*
X228092000Y-101790500D03*
D39*
X228473000Y-88519000D03*
X228473000Y-83185000D03*
X227203000Y-88519000D03*
X225933000Y-88519000D03*
X224663000Y-88519000D03*
X227203000Y-83185000D03*
X225933000Y-83185000D03*
X224663000Y-83185000D03*
D40*
X226568000Y-87122000D03*
D41*
X228092000Y-88011000D03*
X227330000Y-88011000D03*
X226568000Y-88011000D03*
X225806000Y-88011000D03*
X225044000Y-88011000D03*
X228092000Y-86995000D03*
X227330000Y-86995000D03*
X226568000Y-86995000D03*
X225806000Y-86995000D03*
X225044000Y-86995000D03*
X228092000Y-86169500D03*
X227330000Y-86169500D03*
X226568000Y-86169500D03*
X225806000Y-86169500D03*
X225044000Y-86169500D03*
D39*
X222377000Y-88519000D03*
X222377000Y-83185000D03*
X221107000Y-88519000D03*
X219837000Y-88519000D03*
X218567000Y-88519000D03*
X221107000Y-83185000D03*
X219837000Y-83185000D03*
X218567000Y-83185000D03*
D40*
X220472000Y-87122000D03*
D41*
X221996000Y-88011000D03*
X221234000Y-88011000D03*
X220472000Y-88011000D03*
X219710000Y-88011000D03*
X218948000Y-88011000D03*
X221996000Y-86995000D03*
X221234000Y-86995000D03*
X220472000Y-86995000D03*
X219710000Y-86995000D03*
X218948000Y-86995000D03*
X221996000Y-86169500D03*
X221234000Y-86169500D03*
X220472000Y-86169500D03*
X219710000Y-86169500D03*
X218948000Y-86169500D03*
D39*
X222377000Y-80137000D03*
X222377000Y-74803000D03*
X221107000Y-80137000D03*
X219837000Y-80137000D03*
X218567000Y-80137000D03*
X221107000Y-74803000D03*
X219837000Y-74803000D03*
X218567000Y-74803000D03*
D40*
X220472000Y-78740000D03*
D41*
X221996000Y-79629000D03*
X221234000Y-79629000D03*
X220472000Y-79629000D03*
X219710000Y-79629000D03*
X218948000Y-79629000D03*
X221996000Y-78613000D03*
X221234000Y-78613000D03*
X220472000Y-78613000D03*
X219710000Y-78613000D03*
X218948000Y-78613000D03*
X221996000Y-77787500D03*
X221234000Y-77787500D03*
X220472000Y-77787500D03*
X219710000Y-77787500D03*
X218948000Y-77787500D03*
D39*
X228473000Y-80137000D03*
X228473000Y-74803000D03*
X227203000Y-80137000D03*
X225933000Y-80137000D03*
X224663000Y-80137000D03*
X227203000Y-74803000D03*
X225933000Y-74803000D03*
X224663000Y-74803000D03*
D40*
X226568000Y-78740000D03*
D41*
X228092000Y-79629000D03*
X227330000Y-79629000D03*
X226568000Y-79629000D03*
X225806000Y-79629000D03*
X225044000Y-79629000D03*
X228092000Y-78613000D03*
X227330000Y-78613000D03*
X226568000Y-78613000D03*
X225806000Y-78613000D03*
X225044000Y-78613000D03*
X228092000Y-77787500D03*
X227330000Y-77787500D03*
X226568000Y-77787500D03*
X225806000Y-77787500D03*
X225044000Y-77787500D03*
D39*
X224663000Y-58293000D03*
X224663000Y-63627000D03*
X225933000Y-58293000D03*
X227203000Y-58293000D03*
X228473000Y-58293000D03*
X225933000Y-63627000D03*
X227203000Y-63627000D03*
X228473000Y-63627000D03*
D40*
X226568000Y-59690000D03*
D41*
X225044000Y-58801000D03*
X225806000Y-58801000D03*
X226568000Y-58801000D03*
X227330000Y-58801000D03*
X228092000Y-58801000D03*
X225044000Y-59817000D03*
X225806000Y-59817000D03*
X226568000Y-59817000D03*
X227330000Y-59817000D03*
X228092000Y-59817000D03*
X225044000Y-60642500D03*
X225806000Y-60642500D03*
X226568000Y-60642500D03*
X227330000Y-60642500D03*
X228092000Y-60642500D03*
D39*
X218567000Y-58293000D03*
X218567000Y-63627000D03*
X219837000Y-58293000D03*
X221107000Y-58293000D03*
X222377000Y-58293000D03*
X219837000Y-63627000D03*
X221107000Y-63627000D03*
X222377000Y-63627000D03*
D40*
X220472000Y-59690000D03*
D41*
X218948000Y-58801000D03*
X219710000Y-58801000D03*
X220472000Y-58801000D03*
X221234000Y-58801000D03*
X221996000Y-58801000D03*
X218948000Y-59817000D03*
X219710000Y-59817000D03*
X220472000Y-59817000D03*
X221234000Y-59817000D03*
X221996000Y-59817000D03*
X218948000Y-60642500D03*
X219710000Y-60642500D03*
X220472000Y-60642500D03*
X221234000Y-60642500D03*
X221996000Y-60642500D03*
D39*
X218567000Y-66421000D03*
X218567000Y-71755000D03*
X219837000Y-66421000D03*
X221107000Y-66421000D03*
X222377000Y-66421000D03*
X219837000Y-71755000D03*
X221107000Y-71755000D03*
X222377000Y-71755000D03*
D40*
X220472000Y-67818000D03*
D41*
X218948000Y-66929000D03*
X219710000Y-66929000D03*
X220472000Y-66929000D03*
X221234000Y-66929000D03*
X221996000Y-66929000D03*
X218948000Y-67945000D03*
X219710000Y-67945000D03*
X220472000Y-67945000D03*
X221234000Y-67945000D03*
X221996000Y-67945000D03*
X218948000Y-68770500D03*
X219710000Y-68770500D03*
X220472000Y-68770500D03*
X221234000Y-68770500D03*
X221996000Y-68770500D03*
D39*
X224663000Y-66421000D03*
X224663000Y-71755000D03*
X225933000Y-66421000D03*
X227203000Y-66421000D03*
X228473000Y-66421000D03*
X225933000Y-71755000D03*
X227203000Y-71755000D03*
X228473000Y-71755000D03*
D40*
X226568000Y-67818000D03*
D41*
X225044000Y-66929000D03*
X225806000Y-66929000D03*
X226568000Y-66929000D03*
X227330000Y-66929000D03*
X228092000Y-66929000D03*
X225044000Y-67945000D03*
X225806000Y-67945000D03*
X226568000Y-67945000D03*
X227330000Y-67945000D03*
X228092000Y-67945000D03*
X225044000Y-68770500D03*
X225806000Y-68770500D03*
X226568000Y-68770500D03*
X227330000Y-68770500D03*
X228092000Y-68770500D03*
D42*
X199390000Y-99302000D03*
X199390000Y-97802000D03*
D43*
X195568000Y-89662000D03*
X194068000Y-89662000D03*
X215634000Y-103632000D03*
X214134000Y-103632000D03*
X203212000Y-95758000D03*
X204712000Y-95758000D03*
D42*
X187452000Y-72402000D03*
X187452000Y-73902000D03*
D43*
X195568000Y-91694000D03*
X194068000Y-91694000D03*
X231914000Y-85852000D03*
X233414000Y-85852000D03*
X215888000Y-92710000D03*
X214388000Y-92710000D03*
X203212000Y-97790000D03*
X204712000Y-97790000D03*
X195568000Y-93726000D03*
X194068000Y-93726000D03*
D42*
X234442000Y-63512000D03*
X234442000Y-65012000D03*
D43*
X203212000Y-100330000D03*
X204712000Y-100330000D03*
X191758000Y-74422000D03*
X190258000Y-74422000D03*
X206998000Y-87503000D03*
X205498000Y-87503000D03*
D42*
X204343000Y-91555000D03*
X204343000Y-90055000D03*
X215392000Y-75450000D03*
X215392000Y-76950000D03*
X207518000Y-78601000D03*
X207518000Y-77101000D03*
X207010000Y-66687000D03*
X207010000Y-68187000D03*
D43*
X211697000Y-74295000D03*
X210197000Y-74295000D03*
D20*
X192024000Y-67437000D03*
D21*
X198628000Y-67437000D03*
X198628000Y-65151000D03*
X198628000Y-69723000D03*
M02*
