G04 #@! TF.FileFunction,Legend,Top*
%FSLAX46Y46*%
G04 Gerber Fmt 4.6, Leading zero omitted, Abs format (unit mm)*
G04 Created by KiCad (PCBNEW 0.201511171411+6319~30~ubuntu15.10.1-product) date Fr 04 Dez 2015 11:44:42 CET*
%MOMM*%
G01*
G04 APERTURE LIST*
%ADD10C,0.100000*%
%ADD11C,0.300000*%
%ADD12C,0.200000*%
%ADD13C,0.150000*%
%ADD14C,0.203200*%
%ADD15C,0.099060*%
%ADD16C,0.127000*%
%ADD17C,0.152400*%
G04 APERTURE END LIST*
D10*
X208209142Y-108799381D02*
X208780571Y-108799381D01*
X208494856Y-109799381D02*
X208494856Y-108799381D01*
X209256761Y-109799381D02*
X209161523Y-109751762D01*
X209113904Y-109704143D01*
X209066285Y-109608905D01*
X209066285Y-109323190D01*
X209113904Y-109227952D01*
X209161523Y-109180333D01*
X209256761Y-109132714D01*
X209399619Y-109132714D01*
X209494857Y-109180333D01*
X209542476Y-109227952D01*
X209590095Y-109323190D01*
X209590095Y-109608905D01*
X209542476Y-109704143D01*
X209494857Y-109751762D01*
X209399619Y-109799381D01*
X209256761Y-109799381D01*
X210018666Y-109132714D02*
X210018666Y-109799381D01*
X210018666Y-109227952D02*
X210066285Y-109180333D01*
X210161523Y-109132714D01*
X210304381Y-109132714D01*
X210399619Y-109180333D01*
X210447238Y-109275571D01*
X210447238Y-109799381D01*
X210923428Y-109799381D02*
X210923428Y-109132714D01*
X210923428Y-108799381D02*
X210875809Y-108847000D01*
X210923428Y-108894619D01*
X210971047Y-108847000D01*
X210923428Y-108799381D01*
X210923428Y-108894619D01*
X212494857Y-109275571D02*
X212637714Y-109323190D01*
X212685333Y-109370810D01*
X212732952Y-109466048D01*
X212732952Y-109608905D01*
X212685333Y-109704143D01*
X212637714Y-109751762D01*
X212542476Y-109799381D01*
X212161523Y-109799381D01*
X212161523Y-108799381D01*
X212494857Y-108799381D01*
X212590095Y-108847000D01*
X212637714Y-108894619D01*
X212685333Y-108989857D01*
X212685333Y-109085095D01*
X212637714Y-109180333D01*
X212590095Y-109227952D01*
X212494857Y-109275571D01*
X212161523Y-109275571D01*
X213161523Y-109799381D02*
X213161523Y-109132714D01*
X213161523Y-109323190D02*
X213209142Y-109227952D01*
X213256761Y-109180333D01*
X213351999Y-109132714D01*
X213447238Y-109132714D01*
X214209143Y-109799381D02*
X214209143Y-109275571D01*
X214161524Y-109180333D01*
X214066286Y-109132714D01*
X213875809Y-109132714D01*
X213780571Y-109180333D01*
X214209143Y-109751762D02*
X214113905Y-109799381D01*
X213875809Y-109799381D01*
X213780571Y-109751762D01*
X213732952Y-109656524D01*
X213732952Y-109561286D01*
X213780571Y-109466048D01*
X213875809Y-109418429D01*
X214113905Y-109418429D01*
X214209143Y-109370810D01*
X214542476Y-109132714D02*
X214923428Y-109132714D01*
X214685333Y-108799381D02*
X214685333Y-109656524D01*
X214732952Y-109751762D01*
X214828190Y-109799381D01*
X214923428Y-109799381D01*
X215209143Y-109751762D02*
X215304381Y-109799381D01*
X215494857Y-109799381D01*
X215590096Y-109751762D01*
X215637715Y-109656524D01*
X215637715Y-109608905D01*
X215590096Y-109513667D01*
X215494857Y-109466048D01*
X215352000Y-109466048D01*
X215256762Y-109418429D01*
X215209143Y-109323190D01*
X215209143Y-109275571D01*
X215256762Y-109180333D01*
X215352000Y-109132714D01*
X215494857Y-109132714D01*
X215590096Y-109180333D01*
X216494858Y-109751762D02*
X216399620Y-109799381D01*
X216209143Y-109799381D01*
X216113905Y-109751762D01*
X216066286Y-109704143D01*
X216018667Y-109608905D01*
X216018667Y-109323190D01*
X216066286Y-109227952D01*
X216113905Y-109180333D01*
X216209143Y-109132714D01*
X216399620Y-109132714D01*
X216494858Y-109180333D01*
X216923429Y-109799381D02*
X216923429Y-108799381D01*
X217352001Y-109799381D02*
X217352001Y-109275571D01*
X217304382Y-109180333D01*
X217209144Y-109132714D01*
X217066286Y-109132714D01*
X216971048Y-109180333D01*
X216923429Y-109227952D01*
X208399714Y-108605581D02*
X208399714Y-107605581D01*
X208780667Y-107605581D01*
X208875905Y-107653200D01*
X208923524Y-107700819D01*
X208971143Y-107796057D01*
X208971143Y-107938914D01*
X208923524Y-108034152D01*
X208875905Y-108081771D01*
X208780667Y-108129390D01*
X208399714Y-108129390D01*
X209399714Y-108605581D02*
X209399714Y-107605581D01*
X209828286Y-108605581D02*
X209828286Y-108081771D01*
X209780667Y-107986533D01*
X209685429Y-107938914D01*
X209542571Y-107938914D01*
X209447333Y-107986533D01*
X209399714Y-108034152D01*
X210304476Y-108605581D02*
X210304476Y-107938914D01*
X210304476Y-107605581D02*
X210256857Y-107653200D01*
X210304476Y-107700819D01*
X210352095Y-107653200D01*
X210304476Y-107605581D01*
X210304476Y-107700819D01*
X210923523Y-108605581D02*
X210828285Y-108557962D01*
X210780666Y-108462724D01*
X210780666Y-107605581D01*
X211304476Y-108605581D02*
X211304476Y-107938914D01*
X211304476Y-107605581D02*
X211256857Y-107653200D01*
X211304476Y-107700819D01*
X211352095Y-107653200D01*
X211304476Y-107605581D01*
X211304476Y-107700819D01*
X211780666Y-107938914D02*
X211780666Y-108938914D01*
X211780666Y-107986533D02*
X211875904Y-107938914D01*
X212066381Y-107938914D01*
X212161619Y-107986533D01*
X212209238Y-108034152D01*
X212256857Y-108129390D01*
X212256857Y-108415105D01*
X212209238Y-108510343D01*
X212161619Y-108557962D01*
X212066381Y-108605581D01*
X211875904Y-108605581D01*
X211780666Y-108557962D01*
X212685428Y-107938914D02*
X212685428Y-108938914D01*
X212685428Y-107986533D02*
X212780666Y-107938914D01*
X212971143Y-107938914D01*
X213066381Y-107986533D01*
X213114000Y-108034152D01*
X213161619Y-108129390D01*
X213161619Y-108415105D01*
X213114000Y-108510343D01*
X213066381Y-108557962D01*
X212971143Y-108605581D01*
X212780666Y-108605581D01*
X212685428Y-108557962D01*
X214352095Y-108605581D02*
X214352095Y-107605581D01*
X214352095Y-108081771D02*
X214923524Y-108081771D01*
X214923524Y-108605581D02*
X214923524Y-107605581D01*
X215542571Y-108605581D02*
X215447333Y-108557962D01*
X215399714Y-108510343D01*
X215352095Y-108415105D01*
X215352095Y-108129390D01*
X215399714Y-108034152D01*
X215447333Y-107986533D01*
X215542571Y-107938914D01*
X215685429Y-107938914D01*
X215780667Y-107986533D01*
X215828286Y-108034152D01*
X215875905Y-108129390D01*
X215875905Y-108415105D01*
X215828286Y-108510343D01*
X215780667Y-108557962D01*
X215685429Y-108605581D01*
X215542571Y-108605581D01*
X215447333Y-107605581D02*
X215494952Y-107653200D01*
X215447333Y-107700819D01*
X215399714Y-107653200D01*
X215447333Y-107605581D01*
X215447333Y-107700819D01*
X215828286Y-107605581D02*
X215875905Y-107653200D01*
X215828286Y-107700819D01*
X215780667Y-107653200D01*
X215828286Y-107605581D01*
X215828286Y-107700819D01*
X216304476Y-108605581D02*
X216304476Y-107938914D01*
X216304476Y-108129390D02*
X216352095Y-108034152D01*
X216399714Y-107986533D01*
X216494952Y-107938914D01*
X216590191Y-107938914D01*
X217352096Y-108605581D02*
X217352096Y-108081771D01*
X217304477Y-107986533D01*
X217209239Y-107938914D01*
X217018762Y-107938914D01*
X216923524Y-107986533D01*
X217352096Y-108557962D02*
X217256858Y-108605581D01*
X217018762Y-108605581D01*
X216923524Y-108557962D01*
X216875905Y-108462724D01*
X216875905Y-108367486D01*
X216923524Y-108272248D01*
X217018762Y-108224629D01*
X217256858Y-108224629D01*
X217352096Y-108177010D01*
X218256858Y-107938914D02*
X218256858Y-108605581D01*
X217828286Y-107938914D02*
X217828286Y-108462724D01*
X217875905Y-108557962D01*
X217971143Y-108605581D01*
X218114001Y-108605581D01*
X218209239Y-108557962D01*
X218256858Y-108510343D01*
X218590191Y-107938914D02*
X218971143Y-107938914D01*
X218733048Y-108605581D02*
X218733048Y-107748438D01*
X218780667Y-107653200D01*
X218875905Y-107605581D01*
X218971143Y-107605581D01*
X203070676Y-107691133D02*
X203023056Y-107643514D01*
X202927818Y-107500657D01*
X202880199Y-107405419D01*
X202832580Y-107262562D01*
X202784961Y-107024467D01*
X202784961Y-106833990D01*
X202832580Y-106595895D01*
X202880199Y-106453038D01*
X202927818Y-106357800D01*
X203023056Y-106214943D01*
X203070676Y-106167324D01*
X204023057Y-107214943D02*
X203975438Y-107262562D01*
X203832581Y-107310181D01*
X203737343Y-107310181D01*
X203594485Y-107262562D01*
X203499247Y-107167324D01*
X203451628Y-107072086D01*
X203404009Y-106881610D01*
X203404009Y-106738752D01*
X203451628Y-106548276D01*
X203499247Y-106453038D01*
X203594485Y-106357800D01*
X203737343Y-106310181D01*
X203832581Y-106310181D01*
X203975438Y-106357800D01*
X204023057Y-106405419D01*
X204356390Y-107691133D02*
X204404009Y-107643514D01*
X204499247Y-107500657D01*
X204546866Y-107405419D01*
X204594485Y-107262562D01*
X204642104Y-107024467D01*
X204642104Y-106833990D01*
X204594485Y-106595895D01*
X204546866Y-106453038D01*
X204499247Y-106357800D01*
X204404009Y-106214943D01*
X204356390Y-106167324D01*
X205832581Y-107262562D02*
X205975438Y-107310181D01*
X206213534Y-107310181D01*
X206308772Y-107262562D01*
X206356391Y-107214943D01*
X206404010Y-107119705D01*
X206404010Y-107024467D01*
X206356391Y-106929229D01*
X206308772Y-106881610D01*
X206213534Y-106833990D01*
X206023057Y-106786371D01*
X205927819Y-106738752D01*
X205880200Y-106691133D01*
X205832581Y-106595895D01*
X205832581Y-106500657D01*
X205880200Y-106405419D01*
X205927819Y-106357800D01*
X206023057Y-106310181D01*
X206261153Y-106310181D01*
X206404010Y-106357800D01*
X206737343Y-106643514D02*
X206975438Y-107310181D01*
X207213534Y-106643514D01*
X207975439Y-107262562D02*
X207880201Y-107310181D01*
X207689724Y-107310181D01*
X207594486Y-107262562D01*
X207546867Y-107167324D01*
X207546867Y-106786371D01*
X207594486Y-106691133D01*
X207689724Y-106643514D01*
X207880201Y-106643514D01*
X207975439Y-106691133D01*
X208023058Y-106786371D01*
X208023058Y-106881610D01*
X207546867Y-106976848D01*
X208451629Y-106643514D02*
X208451629Y-107310181D01*
X208451629Y-106738752D02*
X208499248Y-106691133D01*
X208594486Y-106643514D01*
X208737344Y-106643514D01*
X208832582Y-106691133D01*
X208880201Y-106786371D01*
X208880201Y-107310181D01*
X210070677Y-107262562D02*
X210213534Y-107310181D01*
X210451630Y-107310181D01*
X210546868Y-107262562D01*
X210594487Y-107214943D01*
X210642106Y-107119705D01*
X210642106Y-107024467D01*
X210594487Y-106929229D01*
X210546868Y-106881610D01*
X210451630Y-106833990D01*
X210261153Y-106786371D01*
X210165915Y-106738752D01*
X210118296Y-106691133D01*
X210070677Y-106595895D01*
X210070677Y-106500657D01*
X210118296Y-106405419D01*
X210165915Y-106357800D01*
X210261153Y-106310181D01*
X210499249Y-106310181D01*
X210642106Y-106357800D01*
X211499249Y-107262562D02*
X211404011Y-107310181D01*
X211213534Y-107310181D01*
X211118296Y-107262562D01*
X211070677Y-107214943D01*
X211023058Y-107119705D01*
X211023058Y-106833990D01*
X211070677Y-106738752D01*
X211118296Y-106691133D01*
X211213534Y-106643514D01*
X211404011Y-106643514D01*
X211499249Y-106691133D01*
X211927820Y-107310181D02*
X211927820Y-106310181D01*
X212356392Y-107310181D02*
X212356392Y-106786371D01*
X212308773Y-106691133D01*
X212213535Y-106643514D01*
X212070677Y-106643514D01*
X211975439Y-106691133D01*
X211927820Y-106738752D01*
X212832582Y-106643514D02*
X212832582Y-107310181D01*
X212832582Y-106738752D02*
X212880201Y-106691133D01*
X212975439Y-106643514D01*
X213118297Y-106643514D01*
X213213535Y-106691133D01*
X213261154Y-106786371D01*
X213261154Y-107310181D01*
X214118297Y-107262562D02*
X214023059Y-107310181D01*
X213832582Y-107310181D01*
X213737344Y-107262562D01*
X213689725Y-107167324D01*
X213689725Y-106786371D01*
X213737344Y-106691133D01*
X213832582Y-106643514D01*
X214023059Y-106643514D01*
X214118297Y-106691133D01*
X214165916Y-106786371D01*
X214165916Y-106881610D01*
X213689725Y-106976848D01*
X214594487Y-107310181D02*
X214594487Y-106643514D01*
X214594487Y-106310181D02*
X214546868Y-106357800D01*
X214594487Y-106405419D01*
X214642106Y-106357800D01*
X214594487Y-106310181D01*
X214594487Y-106405419D01*
X215499249Y-107310181D02*
X215499249Y-106310181D01*
X215499249Y-107262562D02*
X215404011Y-107310181D01*
X215213534Y-107310181D01*
X215118296Y-107262562D01*
X215070677Y-107214943D01*
X215023058Y-107119705D01*
X215023058Y-106833990D01*
X215070677Y-106738752D01*
X215118296Y-106691133D01*
X215213534Y-106643514D01*
X215404011Y-106643514D01*
X215499249Y-106691133D01*
X216356392Y-107262562D02*
X216261154Y-107310181D01*
X216070677Y-107310181D01*
X215975439Y-107262562D01*
X215927820Y-107167324D01*
X215927820Y-106786371D01*
X215975439Y-106691133D01*
X216070677Y-106643514D01*
X216261154Y-106643514D01*
X216356392Y-106691133D01*
X216404011Y-106786371D01*
X216404011Y-106881610D01*
X215927820Y-106976848D01*
X216832582Y-107310181D02*
X216832582Y-106643514D01*
X216832582Y-106833990D02*
X216880201Y-106738752D01*
X216927820Y-106691133D01*
X217023058Y-106643514D01*
X217118297Y-106643514D01*
D11*
X202565143Y-55638000D02*
X202422286Y-55566571D01*
X202208000Y-55566571D01*
X201993715Y-55638000D01*
X201850857Y-55780857D01*
X201779429Y-55923714D01*
X201708000Y-56209429D01*
X201708000Y-56423714D01*
X201779429Y-56709429D01*
X201850857Y-56852286D01*
X201993715Y-56995143D01*
X202208000Y-57066571D01*
X202350857Y-57066571D01*
X202565143Y-56995143D01*
X202636572Y-56923714D01*
X202636572Y-56423714D01*
X202350857Y-56423714D01*
X203279429Y-57066571D02*
X203279429Y-55566571D01*
X204136572Y-57066571D01*
X204136572Y-55566571D01*
X204850858Y-57066571D02*
X204850858Y-55566571D01*
X205208001Y-55566571D01*
X205422286Y-55638000D01*
X205565144Y-55780857D01*
X205636572Y-55923714D01*
X205708001Y-56209429D01*
X205708001Y-56423714D01*
X205636572Y-56709429D01*
X205565144Y-56852286D01*
X205422286Y-56995143D01*
X205208001Y-57066571D01*
X204850858Y-57066571D01*
D12*
X191770000Y-80010000D02*
X192278000Y-79502000D01*
X214884000Y-97028000D02*
X215138000Y-97028000D01*
X214376000Y-96520000D02*
X214884000Y-97028000D01*
X212852000Y-82550000D02*
X212090000Y-81788000D01*
X214630000Y-64770000D02*
X215138000Y-65278000D01*
D13*
X222377000Y-51790600D02*
X222402400Y-51790600D01*
X221564200Y-51790600D02*
X221538800Y-51790600D01*
X222326200Y-51790600D02*
X222351600Y-51790600D01*
X221589600Y-51790600D02*
X222300800Y-51790600D01*
X221970600Y-52120800D02*
X221970600Y-52247800D01*
X221970600Y-51384200D02*
X221970600Y-52095400D01*
X222859000Y-53594000D02*
G75*
G03X222859000Y-53594000I-1000000J0D01*
G01*
X188392000Y-95238000D02*
X191092000Y-95238000D01*
X188392000Y-93738000D02*
X191092000Y-93738000D01*
X189892000Y-94638000D02*
X189892000Y-94388000D01*
X189892000Y-94388000D02*
X189742000Y-94538000D01*
X189642000Y-94138000D02*
X189642000Y-94838000D01*
X189992000Y-94488000D02*
X190342000Y-94488000D01*
X189642000Y-94488000D02*
X189992000Y-94138000D01*
X189992000Y-94138000D02*
X189992000Y-94838000D01*
X189992000Y-94838000D02*
X189642000Y-94488000D01*
X204089000Y-69723000D02*
X207391000Y-69723000D01*
X207391000Y-69723000D02*
X207391000Y-74041000D01*
X207391000Y-74041000D02*
X207391000Y-74168000D01*
X207391000Y-74168000D02*
X204216000Y-74168000D01*
X204216000Y-74168000D02*
X202946000Y-72898000D01*
X202946000Y-72898000D02*
X202946000Y-70866000D01*
X202946000Y-70866000D02*
X204089000Y-69723000D01*
X191516000Y-53086000D02*
G75*
G03X191516000Y-53086000I-2286000J0D01*
G01*
D14*
X197104000Y-63500000D02*
X200152000Y-63500000D01*
X200152000Y-63500000D02*
X200152000Y-56388000D01*
X200152000Y-56388000D02*
X197104000Y-56388000D01*
X194056000Y-63500000D02*
X193294000Y-63500000D01*
X193294000Y-63500000D02*
X191008000Y-61976000D01*
X191008000Y-61976000D02*
X191008000Y-57912000D01*
X191008000Y-57912000D02*
X193294000Y-56388000D01*
X193294000Y-56388000D02*
X194056000Y-56388000D01*
D13*
X215265000Y-67691000D02*
X212598000Y-67691000D01*
X212471000Y-67691000D02*
X212471000Y-64643000D01*
X212598000Y-64643000D02*
X215265000Y-64643000D01*
X215265000Y-64643000D02*
X215265000Y-67691000D01*
X211963000Y-79629000D02*
X214630000Y-79629000D01*
X214757000Y-79629000D02*
X214757000Y-82677000D01*
X214630000Y-82677000D02*
X211963000Y-82677000D01*
X211963000Y-82677000D02*
X211963000Y-79629000D01*
X215265000Y-99441000D02*
X212598000Y-99441000D01*
X212471000Y-99441000D02*
X212471000Y-96393000D01*
X212598000Y-96393000D02*
X215265000Y-96393000D01*
X215265000Y-96393000D02*
X215265000Y-99441000D01*
X210146000Y-97528000D02*
X210146000Y-96528000D01*
X208446000Y-96528000D02*
X208446000Y-97528000D01*
X213368000Y-91782000D02*
X214368000Y-91782000D01*
X214368000Y-90082000D02*
X213368000Y-90082000D01*
X211162000Y-65778000D02*
X211162000Y-64778000D01*
X209462000Y-64778000D02*
X209462000Y-65778000D01*
X214114000Y-85764000D02*
X213114000Y-85764000D01*
X213114000Y-87464000D02*
X214114000Y-87464000D01*
X209208000Y-81542000D02*
X209208000Y-82542000D01*
X210908000Y-82542000D02*
X210908000Y-81542000D01*
X213622000Y-61302000D02*
X214622000Y-61302000D01*
X214622000Y-59602000D02*
X213622000Y-59602000D01*
X202272000Y-83812000D02*
X202272000Y-82812000D01*
X200572000Y-82812000D02*
X200572000Y-83812000D01*
X200651000Y-60468000D02*
X200651000Y-62468000D01*
X202701000Y-62468000D02*
X202701000Y-60468000D01*
X191193000Y-78925000D02*
X191193000Y-79250000D01*
X198443000Y-78925000D02*
X198443000Y-79250000D01*
X198443000Y-86175000D02*
X198443000Y-85850000D01*
X191193000Y-86175000D02*
X191193000Y-85850000D01*
X191193000Y-78925000D02*
X191518000Y-78925000D01*
X191193000Y-86175000D02*
X191518000Y-86175000D01*
X198443000Y-86175000D02*
X198118000Y-86175000D01*
X198443000Y-78925000D02*
X198118000Y-78925000D01*
X191193000Y-79250000D02*
X189768000Y-79250000D01*
X191262000Y-107416000D02*
X189712000Y-107416000D01*
X189712000Y-107416000D02*
X189712000Y-110516000D01*
X189712000Y-110516000D02*
X191262000Y-110516000D01*
X192532000Y-107696000D02*
X197612000Y-107696000D01*
X197612000Y-107696000D02*
X197612000Y-110236000D01*
X197612000Y-110236000D02*
X192532000Y-110236000D01*
X192532000Y-110236000D02*
X192532000Y-107696000D01*
X190387000Y-105311500D02*
X190387000Y-104111500D01*
X192137000Y-104111500D02*
X192137000Y-105311500D01*
X188210000Y-83698000D02*
G75*
G03X188210000Y-83698000I-250000J0D01*
G01*
X187310000Y-83998000D02*
X187310000Y-87298000D01*
X187310000Y-87298000D02*
X188610000Y-87298000D01*
X188610000Y-87298000D02*
X188610000Y-83998000D01*
X188610000Y-83998000D02*
X187310000Y-83998000D01*
X198400000Y-55906000D02*
X198400000Y-54356000D01*
X196850000Y-55906000D02*
X198400000Y-55906000D01*
X196850000Y-55906000D02*
X198400000Y-55906000D01*
X195580000Y-55626000D02*
X195580000Y-53086000D01*
X195580000Y-53086000D02*
X198120000Y-53086000D01*
X198120000Y-53086000D02*
X198120000Y-50546000D01*
X198120000Y-50546000D02*
X193040000Y-50546000D01*
X193040000Y-50546000D02*
X193040000Y-55626000D01*
X193040000Y-55626000D02*
X195580000Y-55626000D01*
X202701000Y-67548000D02*
X202701000Y-65548000D01*
X200651000Y-65548000D02*
X200651000Y-67548000D01*
X200651000Y-70120000D02*
X200651000Y-72120000D01*
X202701000Y-72120000D02*
X202701000Y-70120000D01*
X203191000Y-60468000D02*
X203191000Y-62468000D01*
X205241000Y-62468000D02*
X205241000Y-60468000D01*
X190658000Y-71282000D02*
X191358000Y-71282000D01*
X191358000Y-72482000D02*
X190658000Y-72482000D01*
X187360000Y-79598000D02*
X187360000Y-78898000D01*
X188560000Y-78898000D02*
X188560000Y-79598000D01*
X203108000Y-83662000D02*
X203108000Y-82962000D01*
X204308000Y-82962000D02*
X204308000Y-83662000D01*
X200822000Y-93314000D02*
X200822000Y-92614000D01*
X202022000Y-92614000D02*
X202022000Y-93314000D01*
X200244000Y-91344000D02*
X200244000Y-92044000D01*
X199044000Y-92044000D02*
X199044000Y-91344000D01*
X198466000Y-90328000D02*
X198466000Y-91028000D01*
X197266000Y-91028000D02*
X197266000Y-90328000D01*
X190588000Y-58666000D02*
X190588000Y-57666000D01*
X188888000Y-57666000D02*
X188888000Y-58666000D01*
D15*
X192976500Y-102235000D02*
X197040500Y-102235000D01*
X192976500Y-98425000D02*
X197040500Y-98425000D01*
X197040500Y-98425000D02*
X197040500Y-102235000D01*
X192976500Y-102108000D02*
X192976500Y-102235000D01*
X192976500Y-98425000D02*
X192976500Y-102108000D01*
X192976500Y-99822000D02*
X193484500Y-99822000D01*
X193484500Y-99822000D02*
X193484500Y-100838000D01*
X193484500Y-100838000D02*
X192976500Y-100838000D01*
D13*
X223139000Y-91821000D02*
X222631000Y-91821000D01*
X217805000Y-91821000D02*
X218313000Y-91821000D01*
D16*
X223172020Y-95123000D02*
X217822780Y-95123000D01*
X223172020Y-91821000D02*
X223172020Y-95123000D01*
X217822780Y-91821000D02*
X217822780Y-95123000D01*
X217805000Y-92964000D02*
X218313000Y-92964000D01*
X218313000Y-92964000D02*
X218313000Y-93980000D01*
X218313000Y-93980000D02*
X217805000Y-93980000D01*
D13*
X229235000Y-91821000D02*
X228727000Y-91821000D01*
X223901000Y-91821000D02*
X224409000Y-91821000D01*
D16*
X229268020Y-95123000D02*
X223918780Y-95123000D01*
X229268020Y-91821000D02*
X229268020Y-95123000D01*
X223918780Y-91821000D02*
X223918780Y-95123000D01*
X223901000Y-92964000D02*
X224409000Y-92964000D01*
X224409000Y-92964000D02*
X224409000Y-93980000D01*
X224409000Y-93980000D02*
X223901000Y-93980000D01*
D13*
X223139000Y-100457000D02*
X222631000Y-100457000D01*
X217805000Y-100457000D02*
X218313000Y-100457000D01*
D16*
X223172020Y-103759000D02*
X217822780Y-103759000D01*
X223172020Y-100457000D02*
X223172020Y-103759000D01*
X217822780Y-100457000D02*
X217822780Y-103759000D01*
X217805000Y-101600000D02*
X218313000Y-101600000D01*
X218313000Y-101600000D02*
X218313000Y-102616000D01*
X218313000Y-102616000D02*
X217805000Y-102616000D01*
D13*
X229235000Y-100457000D02*
X228727000Y-100457000D01*
X223901000Y-100457000D02*
X224409000Y-100457000D01*
D16*
X229268020Y-103759000D02*
X223918780Y-103759000D01*
X229268020Y-100457000D02*
X229268020Y-103759000D01*
X223918780Y-100457000D02*
X223918780Y-103759000D01*
X223901000Y-101600000D02*
X224409000Y-101600000D01*
X224409000Y-101600000D02*
X224409000Y-102616000D01*
X224409000Y-102616000D02*
X223901000Y-102616000D01*
D13*
X223901000Y-87503000D02*
X224409000Y-87503000D01*
X229235000Y-87503000D02*
X228727000Y-87503000D01*
D16*
X223867980Y-84201000D02*
X229217220Y-84201000D01*
X223867980Y-87503000D02*
X223867980Y-84201000D01*
X229217220Y-87503000D02*
X229217220Y-84201000D01*
X229235000Y-86360000D02*
X228727000Y-86360000D01*
X228727000Y-86360000D02*
X228727000Y-85344000D01*
X228727000Y-85344000D02*
X229235000Y-85344000D01*
D13*
X217805000Y-87503000D02*
X218313000Y-87503000D01*
X223139000Y-87503000D02*
X222631000Y-87503000D01*
D16*
X217771980Y-84201000D02*
X223121220Y-84201000D01*
X217771980Y-87503000D02*
X217771980Y-84201000D01*
X223121220Y-87503000D02*
X223121220Y-84201000D01*
X223139000Y-86360000D02*
X222631000Y-86360000D01*
X222631000Y-86360000D02*
X222631000Y-85344000D01*
X222631000Y-85344000D02*
X223139000Y-85344000D01*
D13*
X217805000Y-79121000D02*
X218313000Y-79121000D01*
X223139000Y-79121000D02*
X222631000Y-79121000D01*
D16*
X217771980Y-75819000D02*
X223121220Y-75819000D01*
X217771980Y-79121000D02*
X217771980Y-75819000D01*
X223121220Y-79121000D02*
X223121220Y-75819000D01*
X223139000Y-77978000D02*
X222631000Y-77978000D01*
X222631000Y-77978000D02*
X222631000Y-76962000D01*
X222631000Y-76962000D02*
X223139000Y-76962000D01*
D13*
X223901000Y-79121000D02*
X224409000Y-79121000D01*
X229235000Y-79121000D02*
X228727000Y-79121000D01*
D16*
X223867980Y-75819000D02*
X229217220Y-75819000D01*
X223867980Y-79121000D02*
X223867980Y-75819000D01*
X229217220Y-79121000D02*
X229217220Y-75819000D01*
X229235000Y-77978000D02*
X228727000Y-77978000D01*
X228727000Y-77978000D02*
X228727000Y-76962000D01*
X228727000Y-76962000D02*
X229235000Y-76962000D01*
D13*
X229235000Y-59309000D02*
X228727000Y-59309000D01*
X223901000Y-59309000D02*
X224409000Y-59309000D01*
D16*
X229268020Y-62611000D02*
X223918780Y-62611000D01*
X229268020Y-59309000D02*
X229268020Y-62611000D01*
X223918780Y-59309000D02*
X223918780Y-62611000D01*
X223901000Y-60452000D02*
X224409000Y-60452000D01*
X224409000Y-60452000D02*
X224409000Y-61468000D01*
X224409000Y-61468000D02*
X223901000Y-61468000D01*
D13*
X223139000Y-59309000D02*
X222631000Y-59309000D01*
X217805000Y-59309000D02*
X218313000Y-59309000D01*
D16*
X223172020Y-62611000D02*
X217822780Y-62611000D01*
X223172020Y-59309000D02*
X223172020Y-62611000D01*
X217822780Y-59309000D02*
X217822780Y-62611000D01*
X217805000Y-60452000D02*
X218313000Y-60452000D01*
X218313000Y-60452000D02*
X218313000Y-61468000D01*
X218313000Y-61468000D02*
X217805000Y-61468000D01*
D13*
X223139000Y-67437000D02*
X222631000Y-67437000D01*
X217805000Y-67437000D02*
X218313000Y-67437000D01*
D16*
X223172020Y-70739000D02*
X217822780Y-70739000D01*
X223172020Y-67437000D02*
X223172020Y-70739000D01*
X217822780Y-67437000D02*
X217822780Y-70739000D01*
X217805000Y-68580000D02*
X218313000Y-68580000D01*
X218313000Y-68580000D02*
X218313000Y-69596000D01*
X218313000Y-69596000D02*
X217805000Y-69596000D01*
D13*
X229235000Y-67437000D02*
X228727000Y-67437000D01*
X223901000Y-67437000D02*
X224409000Y-67437000D01*
D16*
X229268020Y-70739000D02*
X223918780Y-70739000D01*
X229268020Y-67437000D02*
X229268020Y-70739000D01*
X223918780Y-67437000D02*
X223918780Y-70739000D01*
X223901000Y-68580000D02*
X224409000Y-68580000D01*
X224409000Y-68580000D02*
X224409000Y-69596000D01*
X224409000Y-69596000D02*
X223901000Y-69596000D01*
D13*
X200065000Y-98052000D02*
X200065000Y-99052000D01*
X198715000Y-99052000D02*
X198715000Y-98052000D01*
X194318000Y-88987000D02*
X195318000Y-88987000D01*
X195318000Y-90337000D02*
X194318000Y-90337000D01*
X214384000Y-102957000D02*
X215384000Y-102957000D01*
X215384000Y-104307000D02*
X214384000Y-104307000D01*
X204462000Y-96433000D02*
X203462000Y-96433000D01*
X203462000Y-95083000D02*
X204462000Y-95083000D01*
X186777000Y-73652000D02*
X186777000Y-72652000D01*
X188127000Y-72652000D02*
X188127000Y-73652000D01*
X194318000Y-91019000D02*
X195318000Y-91019000D01*
X195318000Y-92369000D02*
X194318000Y-92369000D01*
X233164000Y-86527000D02*
X232164000Y-86527000D01*
X232164000Y-85177000D02*
X233164000Y-85177000D01*
X214638000Y-92035000D02*
X215638000Y-92035000D01*
X215638000Y-93385000D02*
X214638000Y-93385000D01*
X204462000Y-98465000D02*
X203462000Y-98465000D01*
X203462000Y-97115000D02*
X204462000Y-97115000D01*
X194318000Y-93051000D02*
X195318000Y-93051000D01*
X195318000Y-94401000D02*
X194318000Y-94401000D01*
X233767000Y-64762000D02*
X233767000Y-63762000D01*
X235117000Y-63762000D02*
X235117000Y-64762000D01*
X204462000Y-101005000D02*
X203462000Y-101005000D01*
X203462000Y-99655000D02*
X204462000Y-99655000D01*
X190508000Y-73747000D02*
X191508000Y-73747000D01*
X191508000Y-75097000D02*
X190508000Y-75097000D01*
X205748000Y-86828000D02*
X206748000Y-86828000D01*
X206748000Y-88178000D02*
X205748000Y-88178000D01*
X205018000Y-90305000D02*
X205018000Y-91305000D01*
X203668000Y-91305000D02*
X203668000Y-90305000D01*
X214717000Y-76700000D02*
X214717000Y-75700000D01*
X216067000Y-75700000D02*
X216067000Y-76700000D01*
X208193000Y-77351000D02*
X208193000Y-78351000D01*
X206843000Y-78351000D02*
X206843000Y-77351000D01*
X206335000Y-67937000D02*
X206335000Y-66937000D01*
X207685000Y-66937000D02*
X207685000Y-67937000D01*
X210447000Y-73620000D02*
X211447000Y-73620000D01*
X211447000Y-74970000D02*
X210447000Y-74970000D01*
X196850000Y-70993000D02*
X199898000Y-70993000D01*
X199898000Y-70993000D02*
X199898000Y-63881000D01*
X199898000Y-63881000D02*
X196850000Y-63881000D01*
X193802000Y-70993000D02*
X193040000Y-70993000D01*
X193040000Y-70993000D02*
X190754000Y-69469000D01*
X190754000Y-69469000D02*
X190754000Y-65405000D01*
X190754000Y-65405000D02*
X193040000Y-63881000D01*
X193040000Y-63881000D02*
X193802000Y-63881000D01*
X233243381Y-78462095D02*
X232243381Y-78462095D01*
X232243381Y-78081142D01*
X232291000Y-77985904D01*
X232338619Y-77938285D01*
X232433857Y-77890666D01*
X232576714Y-77890666D01*
X232671952Y-77938285D01*
X232719571Y-77985904D01*
X232767190Y-78081142D01*
X232767190Y-78462095D01*
X232338619Y-77509714D02*
X232291000Y-77462095D01*
X232243381Y-77366857D01*
X232243381Y-77128761D01*
X232291000Y-77033523D01*
X232338619Y-76985904D01*
X232433857Y-76938285D01*
X232529095Y-76938285D01*
X232671952Y-76985904D01*
X233243381Y-77557333D01*
X233243381Y-76938285D01*
X207922905Y-56332381D02*
X207922905Y-55332381D01*
X208303858Y-55332381D01*
X208399096Y-55380000D01*
X208446715Y-55427619D01*
X208494334Y-55522857D01*
X208494334Y-55665714D01*
X208446715Y-55760952D01*
X208399096Y-55808571D01*
X208303858Y-55856190D01*
X207922905Y-55856190D01*
X208827667Y-55332381D02*
X209446715Y-55332381D01*
X209113381Y-55713333D01*
X209256239Y-55713333D01*
X209351477Y-55760952D01*
X209399096Y-55808571D01*
X209446715Y-55903810D01*
X209446715Y-56141905D01*
X209399096Y-56237143D01*
X209351477Y-56284762D01*
X209256239Y-56332381D01*
X208970524Y-56332381D01*
X208875286Y-56284762D01*
X208827667Y-56237143D01*
X219594134Y-54052743D02*
X219546515Y-54100362D01*
X219403658Y-54147981D01*
X219308420Y-54147981D01*
X219165562Y-54100362D01*
X219070324Y-54005124D01*
X219022705Y-53909886D01*
X218975086Y-53719410D01*
X218975086Y-53576552D01*
X219022705Y-53386076D01*
X219070324Y-53290838D01*
X219165562Y-53195600D01*
X219308420Y-53147981D01*
X219403658Y-53147981D01*
X219546515Y-53195600D01*
X219594134Y-53243219D01*
X219927467Y-53147981D02*
X220546515Y-53147981D01*
X220213181Y-53528933D01*
X220356039Y-53528933D01*
X220451277Y-53576552D01*
X220498896Y-53624171D01*
X220546515Y-53719410D01*
X220546515Y-53957505D01*
X220498896Y-54052743D01*
X220451277Y-54100362D01*
X220356039Y-54147981D01*
X220070324Y-54147981D01*
X219975086Y-54100362D01*
X219927467Y-54052743D01*
X189253905Y-93190381D02*
X189253905Y-92190381D01*
X189492000Y-92190381D01*
X189634858Y-92238000D01*
X189730096Y-92333238D01*
X189777715Y-92428476D01*
X189825334Y-92618952D01*
X189825334Y-92761810D01*
X189777715Y-92952286D01*
X189730096Y-93047524D01*
X189634858Y-93142762D01*
X189492000Y-93190381D01*
X189253905Y-93190381D01*
X190206286Y-92285619D02*
X190253905Y-92238000D01*
X190349143Y-92190381D01*
X190587239Y-92190381D01*
X190682477Y-92238000D01*
X190730096Y-92285619D01*
X190777715Y-92380857D01*
X190777715Y-92476095D01*
X190730096Y-92618952D01*
X190158667Y-93190381D01*
X190777715Y-93190381D01*
X204874905Y-69540381D02*
X204874905Y-68540381D01*
X205255858Y-68540381D01*
X205351096Y-68588000D01*
X205398715Y-68635619D01*
X205446334Y-68730857D01*
X205446334Y-68873714D01*
X205398715Y-68968952D01*
X205351096Y-69016571D01*
X205255858Y-69064190D01*
X204874905Y-69064190D01*
X206351096Y-68540381D02*
X205874905Y-68540381D01*
X205827286Y-69016571D01*
X205874905Y-68968952D01*
X205970143Y-68921333D01*
X206208239Y-68921333D01*
X206303477Y-68968952D01*
X206351096Y-69016571D01*
X206398715Y-69111810D01*
X206398715Y-69349905D01*
X206351096Y-69445143D01*
X206303477Y-69492762D01*
X206208239Y-69540381D01*
X205970143Y-69540381D01*
X205874905Y-69492762D01*
X205827286Y-69445143D01*
X186967905Y-56713381D02*
X186967905Y-55713381D01*
X187348858Y-55713381D01*
X187444096Y-55761000D01*
X187491715Y-55808619D01*
X187539334Y-55903857D01*
X187539334Y-56046714D01*
X187491715Y-56141952D01*
X187444096Y-56189571D01*
X187348858Y-56237190D01*
X186967905Y-56237190D01*
X188396477Y-55713381D02*
X188206000Y-55713381D01*
X188110762Y-55761000D01*
X188063143Y-55808619D01*
X187967905Y-55951476D01*
X187920286Y-56141952D01*
X187920286Y-56522905D01*
X187967905Y-56618143D01*
X188015524Y-56665762D01*
X188110762Y-56713381D01*
X188301239Y-56713381D01*
X188396477Y-56665762D01*
X188444096Y-56618143D01*
X188491715Y-56522905D01*
X188491715Y-56284810D01*
X188444096Y-56189571D01*
X188396477Y-56141952D01*
X188301239Y-56094333D01*
X188110762Y-56094333D01*
X188015524Y-56141952D01*
X187967905Y-56189571D01*
X187920286Y-56284810D01*
D14*
X194261619Y-60718095D02*
X195084095Y-60718095D01*
X195180857Y-60669714D01*
X195229238Y-60621333D01*
X195277619Y-60524571D01*
X195277619Y-60331048D01*
X195229238Y-60234286D01*
X195180857Y-60185905D01*
X195084095Y-60137524D01*
X194261619Y-60137524D01*
X194358381Y-59702095D02*
X194310000Y-59653714D01*
X194261619Y-59556952D01*
X194261619Y-59315048D01*
X194310000Y-59218286D01*
X194358381Y-59169905D01*
X194455143Y-59121524D01*
X194551905Y-59121524D01*
X194697048Y-59169905D01*
X195277619Y-59750476D01*
X195277619Y-59121524D01*
D13*
X212260571Y-70552285D02*
X210760571Y-70552285D01*
X212117714Y-68980856D02*
X212189143Y-69052285D01*
X212260571Y-69266571D01*
X212260571Y-69409428D01*
X212189143Y-69623713D01*
X212046286Y-69766571D01*
X211903429Y-69837999D01*
X211617714Y-69909428D01*
X211403429Y-69909428D01*
X211117714Y-69837999D01*
X210974857Y-69766571D01*
X210832000Y-69623713D01*
X210760571Y-69409428D01*
X210760571Y-69266571D01*
X210832000Y-69052285D01*
X210903429Y-68980856D01*
X211260571Y-67695142D02*
X212260571Y-67695142D01*
X210689143Y-68052285D02*
X211760571Y-68409428D01*
X211760571Y-67480856D01*
X211678571Y-79464285D02*
X210178571Y-79464285D01*
X211535714Y-77892856D02*
X211607143Y-77964285D01*
X211678571Y-78178571D01*
X211678571Y-78321428D01*
X211607143Y-78535713D01*
X211464286Y-78678571D01*
X211321429Y-78749999D01*
X211035714Y-78821428D01*
X210821429Y-78821428D01*
X210535714Y-78749999D01*
X210392857Y-78678571D01*
X210250000Y-78535713D01*
X210178571Y-78321428D01*
X210178571Y-78178571D01*
X210250000Y-77964285D01*
X210321429Y-77892856D01*
X210178571Y-77392856D02*
X210178571Y-76464285D01*
X210750000Y-76964285D01*
X210750000Y-76749999D01*
X210821429Y-76607142D01*
X210892857Y-76535713D01*
X211035714Y-76464285D01*
X211392857Y-76464285D01*
X211535714Y-76535713D01*
X211607143Y-76607142D01*
X211678571Y-76749999D01*
X211678571Y-77178571D01*
X211607143Y-77321428D01*
X211535714Y-77392856D01*
X217086571Y-99508285D02*
X215586571Y-99508285D01*
X216943714Y-97936856D02*
X217015143Y-98008285D01*
X217086571Y-98222571D01*
X217086571Y-98365428D01*
X217015143Y-98579713D01*
X216872286Y-98722571D01*
X216729429Y-98793999D01*
X216443714Y-98865428D01*
X216229429Y-98865428D01*
X215943714Y-98793999D01*
X215800857Y-98722571D01*
X215658000Y-98579713D01*
X215586571Y-98365428D01*
X215586571Y-98222571D01*
X215658000Y-98008285D01*
X215729429Y-97936856D01*
X215729429Y-97365428D02*
X215658000Y-97293999D01*
X215586571Y-97151142D01*
X215586571Y-96793999D01*
X215658000Y-96651142D01*
X215729429Y-96579713D01*
X215872286Y-96508285D01*
X216015143Y-96508285D01*
X216229429Y-96579713D01*
X217086571Y-97436856D01*
X217086571Y-96508285D01*
X207621143Y-95670666D02*
X207668762Y-95718285D01*
X207716381Y-95861142D01*
X207716381Y-95956380D01*
X207668762Y-96099238D01*
X207573524Y-96194476D01*
X207478286Y-96242095D01*
X207287810Y-96289714D01*
X207144952Y-96289714D01*
X206954476Y-96242095D01*
X206859238Y-96194476D01*
X206764000Y-96099238D01*
X206716381Y-95956380D01*
X206716381Y-95861142D01*
X206764000Y-95718285D01*
X206811619Y-95670666D01*
X207716381Y-94718285D02*
X207716381Y-95289714D01*
X207716381Y-95004000D02*
X206716381Y-95004000D01*
X206859238Y-95099238D01*
X206954476Y-95194476D01*
X207002095Y-95289714D01*
X213701334Y-92813143D02*
X213653715Y-92860762D01*
X213510858Y-92908381D01*
X213415620Y-92908381D01*
X213272762Y-92860762D01*
X213177524Y-92765524D01*
X213129905Y-92670286D01*
X213082286Y-92479810D01*
X213082286Y-92336952D01*
X213129905Y-92146476D01*
X213177524Y-92051238D01*
X213272762Y-91956000D01*
X213415620Y-91908381D01*
X213510858Y-91908381D01*
X213653715Y-91956000D01*
X213701334Y-92003619D01*
X214082286Y-92003619D02*
X214129905Y-91956000D01*
X214225143Y-91908381D01*
X214463239Y-91908381D01*
X214558477Y-91956000D01*
X214606096Y-92003619D01*
X214653715Y-92098857D01*
X214653715Y-92194095D01*
X214606096Y-92336952D01*
X214034667Y-92908381D01*
X214653715Y-92908381D01*
X209272143Y-65444666D02*
X209319762Y-65492285D01*
X209367381Y-65635142D01*
X209367381Y-65730380D01*
X209319762Y-65873238D01*
X209224524Y-65968476D01*
X209129286Y-66016095D01*
X208938810Y-66063714D01*
X208795952Y-66063714D01*
X208605476Y-66016095D01*
X208510238Y-65968476D01*
X208415000Y-65873238D01*
X208367381Y-65730380D01*
X208367381Y-65635142D01*
X208415000Y-65492285D01*
X208462619Y-65444666D01*
X208367381Y-64587523D02*
X208367381Y-64778000D01*
X208415000Y-64873238D01*
X208462619Y-64920857D01*
X208605476Y-65016095D01*
X208795952Y-65063714D01*
X209176905Y-65063714D01*
X209272143Y-65016095D01*
X209319762Y-64968476D01*
X209367381Y-64873238D01*
X209367381Y-64682761D01*
X209319762Y-64587523D01*
X209272143Y-64539904D01*
X209176905Y-64492285D01*
X208938810Y-64492285D01*
X208843571Y-64539904D01*
X208795952Y-64587523D01*
X208748333Y-64682761D01*
X208748333Y-64873238D01*
X208795952Y-64968476D01*
X208843571Y-65016095D01*
X208938810Y-65063714D01*
X213447334Y-88622143D02*
X213399715Y-88669762D01*
X213256858Y-88717381D01*
X213161620Y-88717381D01*
X213018762Y-88669762D01*
X212923524Y-88574524D01*
X212875905Y-88479286D01*
X212828286Y-88288810D01*
X212828286Y-88145952D01*
X212875905Y-87955476D01*
X212923524Y-87860238D01*
X213018762Y-87765000D01*
X213161620Y-87717381D01*
X213256858Y-87717381D01*
X213399715Y-87765000D01*
X213447334Y-87812619D01*
X214018762Y-88145952D02*
X213923524Y-88098333D01*
X213875905Y-88050714D01*
X213828286Y-87955476D01*
X213828286Y-87907857D01*
X213875905Y-87812619D01*
X213923524Y-87765000D01*
X214018762Y-87717381D01*
X214209239Y-87717381D01*
X214304477Y-87765000D01*
X214352096Y-87812619D01*
X214399715Y-87907857D01*
X214399715Y-87955476D01*
X214352096Y-88050714D01*
X214304477Y-88098333D01*
X214209239Y-88145952D01*
X214018762Y-88145952D01*
X213923524Y-88193571D01*
X213875905Y-88241190D01*
X213828286Y-88336429D01*
X213828286Y-88526905D01*
X213875905Y-88622143D01*
X213923524Y-88669762D01*
X214018762Y-88717381D01*
X214209239Y-88717381D01*
X214304477Y-88669762D01*
X214352096Y-88622143D01*
X214399715Y-88526905D01*
X214399715Y-88336429D01*
X214352096Y-88241190D01*
X214304477Y-88193571D01*
X214209239Y-88145952D01*
X208857143Y-82166666D02*
X208904762Y-82214285D01*
X208952381Y-82357142D01*
X208952381Y-82452380D01*
X208904762Y-82595238D01*
X208809524Y-82690476D01*
X208714286Y-82738095D01*
X208523810Y-82785714D01*
X208380952Y-82785714D01*
X208190476Y-82738095D01*
X208095238Y-82690476D01*
X208000000Y-82595238D01*
X207952381Y-82452380D01*
X207952381Y-82357142D01*
X208000000Y-82214285D01*
X208047619Y-82166666D01*
X208952381Y-81690476D02*
X208952381Y-81500000D01*
X208904762Y-81404761D01*
X208857143Y-81357142D01*
X208714286Y-81261904D01*
X208523810Y-81214285D01*
X208142857Y-81214285D01*
X208047619Y-81261904D01*
X208000000Y-81309523D01*
X207952381Y-81404761D01*
X207952381Y-81595238D01*
X208000000Y-81690476D01*
X208047619Y-81738095D01*
X208142857Y-81785714D01*
X208380952Y-81785714D01*
X208476190Y-81738095D01*
X208523810Y-81690476D01*
X208571429Y-81595238D01*
X208571429Y-81404761D01*
X208523810Y-81309523D01*
X208476190Y-81261904D01*
X208380952Y-81214285D01*
X213479143Y-59031143D02*
X213431524Y-59078762D01*
X213288667Y-59126381D01*
X213193429Y-59126381D01*
X213050571Y-59078762D01*
X212955333Y-58983524D01*
X212907714Y-58888286D01*
X212860095Y-58697810D01*
X212860095Y-58554952D01*
X212907714Y-58364476D01*
X212955333Y-58269238D01*
X213050571Y-58174000D01*
X213193429Y-58126381D01*
X213288667Y-58126381D01*
X213431524Y-58174000D01*
X213479143Y-58221619D01*
X214431524Y-59126381D02*
X213860095Y-59126381D01*
X214145809Y-59126381D02*
X214145809Y-58126381D01*
X214050571Y-58269238D01*
X213955333Y-58364476D01*
X213860095Y-58412095D01*
X215383905Y-59126381D02*
X214812476Y-59126381D01*
X215098190Y-59126381D02*
X215098190Y-58126381D01*
X215002952Y-58269238D01*
X214907714Y-58364476D01*
X214812476Y-58412095D01*
X203303143Y-83954857D02*
X203350762Y-84002476D01*
X203398381Y-84145333D01*
X203398381Y-84240571D01*
X203350762Y-84383429D01*
X203255524Y-84478667D01*
X203160286Y-84526286D01*
X202969810Y-84573905D01*
X202826952Y-84573905D01*
X202636476Y-84526286D01*
X202541238Y-84478667D01*
X202446000Y-84383429D01*
X202398381Y-84240571D01*
X202398381Y-84145333D01*
X202446000Y-84002476D01*
X202493619Y-83954857D01*
X203398381Y-83002476D02*
X203398381Y-83573905D01*
X203398381Y-83288191D02*
X202398381Y-83288191D01*
X202541238Y-83383429D01*
X202636476Y-83478667D01*
X202684095Y-83573905D01*
X202398381Y-82669143D02*
X202398381Y-82050095D01*
X202779333Y-82383429D01*
X202779333Y-82240571D01*
X202826952Y-82145333D01*
X202874571Y-82097714D01*
X202969810Y-82050095D01*
X203207905Y-82050095D01*
X203303143Y-82097714D01*
X203350762Y-82145333D01*
X203398381Y-82240571D01*
X203398381Y-82526286D01*
X203350762Y-82621524D01*
X203303143Y-82669143D01*
X201033143Y-59158143D02*
X200985524Y-59205762D01*
X200842667Y-59253381D01*
X200747429Y-59253381D01*
X200604571Y-59205762D01*
X200509333Y-59110524D01*
X200461714Y-59015286D01*
X200414095Y-58824810D01*
X200414095Y-58681952D01*
X200461714Y-58491476D01*
X200509333Y-58396238D01*
X200604571Y-58301000D01*
X200747429Y-58253381D01*
X200842667Y-58253381D01*
X200985524Y-58301000D01*
X201033143Y-58348619D01*
X201985524Y-59253381D02*
X201414095Y-59253381D01*
X201699809Y-59253381D02*
X201699809Y-58253381D01*
X201604571Y-58396238D01*
X201509333Y-58491476D01*
X201414095Y-58539095D01*
X202556952Y-58681952D02*
X202461714Y-58634333D01*
X202414095Y-58586714D01*
X202366476Y-58491476D01*
X202366476Y-58443857D01*
X202414095Y-58348619D01*
X202461714Y-58301000D01*
X202556952Y-58253381D01*
X202747429Y-58253381D01*
X202842667Y-58301000D01*
X202890286Y-58348619D01*
X202937905Y-58443857D01*
X202937905Y-58491476D01*
X202890286Y-58586714D01*
X202842667Y-58634333D01*
X202747429Y-58681952D01*
X202556952Y-58681952D01*
X202461714Y-58729571D01*
X202414095Y-58777190D01*
X202366476Y-58872429D01*
X202366476Y-59062905D01*
X202414095Y-59158143D01*
X202461714Y-59205762D01*
X202556952Y-59253381D01*
X202747429Y-59253381D01*
X202842667Y-59205762D01*
X202890286Y-59158143D01*
X202937905Y-59062905D01*
X202937905Y-58872429D01*
X202890286Y-58777190D01*
X202842667Y-58729571D01*
X202747429Y-58681952D01*
X193841810Y-82494381D02*
X193841810Y-81494381D01*
X194889429Y-82399143D02*
X194841810Y-82446762D01*
X194698953Y-82494381D01*
X194603715Y-82494381D01*
X194460857Y-82446762D01*
X194365619Y-82351524D01*
X194318000Y-82256286D01*
X194270381Y-82065810D01*
X194270381Y-81922952D01*
X194318000Y-81732476D01*
X194365619Y-81637238D01*
X194460857Y-81542000D01*
X194603715Y-81494381D01*
X194698953Y-81494381D01*
X194841810Y-81542000D01*
X194889429Y-81589619D01*
X195794191Y-81494381D02*
X195318000Y-81494381D01*
X195270381Y-81970571D01*
X195318000Y-81922952D01*
X195413238Y-81875333D01*
X195651334Y-81875333D01*
X195746572Y-81922952D01*
X195794191Y-81970571D01*
X195841810Y-82065810D01*
X195841810Y-82303905D01*
X195794191Y-82399143D01*
X195746572Y-82446762D01*
X195651334Y-82494381D01*
X195413238Y-82494381D01*
X195318000Y-82446762D01*
X195270381Y-82399143D01*
X193317905Y-107259381D02*
X193317905Y-106259381D01*
X193698858Y-106259381D01*
X193794096Y-106307000D01*
X193841715Y-106354619D01*
X193889334Y-106449857D01*
X193889334Y-106592714D01*
X193841715Y-106687952D01*
X193794096Y-106735571D01*
X193698858Y-106783190D01*
X193317905Y-106783190D01*
X194841715Y-107259381D02*
X194270286Y-107259381D01*
X194556000Y-107259381D02*
X194556000Y-106259381D01*
X194460762Y-106402238D01*
X194365524Y-106497476D01*
X194270286Y-106545095D01*
X193365381Y-105576666D02*
X192889190Y-105910000D01*
X193365381Y-106148095D02*
X192365381Y-106148095D01*
X192365381Y-105767142D01*
X192413000Y-105671904D01*
X192460619Y-105624285D01*
X192555857Y-105576666D01*
X192698714Y-105576666D01*
X192793952Y-105624285D01*
X192841571Y-105671904D01*
X192889190Y-105767142D01*
X192889190Y-106148095D01*
X193365381Y-104624285D02*
X193365381Y-105195714D01*
X193365381Y-104910000D02*
X192365381Y-104910000D01*
X192508238Y-105005238D01*
X192603476Y-105100476D01*
X192651095Y-105195714D01*
X187936190Y-88614191D02*
X188412381Y-88614191D01*
X187412381Y-88947524D02*
X187936190Y-88614191D01*
X187412381Y-88280857D01*
X188412381Y-87423714D02*
X188412381Y-87995143D01*
X188412381Y-87709429D02*
X187412381Y-87709429D01*
X187555238Y-87804667D01*
X187650476Y-87899905D01*
X187698095Y-87995143D01*
X190777905Y-54046381D02*
X190777905Y-53046381D01*
X191158858Y-53046381D01*
X191254096Y-53094000D01*
X191301715Y-53141619D01*
X191349334Y-53236857D01*
X191349334Y-53379714D01*
X191301715Y-53474952D01*
X191254096Y-53522571D01*
X191158858Y-53570190D01*
X190777905Y-53570190D01*
X192206477Y-53379714D02*
X192206477Y-54046381D01*
X191968381Y-52998762D02*
X191730286Y-53713048D01*
X192349334Y-53713048D01*
X203857143Y-66666666D02*
X203904762Y-66714285D01*
X203952381Y-66857142D01*
X203952381Y-66952380D01*
X203904762Y-67095238D01*
X203809524Y-67190476D01*
X203714286Y-67238095D01*
X203523810Y-67285714D01*
X203380952Y-67285714D01*
X203190476Y-67238095D01*
X203095238Y-67190476D01*
X203000000Y-67095238D01*
X202952381Y-66952380D01*
X202952381Y-66857142D01*
X203000000Y-66714285D01*
X203047619Y-66666666D01*
X203285714Y-65809523D02*
X203952381Y-65809523D01*
X202904762Y-66047619D02*
X203619048Y-66285714D01*
X203619048Y-65666666D01*
X199733143Y-71286666D02*
X199780762Y-71334285D01*
X199828381Y-71477142D01*
X199828381Y-71572380D01*
X199780762Y-71715238D01*
X199685524Y-71810476D01*
X199590286Y-71858095D01*
X199399810Y-71905714D01*
X199256952Y-71905714D01*
X199066476Y-71858095D01*
X198971238Y-71810476D01*
X198876000Y-71715238D01*
X198828381Y-71572380D01*
X198828381Y-71477142D01*
X198876000Y-71334285D01*
X198923619Y-71286666D01*
X198828381Y-70381904D02*
X198828381Y-70858095D01*
X199304571Y-70905714D01*
X199256952Y-70858095D01*
X199209333Y-70762857D01*
X199209333Y-70524761D01*
X199256952Y-70429523D01*
X199304571Y-70381904D01*
X199399810Y-70334285D01*
X199637905Y-70334285D01*
X199733143Y-70381904D01*
X199780762Y-70429523D01*
X199828381Y-70524761D01*
X199828381Y-70762857D01*
X199780762Y-70858095D01*
X199733143Y-70905714D01*
X206478143Y-62110857D02*
X206525762Y-62158476D01*
X206573381Y-62301333D01*
X206573381Y-62396571D01*
X206525762Y-62539429D01*
X206430524Y-62634667D01*
X206335286Y-62682286D01*
X206144810Y-62729905D01*
X206001952Y-62729905D01*
X205811476Y-62682286D01*
X205716238Y-62634667D01*
X205621000Y-62539429D01*
X205573381Y-62396571D01*
X205573381Y-62301333D01*
X205621000Y-62158476D01*
X205668619Y-62110857D01*
X206573381Y-61158476D02*
X206573381Y-61729905D01*
X206573381Y-61444191D02*
X205573381Y-61444191D01*
X205716238Y-61539429D01*
X205811476Y-61634667D01*
X205859095Y-61729905D01*
X206573381Y-60682286D02*
X206573381Y-60491810D01*
X206525762Y-60396571D01*
X206478143Y-60348952D01*
X206335286Y-60253714D01*
X206144810Y-60206095D01*
X205763857Y-60206095D01*
X205668619Y-60253714D01*
X205621000Y-60301333D01*
X205573381Y-60396571D01*
X205573381Y-60587048D01*
X205621000Y-60682286D01*
X205668619Y-60729905D01*
X205763857Y-60777524D01*
X206001952Y-60777524D01*
X206097190Y-60729905D01*
X206144810Y-60682286D01*
X206192429Y-60587048D01*
X206192429Y-60396571D01*
X206144810Y-60301333D01*
X206097190Y-60253714D01*
X206001952Y-60206095D01*
X189952334Y-70969143D02*
X189904715Y-71016762D01*
X189761858Y-71064381D01*
X189666620Y-71064381D01*
X189523762Y-71016762D01*
X189428524Y-70921524D01*
X189380905Y-70826286D01*
X189333286Y-70635810D01*
X189333286Y-70492952D01*
X189380905Y-70302476D01*
X189428524Y-70207238D01*
X189523762Y-70112000D01*
X189666620Y-70064381D01*
X189761858Y-70064381D01*
X189904715Y-70112000D01*
X189952334Y-70159619D01*
X190285667Y-70064381D02*
X190952334Y-70064381D01*
X190523762Y-71064381D01*
X189587143Y-78620857D02*
X189634762Y-78668476D01*
X189682381Y-78811333D01*
X189682381Y-78906571D01*
X189634762Y-79049429D01*
X189539524Y-79144667D01*
X189444286Y-79192286D01*
X189253810Y-79239905D01*
X189110952Y-79239905D01*
X188920476Y-79192286D01*
X188825238Y-79144667D01*
X188730000Y-79049429D01*
X188682381Y-78906571D01*
X188682381Y-78811333D01*
X188730000Y-78668476D01*
X188777619Y-78620857D01*
X189682381Y-77668476D02*
X189682381Y-78239905D01*
X189682381Y-77954191D02*
X188682381Y-77954191D01*
X188825238Y-78049429D01*
X188920476Y-78144667D01*
X188968095Y-78239905D01*
X188682381Y-77049429D02*
X188682381Y-76954190D01*
X188730000Y-76858952D01*
X188777619Y-76811333D01*
X188872857Y-76763714D01*
X189063333Y-76716095D01*
X189301429Y-76716095D01*
X189491905Y-76763714D01*
X189587143Y-76811333D01*
X189634762Y-76858952D01*
X189682381Y-76954190D01*
X189682381Y-77049429D01*
X189634762Y-77144667D01*
X189587143Y-77192286D01*
X189491905Y-77239905D01*
X189301429Y-77287524D01*
X189063333Y-77287524D01*
X188872857Y-77239905D01*
X188777619Y-77192286D01*
X188730000Y-77144667D01*
X188682381Y-77049429D01*
X202165143Y-83954857D02*
X202212762Y-84002476D01*
X202260381Y-84145333D01*
X202260381Y-84240571D01*
X202212762Y-84383429D01*
X202117524Y-84478667D01*
X202022286Y-84526286D01*
X201831810Y-84573905D01*
X201688952Y-84573905D01*
X201498476Y-84526286D01*
X201403238Y-84478667D01*
X201308000Y-84383429D01*
X201260381Y-84240571D01*
X201260381Y-84145333D01*
X201308000Y-84002476D01*
X201355619Y-83954857D01*
X202260381Y-83002476D02*
X202260381Y-83573905D01*
X202260381Y-83288191D02*
X201260381Y-83288191D01*
X201403238Y-83383429D01*
X201498476Y-83478667D01*
X201546095Y-83573905D01*
X201355619Y-82621524D02*
X201308000Y-82573905D01*
X201260381Y-82478667D01*
X201260381Y-82240571D01*
X201308000Y-82145333D01*
X201355619Y-82097714D01*
X201450857Y-82050095D01*
X201546095Y-82050095D01*
X201688952Y-82097714D01*
X202260381Y-82669143D01*
X202260381Y-82050095D01*
X203176143Y-93860857D02*
X203223762Y-93908476D01*
X203271381Y-94051333D01*
X203271381Y-94146571D01*
X203223762Y-94289429D01*
X203128524Y-94384667D01*
X203033286Y-94432286D01*
X202842810Y-94479905D01*
X202699952Y-94479905D01*
X202509476Y-94432286D01*
X202414238Y-94384667D01*
X202319000Y-94289429D01*
X202271381Y-94146571D01*
X202271381Y-94051333D01*
X202319000Y-93908476D01*
X202366619Y-93860857D01*
X203271381Y-92908476D02*
X203271381Y-93479905D01*
X203271381Y-93194191D02*
X202271381Y-93194191D01*
X202414238Y-93289429D01*
X202509476Y-93384667D01*
X202557095Y-93479905D01*
X202604714Y-92051333D02*
X203271381Y-92051333D01*
X202223762Y-92289429D02*
X202938048Y-92527524D01*
X202938048Y-91908476D01*
X198731143Y-93860857D02*
X198778762Y-93908476D01*
X198826381Y-94051333D01*
X198826381Y-94146571D01*
X198778762Y-94289429D01*
X198683524Y-94384667D01*
X198588286Y-94432286D01*
X198397810Y-94479905D01*
X198254952Y-94479905D01*
X198064476Y-94432286D01*
X197969238Y-94384667D01*
X197874000Y-94289429D01*
X197826381Y-94146571D01*
X197826381Y-94051333D01*
X197874000Y-93908476D01*
X197921619Y-93860857D01*
X198826381Y-92908476D02*
X198826381Y-93479905D01*
X198826381Y-93194191D02*
X197826381Y-93194191D01*
X197969238Y-93289429D01*
X198064476Y-93384667D01*
X198112095Y-93479905D01*
X197826381Y-92003714D02*
X197826381Y-92479905D01*
X198302571Y-92527524D01*
X198254952Y-92479905D01*
X198207333Y-92384667D01*
X198207333Y-92146571D01*
X198254952Y-92051333D01*
X198302571Y-92003714D01*
X198397810Y-91956095D01*
X198635905Y-91956095D01*
X198731143Y-92003714D01*
X198778762Y-92051333D01*
X198826381Y-92146571D01*
X198826381Y-92384667D01*
X198778762Y-92479905D01*
X198731143Y-92527524D01*
X197223143Y-89257143D02*
X197175524Y-89304762D01*
X197032667Y-89352381D01*
X196937429Y-89352381D01*
X196794571Y-89304762D01*
X196699333Y-89209524D01*
X196651714Y-89114286D01*
X196604095Y-88923810D01*
X196604095Y-88780952D01*
X196651714Y-88590476D01*
X196699333Y-88495238D01*
X196794571Y-88400000D01*
X196937429Y-88352381D01*
X197032667Y-88352381D01*
X197175524Y-88400000D01*
X197223143Y-88447619D01*
X198175524Y-89352381D02*
X197604095Y-89352381D01*
X197889809Y-89352381D02*
X197889809Y-88352381D01*
X197794571Y-88495238D01*
X197699333Y-88590476D01*
X197604095Y-88638095D01*
X199032667Y-88352381D02*
X198842190Y-88352381D01*
X198746952Y-88400000D01*
X198699333Y-88447619D01*
X198604095Y-88590476D01*
X198556476Y-88780952D01*
X198556476Y-89161905D01*
X198604095Y-89257143D01*
X198651714Y-89304762D01*
X198746952Y-89352381D01*
X198937429Y-89352381D01*
X199032667Y-89304762D01*
X199080286Y-89257143D01*
X199127905Y-89161905D01*
X199127905Y-88923810D01*
X199080286Y-88828571D01*
X199032667Y-88780952D01*
X198937429Y-88733333D01*
X198746952Y-88733333D01*
X198651714Y-88780952D01*
X198604095Y-88828571D01*
X198556476Y-88923810D01*
X188571143Y-59062857D02*
X188618762Y-59110476D01*
X188666381Y-59253333D01*
X188666381Y-59348571D01*
X188618762Y-59491429D01*
X188523524Y-59586667D01*
X188428286Y-59634286D01*
X188237810Y-59681905D01*
X188094952Y-59681905D01*
X187904476Y-59634286D01*
X187809238Y-59586667D01*
X187714000Y-59491429D01*
X187666381Y-59348571D01*
X187666381Y-59253333D01*
X187714000Y-59110476D01*
X187761619Y-59062857D01*
X188666381Y-58110476D02*
X188666381Y-58681905D01*
X188666381Y-58396191D02*
X187666381Y-58396191D01*
X187809238Y-58491429D01*
X187904476Y-58586667D01*
X187952095Y-58681905D01*
X187666381Y-57777143D02*
X187666381Y-57110476D01*
X188666381Y-57539048D01*
D17*
X194137643Y-98815071D02*
X194137643Y-99740357D01*
X194192071Y-99849214D01*
X194246500Y-99903643D01*
X194355357Y-99958071D01*
X194573071Y-99958071D01*
X194681929Y-99903643D01*
X194736357Y-99849214D01*
X194790786Y-99740357D01*
X194790786Y-98815071D01*
X195226215Y-98815071D02*
X195933786Y-98815071D01*
X195552786Y-99250500D01*
X195716072Y-99250500D01*
X195824929Y-99304929D01*
X195879358Y-99359357D01*
X195933786Y-99468214D01*
X195933786Y-99740357D01*
X195879358Y-99849214D01*
X195824929Y-99903643D01*
X195716072Y-99958071D01*
X195389500Y-99958071D01*
X195280643Y-99903643D01*
X195226215Y-99849214D01*
X220236143Y-95113929D02*
X220127286Y-95059500D01*
X220018429Y-94950643D01*
X219855143Y-94787357D01*
X219746286Y-94732929D01*
X219637429Y-94732929D01*
X219691857Y-95005071D02*
X219583000Y-94950643D01*
X219474143Y-94841786D01*
X219419714Y-94624071D01*
X219419714Y-94243071D01*
X219474143Y-94025357D01*
X219583000Y-93916500D01*
X219691857Y-93862071D01*
X219909571Y-93862071D01*
X220018429Y-93916500D01*
X220127286Y-94025357D01*
X220181714Y-94243071D01*
X220181714Y-94624071D01*
X220127286Y-94841786D01*
X220018429Y-94950643D01*
X219909571Y-95005071D01*
X219691857Y-95005071D01*
X221270286Y-95005071D02*
X220617143Y-95005071D01*
X220943715Y-95005071D02*
X220943715Y-93862071D01*
X220834858Y-94025357D01*
X220726000Y-94134214D01*
X220617143Y-94188643D01*
X226078143Y-95113929D02*
X225969286Y-95059500D01*
X225860429Y-94950643D01*
X225697143Y-94787357D01*
X225588286Y-94732929D01*
X225479429Y-94732929D01*
X225533857Y-95005071D02*
X225425000Y-94950643D01*
X225316143Y-94841786D01*
X225261714Y-94624071D01*
X225261714Y-94243071D01*
X225316143Y-94025357D01*
X225425000Y-93916500D01*
X225533857Y-93862071D01*
X225751571Y-93862071D01*
X225860429Y-93916500D01*
X225969286Y-94025357D01*
X226023714Y-94243071D01*
X226023714Y-94624071D01*
X225969286Y-94841786D01*
X225860429Y-94950643D01*
X225751571Y-95005071D01*
X225533857Y-95005071D01*
X226459143Y-93970929D02*
X226513572Y-93916500D01*
X226622429Y-93862071D01*
X226894572Y-93862071D01*
X227003429Y-93916500D01*
X227057858Y-93970929D01*
X227112286Y-94079786D01*
X227112286Y-94188643D01*
X227057858Y-94351929D01*
X226404715Y-95005071D01*
X227112286Y-95005071D01*
X220363143Y-103749929D02*
X220254286Y-103695500D01*
X220145429Y-103586643D01*
X219982143Y-103423357D01*
X219873286Y-103368929D01*
X219764429Y-103368929D01*
X219818857Y-103641071D02*
X219710000Y-103586643D01*
X219601143Y-103477786D01*
X219546714Y-103260071D01*
X219546714Y-102879071D01*
X219601143Y-102661357D01*
X219710000Y-102552500D01*
X219818857Y-102498071D01*
X220036571Y-102498071D01*
X220145429Y-102552500D01*
X220254286Y-102661357D01*
X220308714Y-102879071D01*
X220308714Y-103260071D01*
X220254286Y-103477786D01*
X220145429Y-103586643D01*
X220036571Y-103641071D01*
X219818857Y-103641071D01*
X220689715Y-102498071D02*
X221397286Y-102498071D01*
X221016286Y-102933500D01*
X221179572Y-102933500D01*
X221288429Y-102987929D01*
X221342858Y-103042357D01*
X221397286Y-103151214D01*
X221397286Y-103423357D01*
X221342858Y-103532214D01*
X221288429Y-103586643D01*
X221179572Y-103641071D01*
X220853000Y-103641071D01*
X220744143Y-103586643D01*
X220689715Y-103532214D01*
X226459143Y-103749929D02*
X226350286Y-103695500D01*
X226241429Y-103586643D01*
X226078143Y-103423357D01*
X225969286Y-103368929D01*
X225860429Y-103368929D01*
X225914857Y-103641071D02*
X225806000Y-103586643D01*
X225697143Y-103477786D01*
X225642714Y-103260071D01*
X225642714Y-102879071D01*
X225697143Y-102661357D01*
X225806000Y-102552500D01*
X225914857Y-102498071D01*
X226132571Y-102498071D01*
X226241429Y-102552500D01*
X226350286Y-102661357D01*
X226404714Y-102879071D01*
X226404714Y-103260071D01*
X226350286Y-103477786D01*
X226241429Y-103586643D01*
X226132571Y-103641071D01*
X225914857Y-103641071D01*
X227384429Y-102879071D02*
X227384429Y-103641071D01*
X227112286Y-102443643D02*
X226840143Y-103260071D01*
X227547715Y-103260071D01*
X226459143Y-85461929D02*
X226350286Y-85407500D01*
X226241429Y-85298643D01*
X226078143Y-85135357D01*
X225969286Y-85080929D01*
X225860429Y-85080929D01*
X225914857Y-85353071D02*
X225806000Y-85298643D01*
X225697143Y-85189786D01*
X225642714Y-84972071D01*
X225642714Y-84591071D01*
X225697143Y-84373357D01*
X225806000Y-84264500D01*
X225914857Y-84210071D01*
X226132571Y-84210071D01*
X226241429Y-84264500D01*
X226350286Y-84373357D01*
X226404714Y-84591071D01*
X226404714Y-84972071D01*
X226350286Y-85189786D01*
X226241429Y-85298643D01*
X226132571Y-85353071D01*
X225914857Y-85353071D01*
X227438858Y-84210071D02*
X226894572Y-84210071D01*
X226840143Y-84754357D01*
X226894572Y-84699929D01*
X227003429Y-84645500D01*
X227275572Y-84645500D01*
X227384429Y-84699929D01*
X227438858Y-84754357D01*
X227493286Y-84863214D01*
X227493286Y-85135357D01*
X227438858Y-85244214D01*
X227384429Y-85298643D01*
X227275572Y-85353071D01*
X227003429Y-85353071D01*
X226894572Y-85298643D01*
X226840143Y-85244214D01*
X220236143Y-85461929D02*
X220127286Y-85407500D01*
X220018429Y-85298643D01*
X219855143Y-85135357D01*
X219746286Y-85080929D01*
X219637429Y-85080929D01*
X219691857Y-85353071D02*
X219583000Y-85298643D01*
X219474143Y-85189786D01*
X219419714Y-84972071D01*
X219419714Y-84591071D01*
X219474143Y-84373357D01*
X219583000Y-84264500D01*
X219691857Y-84210071D01*
X219909571Y-84210071D01*
X220018429Y-84264500D01*
X220127286Y-84373357D01*
X220181714Y-84591071D01*
X220181714Y-84972071D01*
X220127286Y-85189786D01*
X220018429Y-85298643D01*
X219909571Y-85353071D01*
X219691857Y-85353071D01*
X221161429Y-84210071D02*
X220943715Y-84210071D01*
X220834858Y-84264500D01*
X220780429Y-84318929D01*
X220671572Y-84482214D01*
X220617143Y-84699929D01*
X220617143Y-85135357D01*
X220671572Y-85244214D01*
X220726000Y-85298643D01*
X220834858Y-85353071D01*
X221052572Y-85353071D01*
X221161429Y-85298643D01*
X221215858Y-85244214D01*
X221270286Y-85135357D01*
X221270286Y-84863214D01*
X221215858Y-84754357D01*
X221161429Y-84699929D01*
X221052572Y-84645500D01*
X220834858Y-84645500D01*
X220726000Y-84699929D01*
X220671572Y-84754357D01*
X220617143Y-84863214D01*
X220363143Y-77206929D02*
X220254286Y-77152500D01*
X220145429Y-77043643D01*
X219982143Y-76880357D01*
X219873286Y-76825929D01*
X219764429Y-76825929D01*
X219818857Y-77098071D02*
X219710000Y-77043643D01*
X219601143Y-76934786D01*
X219546714Y-76717071D01*
X219546714Y-76336071D01*
X219601143Y-76118357D01*
X219710000Y-76009500D01*
X219818857Y-75955071D01*
X220036571Y-75955071D01*
X220145429Y-76009500D01*
X220254286Y-76118357D01*
X220308714Y-76336071D01*
X220308714Y-76717071D01*
X220254286Y-76934786D01*
X220145429Y-77043643D01*
X220036571Y-77098071D01*
X219818857Y-77098071D01*
X220689715Y-75955071D02*
X221451715Y-75955071D01*
X220961858Y-77098071D01*
X226459143Y-77206929D02*
X226350286Y-77152500D01*
X226241429Y-77043643D01*
X226078143Y-76880357D01*
X225969286Y-76825929D01*
X225860429Y-76825929D01*
X225914857Y-77098071D02*
X225806000Y-77043643D01*
X225697143Y-76934786D01*
X225642714Y-76717071D01*
X225642714Y-76336071D01*
X225697143Y-76118357D01*
X225806000Y-76009500D01*
X225914857Y-75955071D01*
X226132571Y-75955071D01*
X226241429Y-76009500D01*
X226350286Y-76118357D01*
X226404714Y-76336071D01*
X226404714Y-76717071D01*
X226350286Y-76934786D01*
X226241429Y-77043643D01*
X226132571Y-77098071D01*
X225914857Y-77098071D01*
X227057858Y-76444929D02*
X226949000Y-76390500D01*
X226894572Y-76336071D01*
X226840143Y-76227214D01*
X226840143Y-76172786D01*
X226894572Y-76063929D01*
X226949000Y-76009500D01*
X227057858Y-75955071D01*
X227275572Y-75955071D01*
X227384429Y-76009500D01*
X227438858Y-76063929D01*
X227493286Y-76172786D01*
X227493286Y-76227214D01*
X227438858Y-76336071D01*
X227384429Y-76390500D01*
X227275572Y-76444929D01*
X227057858Y-76444929D01*
X226949000Y-76499357D01*
X226894572Y-76553786D01*
X226840143Y-76662643D01*
X226840143Y-76880357D01*
X226894572Y-76989214D01*
X226949000Y-77043643D01*
X227057858Y-77098071D01*
X227275572Y-77098071D01*
X227384429Y-77043643D01*
X227438858Y-76989214D01*
X227493286Y-76880357D01*
X227493286Y-76662643D01*
X227438858Y-76553786D01*
X227384429Y-76499357D01*
X227275572Y-76444929D01*
X226205143Y-62601929D02*
X226096286Y-62547500D01*
X225987429Y-62438643D01*
X225824143Y-62275357D01*
X225715286Y-62220929D01*
X225606429Y-62220929D01*
X225660857Y-62493071D02*
X225552000Y-62438643D01*
X225443143Y-62329786D01*
X225388714Y-62112071D01*
X225388714Y-61731071D01*
X225443143Y-61513357D01*
X225552000Y-61404500D01*
X225660857Y-61350071D01*
X225878571Y-61350071D01*
X225987429Y-61404500D01*
X226096286Y-61513357D01*
X226150714Y-61731071D01*
X226150714Y-62112071D01*
X226096286Y-62329786D01*
X225987429Y-62438643D01*
X225878571Y-62493071D01*
X225660857Y-62493071D01*
X226695000Y-62493071D02*
X226912715Y-62493071D01*
X227021572Y-62438643D01*
X227076000Y-62384214D01*
X227184858Y-62220929D01*
X227239286Y-62003214D01*
X227239286Y-61567786D01*
X227184858Y-61458929D01*
X227130429Y-61404500D01*
X227021572Y-61350071D01*
X226803858Y-61350071D01*
X226695000Y-61404500D01*
X226640572Y-61458929D01*
X226586143Y-61567786D01*
X226586143Y-61839929D01*
X226640572Y-61948786D01*
X226695000Y-62003214D01*
X226803858Y-62057643D01*
X227021572Y-62057643D01*
X227130429Y-62003214D01*
X227184858Y-61948786D01*
X227239286Y-61839929D01*
X219818858Y-62601929D02*
X219710001Y-62547500D01*
X219601144Y-62438643D01*
X219437858Y-62275357D01*
X219329001Y-62220929D01*
X219220144Y-62220929D01*
X219274572Y-62493071D02*
X219165715Y-62438643D01*
X219056858Y-62329786D01*
X219002429Y-62112071D01*
X219002429Y-61731071D01*
X219056858Y-61513357D01*
X219165715Y-61404500D01*
X219274572Y-61350071D01*
X219492286Y-61350071D01*
X219601144Y-61404500D01*
X219710001Y-61513357D01*
X219764429Y-61731071D01*
X219764429Y-62112071D01*
X219710001Y-62329786D01*
X219601144Y-62438643D01*
X219492286Y-62493071D01*
X219274572Y-62493071D01*
X220853001Y-62493071D02*
X220199858Y-62493071D01*
X220526430Y-62493071D02*
X220526430Y-61350071D01*
X220417573Y-61513357D01*
X220308715Y-61622214D01*
X220199858Y-61676643D01*
X221560572Y-61350071D02*
X221669429Y-61350071D01*
X221778286Y-61404500D01*
X221832715Y-61458929D01*
X221887144Y-61567786D01*
X221941572Y-61785500D01*
X221941572Y-62057643D01*
X221887144Y-62275357D01*
X221832715Y-62384214D01*
X221778286Y-62438643D01*
X221669429Y-62493071D01*
X221560572Y-62493071D01*
X221451715Y-62438643D01*
X221397286Y-62384214D01*
X221342858Y-62275357D01*
X221288429Y-62057643D01*
X221288429Y-61785500D01*
X221342858Y-61567786D01*
X221397286Y-61458929D01*
X221451715Y-61404500D01*
X221560572Y-61350071D01*
X219818858Y-70729929D02*
X219710001Y-70675500D01*
X219601144Y-70566643D01*
X219437858Y-70403357D01*
X219329001Y-70348929D01*
X219220144Y-70348929D01*
X219274572Y-70621071D02*
X219165715Y-70566643D01*
X219056858Y-70457786D01*
X219002429Y-70240071D01*
X219002429Y-69859071D01*
X219056858Y-69641357D01*
X219165715Y-69532500D01*
X219274572Y-69478071D01*
X219492286Y-69478071D01*
X219601144Y-69532500D01*
X219710001Y-69641357D01*
X219764429Y-69859071D01*
X219764429Y-70240071D01*
X219710001Y-70457786D01*
X219601144Y-70566643D01*
X219492286Y-70621071D01*
X219274572Y-70621071D01*
X220853001Y-70621071D02*
X220199858Y-70621071D01*
X220526430Y-70621071D02*
X220526430Y-69478071D01*
X220417573Y-69641357D01*
X220308715Y-69750214D01*
X220199858Y-69804643D01*
X221941572Y-70621071D02*
X221288429Y-70621071D01*
X221615001Y-70621071D02*
X221615001Y-69478071D01*
X221506144Y-69641357D01*
X221397286Y-69750214D01*
X221288429Y-69804643D01*
X225787858Y-70729929D02*
X225679001Y-70675500D01*
X225570144Y-70566643D01*
X225406858Y-70403357D01*
X225298001Y-70348929D01*
X225189144Y-70348929D01*
X225243572Y-70621071D02*
X225134715Y-70566643D01*
X225025858Y-70457786D01*
X224971429Y-70240071D01*
X224971429Y-69859071D01*
X225025858Y-69641357D01*
X225134715Y-69532500D01*
X225243572Y-69478071D01*
X225461286Y-69478071D01*
X225570144Y-69532500D01*
X225679001Y-69641357D01*
X225733429Y-69859071D01*
X225733429Y-70240071D01*
X225679001Y-70457786D01*
X225570144Y-70566643D01*
X225461286Y-70621071D01*
X225243572Y-70621071D01*
X226822001Y-70621071D02*
X226168858Y-70621071D01*
X226495430Y-70621071D02*
X226495430Y-69478071D01*
X226386573Y-69641357D01*
X226277715Y-69750214D01*
X226168858Y-69804643D01*
X227257429Y-69586929D02*
X227311858Y-69532500D01*
X227420715Y-69478071D01*
X227692858Y-69478071D01*
X227801715Y-69532500D01*
X227856144Y-69586929D01*
X227910572Y-69695786D01*
X227910572Y-69804643D01*
X227856144Y-69967929D01*
X227203001Y-70621071D01*
X227910572Y-70621071D01*
D13*
X198445381Y-98718666D02*
X197969190Y-99052000D01*
X198445381Y-99290095D02*
X197445381Y-99290095D01*
X197445381Y-98909142D01*
X197493000Y-98813904D01*
X197540619Y-98766285D01*
X197635857Y-98718666D01*
X197778714Y-98718666D01*
X197873952Y-98766285D01*
X197921571Y-98813904D01*
X197969190Y-98909142D01*
X197969190Y-99290095D01*
X197540619Y-98337714D02*
X197493000Y-98290095D01*
X197445381Y-98194857D01*
X197445381Y-97956761D01*
X197493000Y-97861523D01*
X197540619Y-97813904D01*
X197635857Y-97766285D01*
X197731095Y-97766285D01*
X197873952Y-97813904D01*
X198445381Y-98385333D01*
X198445381Y-97766285D01*
X192619334Y-90241381D02*
X192286000Y-89765190D01*
X192047905Y-90241381D02*
X192047905Y-89241381D01*
X192428858Y-89241381D01*
X192524096Y-89289000D01*
X192571715Y-89336619D01*
X192619334Y-89431857D01*
X192619334Y-89574714D01*
X192571715Y-89669952D01*
X192524096Y-89717571D01*
X192428858Y-89765190D01*
X192047905Y-89765190D01*
X192952667Y-89241381D02*
X193571715Y-89241381D01*
X193238381Y-89622333D01*
X193381239Y-89622333D01*
X193476477Y-89669952D01*
X193524096Y-89717571D01*
X193571715Y-89812810D01*
X193571715Y-90050905D01*
X193524096Y-90146143D01*
X193476477Y-90193762D01*
X193381239Y-90241381D01*
X193095524Y-90241381D01*
X193000286Y-90193762D01*
X192952667Y-90146143D01*
X214717334Y-105984381D02*
X214384000Y-105508190D01*
X214145905Y-105984381D02*
X214145905Y-104984381D01*
X214526858Y-104984381D01*
X214622096Y-105032000D01*
X214669715Y-105079619D01*
X214717334Y-105174857D01*
X214717334Y-105317714D01*
X214669715Y-105412952D01*
X214622096Y-105460571D01*
X214526858Y-105508190D01*
X214145905Y-105508190D01*
X215574477Y-105317714D02*
X215574477Y-105984381D01*
X215336381Y-104936762D02*
X215098286Y-105651048D01*
X215717334Y-105651048D01*
X203795334Y-94813381D02*
X203462000Y-94337190D01*
X203223905Y-94813381D02*
X203223905Y-93813381D01*
X203604858Y-93813381D01*
X203700096Y-93861000D01*
X203747715Y-93908619D01*
X203795334Y-94003857D01*
X203795334Y-94146714D01*
X203747715Y-94241952D01*
X203700096Y-94289571D01*
X203604858Y-94337190D01*
X203223905Y-94337190D01*
X204700096Y-93813381D02*
X204223905Y-93813381D01*
X204176286Y-94289571D01*
X204223905Y-94241952D01*
X204319143Y-94194333D01*
X204557239Y-94194333D01*
X204652477Y-94241952D01*
X204700096Y-94289571D01*
X204747715Y-94384810D01*
X204747715Y-94622905D01*
X204700096Y-94718143D01*
X204652477Y-94765762D01*
X204557239Y-94813381D01*
X204319143Y-94813381D01*
X204223905Y-94765762D01*
X204176286Y-94718143D01*
X189428381Y-73318666D02*
X188952190Y-73652000D01*
X189428381Y-73890095D02*
X188428381Y-73890095D01*
X188428381Y-73509142D01*
X188476000Y-73413904D01*
X188523619Y-73366285D01*
X188618857Y-73318666D01*
X188761714Y-73318666D01*
X188856952Y-73366285D01*
X188904571Y-73413904D01*
X188952190Y-73509142D01*
X188952190Y-73890095D01*
X188428381Y-72985333D02*
X188428381Y-72318666D01*
X189428381Y-72747238D01*
X192492334Y-92273381D02*
X192159000Y-91797190D01*
X191920905Y-92273381D02*
X191920905Y-91273381D01*
X192301858Y-91273381D01*
X192397096Y-91321000D01*
X192444715Y-91368619D01*
X192492334Y-91463857D01*
X192492334Y-91606714D01*
X192444715Y-91701952D01*
X192397096Y-91749571D01*
X192301858Y-91797190D01*
X191920905Y-91797190D01*
X193063762Y-91701952D02*
X192968524Y-91654333D01*
X192920905Y-91606714D01*
X192873286Y-91511476D01*
X192873286Y-91463857D01*
X192920905Y-91368619D01*
X192968524Y-91321000D01*
X193063762Y-91273381D01*
X193254239Y-91273381D01*
X193349477Y-91321000D01*
X193397096Y-91368619D01*
X193444715Y-91463857D01*
X193444715Y-91511476D01*
X193397096Y-91606714D01*
X193349477Y-91654333D01*
X193254239Y-91701952D01*
X193063762Y-91701952D01*
X192968524Y-91749571D01*
X192920905Y-91797190D01*
X192873286Y-91892429D01*
X192873286Y-92082905D01*
X192920905Y-92178143D01*
X192968524Y-92225762D01*
X193063762Y-92273381D01*
X193254239Y-92273381D01*
X193349477Y-92225762D01*
X193397096Y-92178143D01*
X193444715Y-92082905D01*
X193444715Y-91892429D01*
X193397096Y-91797190D01*
X193349477Y-91749571D01*
X193254239Y-91701952D01*
X234783334Y-86431381D02*
X234450000Y-85955190D01*
X234211905Y-86431381D02*
X234211905Y-85431381D01*
X234592858Y-85431381D01*
X234688096Y-85479000D01*
X234735715Y-85526619D01*
X234783334Y-85621857D01*
X234783334Y-85764714D01*
X234735715Y-85859952D01*
X234688096Y-85907571D01*
X234592858Y-85955190D01*
X234211905Y-85955190D01*
X235259524Y-86431381D02*
X235450000Y-86431381D01*
X235545239Y-86383762D01*
X235592858Y-86336143D01*
X235688096Y-86193286D01*
X235735715Y-86002810D01*
X235735715Y-85621857D01*
X235688096Y-85526619D01*
X235640477Y-85479000D01*
X235545239Y-85431381D01*
X235354762Y-85431381D01*
X235259524Y-85479000D01*
X235211905Y-85526619D01*
X235164286Y-85621857D01*
X235164286Y-85859952D01*
X235211905Y-85955190D01*
X235259524Y-86002810D01*
X235354762Y-86050429D01*
X235545239Y-86050429D01*
X235640477Y-86002810D01*
X235688096Y-85955190D01*
X235735715Y-85859952D01*
X214495143Y-95062381D02*
X214161809Y-94586190D01*
X213923714Y-95062381D02*
X213923714Y-94062381D01*
X214304667Y-94062381D01*
X214399905Y-94110000D01*
X214447524Y-94157619D01*
X214495143Y-94252857D01*
X214495143Y-94395714D01*
X214447524Y-94490952D01*
X214399905Y-94538571D01*
X214304667Y-94586190D01*
X213923714Y-94586190D01*
X215447524Y-95062381D02*
X214876095Y-95062381D01*
X215161809Y-95062381D02*
X215161809Y-94062381D01*
X215066571Y-94205238D01*
X214971333Y-94300476D01*
X214876095Y-94348095D01*
X216066571Y-94062381D02*
X216161810Y-94062381D01*
X216257048Y-94110000D01*
X216304667Y-94157619D01*
X216352286Y-94252857D01*
X216399905Y-94443333D01*
X216399905Y-94681429D01*
X216352286Y-94871905D01*
X216304667Y-94967143D01*
X216257048Y-95014762D01*
X216161810Y-95062381D01*
X216066571Y-95062381D01*
X215971333Y-95014762D01*
X215923714Y-94967143D01*
X215876095Y-94871905D01*
X215828476Y-94681429D01*
X215828476Y-94443333D01*
X215876095Y-94252857D01*
X215923714Y-94157619D01*
X215971333Y-94110000D01*
X216066571Y-94062381D01*
X206192381Y-98432857D02*
X205716190Y-98766191D01*
X206192381Y-99004286D02*
X205192381Y-99004286D01*
X205192381Y-98623333D01*
X205240000Y-98528095D01*
X205287619Y-98480476D01*
X205382857Y-98432857D01*
X205525714Y-98432857D01*
X205620952Y-98480476D01*
X205668571Y-98528095D01*
X205716190Y-98623333D01*
X205716190Y-99004286D01*
X206192381Y-97480476D02*
X206192381Y-98051905D01*
X206192381Y-97766191D02*
X205192381Y-97766191D01*
X205335238Y-97861429D01*
X205430476Y-97956667D01*
X205478095Y-98051905D01*
X206192381Y-96528095D02*
X206192381Y-97099524D01*
X206192381Y-96813810D02*
X205192381Y-96813810D01*
X205335238Y-96909048D01*
X205430476Y-97004286D01*
X205478095Y-97099524D01*
X194175143Y-95702381D02*
X193841809Y-95226190D01*
X193603714Y-95702381D02*
X193603714Y-94702381D01*
X193984667Y-94702381D01*
X194079905Y-94750000D01*
X194127524Y-94797619D01*
X194175143Y-94892857D01*
X194175143Y-95035714D01*
X194127524Y-95130952D01*
X194079905Y-95178571D01*
X193984667Y-95226190D01*
X193603714Y-95226190D01*
X195127524Y-95702381D02*
X194556095Y-95702381D01*
X194841809Y-95702381D02*
X194841809Y-94702381D01*
X194746571Y-94845238D01*
X194651333Y-94940476D01*
X194556095Y-94988095D01*
X195460857Y-94702381D02*
X196079905Y-94702381D01*
X195746571Y-95083333D01*
X195889429Y-95083333D01*
X195984667Y-95130952D01*
X196032286Y-95178571D01*
X196079905Y-95273810D01*
X196079905Y-95511905D01*
X196032286Y-95607143D01*
X195984667Y-95654762D01*
X195889429Y-95702381D01*
X195603714Y-95702381D01*
X195508476Y-95654762D01*
X195460857Y-95607143D01*
X233497381Y-64904857D02*
X233021190Y-65238191D01*
X233497381Y-65476286D02*
X232497381Y-65476286D01*
X232497381Y-65095333D01*
X232545000Y-65000095D01*
X232592619Y-64952476D01*
X232687857Y-64904857D01*
X232830714Y-64904857D01*
X232925952Y-64952476D01*
X232973571Y-65000095D01*
X233021190Y-65095333D01*
X233021190Y-65476286D01*
X233497381Y-63952476D02*
X233497381Y-64523905D01*
X233497381Y-64238191D02*
X232497381Y-64238191D01*
X232640238Y-64333429D01*
X232735476Y-64428667D01*
X232783095Y-64523905D01*
X232830714Y-63095333D02*
X233497381Y-63095333D01*
X232449762Y-63333429D02*
X233164048Y-63571524D01*
X233164048Y-62952476D01*
X203446143Y-102306381D02*
X203112809Y-101830190D01*
X202874714Y-102306381D02*
X202874714Y-101306381D01*
X203255667Y-101306381D01*
X203350905Y-101354000D01*
X203398524Y-101401619D01*
X203446143Y-101496857D01*
X203446143Y-101639714D01*
X203398524Y-101734952D01*
X203350905Y-101782571D01*
X203255667Y-101830190D01*
X202874714Y-101830190D01*
X204398524Y-102306381D02*
X203827095Y-102306381D01*
X204112809Y-102306381D02*
X204112809Y-101306381D01*
X204017571Y-101449238D01*
X203922333Y-101544476D01*
X203827095Y-101592095D01*
X205303286Y-101306381D02*
X204827095Y-101306381D01*
X204779476Y-101782571D01*
X204827095Y-101734952D01*
X204922333Y-101687333D01*
X205160429Y-101687333D01*
X205255667Y-101734952D01*
X205303286Y-101782571D01*
X205350905Y-101877810D01*
X205350905Y-102115905D01*
X205303286Y-102211143D01*
X205255667Y-102258762D01*
X205160429Y-102306381D01*
X204922333Y-102306381D01*
X204827095Y-102258762D01*
X204779476Y-102211143D01*
X190365143Y-76398381D02*
X190031809Y-75922190D01*
X189793714Y-76398381D02*
X189793714Y-75398381D01*
X190174667Y-75398381D01*
X190269905Y-75446000D01*
X190317524Y-75493619D01*
X190365143Y-75588857D01*
X190365143Y-75731714D01*
X190317524Y-75826952D01*
X190269905Y-75874571D01*
X190174667Y-75922190D01*
X189793714Y-75922190D01*
X191317524Y-76398381D02*
X190746095Y-76398381D01*
X191031809Y-76398381D02*
X191031809Y-75398381D01*
X190936571Y-75541238D01*
X190841333Y-75636476D01*
X190746095Y-75684095D01*
X192174667Y-75398381D02*
X191984190Y-75398381D01*
X191888952Y-75446000D01*
X191841333Y-75493619D01*
X191746095Y-75636476D01*
X191698476Y-75826952D01*
X191698476Y-76207905D01*
X191746095Y-76303143D01*
X191793714Y-76350762D01*
X191888952Y-76398381D01*
X192079429Y-76398381D01*
X192174667Y-76350762D01*
X192222286Y-76303143D01*
X192269905Y-76207905D01*
X192269905Y-75969810D01*
X192222286Y-75874571D01*
X192174667Y-75826952D01*
X192079429Y-75779333D01*
X191888952Y-75779333D01*
X191793714Y-75826952D01*
X191746095Y-75874571D01*
X191698476Y-75969810D01*
X205605143Y-89855381D02*
X205271809Y-89379190D01*
X205033714Y-89855381D02*
X205033714Y-88855381D01*
X205414667Y-88855381D01*
X205509905Y-88903000D01*
X205557524Y-88950619D01*
X205605143Y-89045857D01*
X205605143Y-89188714D01*
X205557524Y-89283952D01*
X205509905Y-89331571D01*
X205414667Y-89379190D01*
X205033714Y-89379190D01*
X205986095Y-88950619D02*
X206033714Y-88903000D01*
X206128952Y-88855381D01*
X206367048Y-88855381D01*
X206462286Y-88903000D01*
X206509905Y-88950619D01*
X206557524Y-89045857D01*
X206557524Y-89141095D01*
X206509905Y-89283952D01*
X205938476Y-89855381D01*
X206557524Y-89855381D01*
X206890857Y-88855381D02*
X207509905Y-88855381D01*
X207176571Y-89236333D01*
X207319429Y-89236333D01*
X207414667Y-89283952D01*
X207462286Y-89331571D01*
X207509905Y-89426810D01*
X207509905Y-89664905D01*
X207462286Y-89760143D01*
X207414667Y-89807762D01*
X207319429Y-89855381D01*
X207033714Y-89855381D01*
X206938476Y-89807762D01*
X206890857Y-89760143D01*
X203398381Y-90050857D02*
X202922190Y-90384191D01*
X203398381Y-90622286D02*
X202398381Y-90622286D01*
X202398381Y-90241333D01*
X202446000Y-90146095D01*
X202493619Y-90098476D01*
X202588857Y-90050857D01*
X202731714Y-90050857D01*
X202826952Y-90098476D01*
X202874571Y-90146095D01*
X202922190Y-90241333D01*
X202922190Y-90622286D01*
X202493619Y-89669905D02*
X202446000Y-89622286D01*
X202398381Y-89527048D01*
X202398381Y-89288952D01*
X202446000Y-89193714D01*
X202493619Y-89146095D01*
X202588857Y-89098476D01*
X202684095Y-89098476D01*
X202826952Y-89146095D01*
X203398381Y-89717524D01*
X203398381Y-89098476D01*
X202731714Y-88241333D02*
X203398381Y-88241333D01*
X202350762Y-88479429D02*
X203065048Y-88717524D01*
X203065048Y-88098476D01*
X214447381Y-76842857D02*
X213971190Y-77176191D01*
X214447381Y-77414286D02*
X213447381Y-77414286D01*
X213447381Y-77033333D01*
X213495000Y-76938095D01*
X213542619Y-76890476D01*
X213637857Y-76842857D01*
X213780714Y-76842857D01*
X213875952Y-76890476D01*
X213923571Y-76938095D01*
X213971190Y-77033333D01*
X213971190Y-77414286D01*
X213542619Y-76461905D02*
X213495000Y-76414286D01*
X213447381Y-76319048D01*
X213447381Y-76080952D01*
X213495000Y-75985714D01*
X213542619Y-75938095D01*
X213637857Y-75890476D01*
X213733095Y-75890476D01*
X213875952Y-75938095D01*
X214447381Y-76509524D01*
X214447381Y-75890476D01*
X213447381Y-74985714D02*
X213447381Y-75461905D01*
X213923571Y-75509524D01*
X213875952Y-75461905D01*
X213828333Y-75366667D01*
X213828333Y-75128571D01*
X213875952Y-75033333D01*
X213923571Y-74985714D01*
X214018810Y-74938095D01*
X214256905Y-74938095D01*
X214352143Y-74985714D01*
X214399762Y-75033333D01*
X214447381Y-75128571D01*
X214447381Y-75366667D01*
X214399762Y-75461905D01*
X214352143Y-75509524D01*
X206452381Y-78642857D02*
X205976190Y-78976191D01*
X206452381Y-79214286D02*
X205452381Y-79214286D01*
X205452381Y-78833333D01*
X205500000Y-78738095D01*
X205547619Y-78690476D01*
X205642857Y-78642857D01*
X205785714Y-78642857D01*
X205880952Y-78690476D01*
X205928571Y-78738095D01*
X205976190Y-78833333D01*
X205976190Y-79214286D01*
X205547619Y-78261905D02*
X205500000Y-78214286D01*
X205452381Y-78119048D01*
X205452381Y-77880952D01*
X205500000Y-77785714D01*
X205547619Y-77738095D01*
X205642857Y-77690476D01*
X205738095Y-77690476D01*
X205880952Y-77738095D01*
X206452381Y-78309524D01*
X206452381Y-77690476D01*
X205452381Y-76833333D02*
X205452381Y-77023810D01*
X205500000Y-77119048D01*
X205547619Y-77166667D01*
X205690476Y-77261905D01*
X205880952Y-77309524D01*
X206261905Y-77309524D01*
X206357143Y-77261905D01*
X206404762Y-77214286D01*
X206452381Y-77119048D01*
X206452381Y-76928571D01*
X206404762Y-76833333D01*
X206357143Y-76785714D01*
X206261905Y-76738095D01*
X206023810Y-76738095D01*
X205928571Y-76785714D01*
X205880952Y-76833333D01*
X205833333Y-76928571D01*
X205833333Y-77119048D01*
X205880952Y-77214286D01*
X205928571Y-77261905D01*
X206023810Y-77309524D01*
X208952381Y-68142857D02*
X208476190Y-68476191D01*
X208952381Y-68714286D02*
X207952381Y-68714286D01*
X207952381Y-68333333D01*
X208000000Y-68238095D01*
X208047619Y-68190476D01*
X208142857Y-68142857D01*
X208285714Y-68142857D01*
X208380952Y-68190476D01*
X208428571Y-68238095D01*
X208476190Y-68333333D01*
X208476190Y-68714286D01*
X208047619Y-67761905D02*
X208000000Y-67714286D01*
X207952381Y-67619048D01*
X207952381Y-67380952D01*
X208000000Y-67285714D01*
X208047619Y-67238095D01*
X208142857Y-67190476D01*
X208238095Y-67190476D01*
X208380952Y-67238095D01*
X208952381Y-67809524D01*
X208952381Y-67190476D01*
X207952381Y-66857143D02*
X207952381Y-66190476D01*
X208952381Y-66619048D01*
X210357143Y-73452381D02*
X210023809Y-72976190D01*
X209785714Y-73452381D02*
X209785714Y-72452381D01*
X210166667Y-72452381D01*
X210261905Y-72500000D01*
X210309524Y-72547619D01*
X210357143Y-72642857D01*
X210357143Y-72785714D01*
X210309524Y-72880952D01*
X210261905Y-72928571D01*
X210166667Y-72976190D01*
X209785714Y-72976190D01*
X210738095Y-72547619D02*
X210785714Y-72500000D01*
X210880952Y-72452381D01*
X211119048Y-72452381D01*
X211214286Y-72500000D01*
X211261905Y-72547619D01*
X211309524Y-72642857D01*
X211309524Y-72738095D01*
X211261905Y-72880952D01*
X210690476Y-73452381D01*
X211309524Y-73452381D01*
X211880952Y-72880952D02*
X211785714Y-72833333D01*
X211738095Y-72785714D01*
X211690476Y-72690476D01*
X211690476Y-72642857D01*
X211738095Y-72547619D01*
X211785714Y-72500000D01*
X211880952Y-72452381D01*
X212071429Y-72452381D01*
X212166667Y-72500000D01*
X212214286Y-72547619D01*
X212261905Y-72642857D01*
X212261905Y-72690476D01*
X212214286Y-72785714D01*
X212166667Y-72833333D01*
X212071429Y-72880952D01*
X211880952Y-72880952D01*
X211785714Y-72928571D01*
X211738095Y-72976190D01*
X211690476Y-73071429D01*
X211690476Y-73261905D01*
X211738095Y-73357143D01*
X211785714Y-73404762D01*
X211880952Y-73452381D01*
X212071429Y-73452381D01*
X212166667Y-73404762D01*
X212214286Y-73357143D01*
X212261905Y-73261905D01*
X212261905Y-73071429D01*
X212214286Y-72976190D01*
X212166667Y-72928571D01*
X212071429Y-72880952D01*
X194016381Y-68198905D02*
X194825905Y-68198905D01*
X194921143Y-68151286D01*
X194968762Y-68103667D01*
X195016381Y-68008429D01*
X195016381Y-67817952D01*
X194968762Y-67722714D01*
X194921143Y-67675095D01*
X194825905Y-67627476D01*
X194016381Y-67627476D01*
X195016381Y-66627476D02*
X195016381Y-67198905D01*
X195016381Y-66913191D02*
X194016381Y-66913191D01*
X194159238Y-67008429D01*
X194254476Y-67103667D01*
X194302095Y-67198905D01*
M02*
