M48
;DRILL file {KiCad 0.201512031508+6343~38~ubuntu15.10.1-stable} date Fr 04 Dez 2015 20:55:11 CET
;FORMAT={2:4/ absolute / inch / suppress leading zeros}
FMAT,2
INCH,TZ
T1C0.012
T2C0.025
T3C0.031
T4C0.039
T5C0.040
T6C0.079
T7C0.118
%
G90
G05
M72
T1
X80206Y-28113
X80206Y-28506
X80600Y-27719
X80600Y-28113
X80600Y-28506
X80600Y-28900
X80994Y-27719
X80994Y-28113
X80994Y-28506
X80994Y-28900
X81387Y-27719
X81387Y-28113
X81387Y-28506
X81387Y-28900
X86200Y-23150
X86200Y-23550
X86200Y-23875
X86200Y-26350
X86200Y-26750
X86200Y-27075
X86200Y-30625
X86200Y-30950
X86200Y-31350
X86200Y-33925
X86200Y-34250
X86200Y-34650
X86200Y-35950
X86200Y-36350
X86200Y-36675
X86200Y-39350
X86200Y-39750
X86200Y-40075
X86500Y-23150
X86500Y-23550
X86500Y-23875
X86500Y-26350
X86500Y-26750
X86500Y-27075
X86500Y-30625
X86500Y-30950
X86500Y-31350
X86500Y-33925
X86500Y-34250
X86500Y-34650
X86500Y-35950
X86500Y-36350
X86500Y-36675
X86500Y-39350
X86500Y-39750
X86500Y-40075
X86800Y-23150
X86800Y-23550
X86800Y-23875
X86800Y-26350
X86800Y-26750
X86800Y-27075
X86800Y-30625
X86800Y-30950
X86800Y-31350
X86800Y-33925
X86800Y-34250
X86800Y-34650
X86800Y-35950
X86800Y-36350
X86800Y-36675
X86800Y-39350
X86800Y-39750
X86800Y-40075
X87100Y-23150
X87100Y-23550
X87100Y-23875
X87100Y-26350
X87100Y-26750
X87100Y-27075
X87100Y-30625
X87100Y-30950
X87100Y-31350
X87100Y-33925
X87100Y-34250
X87100Y-34650
X87100Y-35950
X87100Y-36350
X87100Y-36675
X87100Y-39350
X87100Y-39750
X87100Y-40075
X87400Y-23150
X87400Y-23550
X87400Y-23875
X87400Y-26350
X87400Y-26750
X87400Y-27075
X87400Y-30625
X87400Y-30950
X87400Y-31350
X87400Y-33925
X87400Y-34250
X87400Y-34650
X87400Y-35950
X87400Y-36350
X87400Y-36675
X87400Y-39350
X87400Y-39750
X87400Y-40075
X88600Y-23150
X88600Y-23550
X88600Y-23875
X88600Y-26350
X88600Y-26750
X88600Y-27075
X88600Y-30625
X88600Y-30950
X88600Y-31350
X88600Y-33925
X88600Y-34250
X88600Y-34650
X88600Y-35950
X88600Y-36350
X88600Y-36675
X88600Y-39350
X88600Y-39750
X88600Y-40075
X88900Y-23150
X88900Y-23550
X88900Y-23875
X88900Y-26350
X88900Y-26750
X88900Y-27075
X88900Y-30625
X88900Y-30950
X88900Y-31350
X88900Y-33925
X88900Y-34250
X88900Y-34650
X88900Y-35950
X88900Y-36350
X88900Y-36675
X88900Y-39350
X88900Y-39750
X88900Y-40075
X89200Y-23150
X89200Y-23550
X89200Y-23875
X89200Y-26350
X89200Y-26750
X89200Y-27075
X89200Y-30625
X89200Y-30950
X89200Y-31350
X89200Y-33925
X89200Y-34250
X89200Y-34650
X89200Y-35950
X89200Y-36350
X89200Y-36675
X89200Y-39350
X89200Y-39750
X89200Y-40075
X89500Y-23150
X89500Y-23550
X89500Y-23875
X89500Y-26350
X89500Y-26750
X89500Y-27075
X89500Y-30625
X89500Y-30950
X89500Y-31350
X89500Y-33925
X89500Y-34250
X89500Y-34650
X89500Y-35950
X89500Y-36350
X89500Y-36675
X89500Y-39350
X89500Y-39750
X89500Y-40075
X89800Y-23150
X89800Y-23550
X89800Y-23875
X89800Y-26350
X89800Y-26750
X89800Y-27075
X89800Y-30625
X89800Y-30950
X89800Y-31350
X89800Y-33925
X89800Y-34250
X89800Y-34650
X89800Y-35950
X89800Y-36350
X89800Y-36675
X89800Y-39350
X89800Y-39750
X89800Y-40075
T2
X73900Y-32700
X73900Y-35100
X74300Y-32400
X74800Y-29900
X75200Y-27750
X75650Y-31500
X75700Y-33000
X75700Y-38225
X76100Y-32700
X76228Y-30128
X76300Y-33500
X76500Y-31600
X76500Y-33100
X77000Y-29300
X77200Y-28200
X77200Y-33500
X77275Y-37725
X77500Y-32600
X77500Y-39300
X77700Y-25200
X77700Y-31700
X77800Y-37400
X78300Y-40100
X78400Y-20500
X78400Y-30800
X78600Y-28600
X78800Y-27450
X78800Y-35200
X78900Y-34000
X79200Y-37700
X79300Y-38500
X79300Y-39500
X79400Y-24200
X79400Y-35600
X79900Y-31700
X79900Y-36200
X80000Y-27100
X80800Y-26100
X80900Y-26600
X80900Y-30450
X81250Y-39900
X81700Y-42500
X82600Y-23100
X83200Y-36500
X83350Y-32450
X83400Y-25600
X83400Y-37000
X83400Y-38500
X83500Y-24700
X83800Y-30400
X83900Y-27600
X84200Y-24400
X84200Y-29500
X84200Y-33500
X84600Y-40000
X84800Y-28850
X84900Y-27400
X85000Y-25600
X85200Y-24900
X85200Y-37000
X85200Y-37500
X85350Y-28850
X85400Y-38000
X85600Y-30100
X85700Y-33400
X86000Y-41800
X86050Y-32100
X86100Y-25600
X86100Y-38500
X86500Y-41800
X86600Y-25600
X86600Y-32100
X86600Y-38500
X86750Y-28850
X87000Y-41800
X87100Y-25600
X87100Y-32100
X87100Y-38500
X87450Y-42000
X87600Y-25600
X87600Y-32100
X87600Y-38500
X87800Y-37200
X87900Y-27700
X87900Y-30100
X87950Y-42000
X88000Y-24400
X88000Y-28850
X88000Y-33400
X88000Y-35300
X88000Y-40600
X88400Y-41800
X88500Y-25600
X88500Y-32100
X88500Y-38500
X88900Y-41800
X88950Y-28850
X89000Y-25600
X89000Y-32100
X89000Y-38500
X89400Y-41800
X89500Y-25600
X89500Y-32100
X89500Y-38500
X90000Y-25600
X90000Y-32100
X90000Y-38500
X90300Y-24400
X90300Y-27700
X90400Y-37200
X90400Y-40600
X92600Y-26500
T3
X85850Y-21100
X87346Y-21100
T4
X74500Y-39798
T5
X75300Y-42900
X76300Y-42900
X76500Y-20400
X76500Y-21400
X77300Y-42900
X77500Y-20400
X77500Y-21400
T7
X74500Y-20900
X91429Y-20900
X91429Y-42357
T6
X80008Y-21000G85X80992Y-21000
G05
X83118Y-21000G85X84102Y-21000
G05
X91600Y-29472G85X91600Y-28487
G05
X91600Y-32582G85X91600Y-31598
G05
X91600Y-35692G85X91600Y-34708
G05
T0
M30
