M48
;DRILL file {KiCad 0.201511171411+6319~30~ubuntu15.10.1-product} date Fr 04 Dez 2015 11:44:46 CET
;FORMAT={3:3/ absolute / metric / suppress leading zeros}
FMAT,2
METRIC,TZ
T1C0.300
T2C0.635
T3C0.800
T4C1.000
T5C1.016
T6C2.000
T7C3.000
%
G90
G05
M71
T1
X203724Y-71406
X203724Y-72406
X204724Y-70406
X204724Y-71406
X204724Y-72406
X204724Y-73406
X205724Y-70406
X205724Y-71406
X205724Y-72406
X205724Y-73406
X206724Y-70406
X206724Y-71406
X206724Y-72406
X206724Y-73406
X218948Y-58801
X218948Y-59817
X218948Y-60643
X218948Y-66929
X218948Y-67945
X218948Y-68771
X218948Y-77788
X218948Y-78613
X218948Y-79629
X218948Y-86169
X218948Y-86995
X218948Y-88011
X218948Y-91313
X218948Y-92329
X218948Y-93154
X218948Y-99949
X218948Y-100965
X218948Y-101791
X219710Y-58801
X219710Y-59817
X219710Y-60643
X219710Y-66929
X219710Y-67945
X219710Y-68771
X219710Y-77788
X219710Y-78613
X219710Y-79629
X219710Y-86169
X219710Y-86995
X219710Y-88011
X219710Y-91313
X219710Y-92329
X219710Y-93154
X219710Y-99949
X219710Y-100965
X219710Y-101791
X220472Y-58801
X220472Y-59817
X220472Y-60643
X220472Y-66929
X220472Y-67945
X220472Y-68771
X220472Y-77788
X220472Y-78613
X220472Y-79629
X220472Y-86169
X220472Y-86995
X220472Y-88011
X220472Y-91313
X220472Y-92329
X220472Y-93154
X220472Y-99949
X220472Y-100965
X220472Y-101791
X221234Y-58801
X221234Y-59817
X221234Y-60643
X221234Y-66929
X221234Y-67945
X221234Y-68771
X221234Y-77788
X221234Y-78613
X221234Y-79629
X221234Y-86169
X221234Y-86995
X221234Y-88011
X221234Y-91313
X221234Y-92329
X221234Y-93154
X221234Y-99949
X221234Y-100965
X221234Y-101791
X221996Y-58801
X221996Y-59817
X221996Y-60643
X221996Y-66929
X221996Y-67945
X221996Y-68771
X221996Y-77788
X221996Y-78613
X221996Y-79629
X221996Y-86169
X221996Y-86995
X221996Y-88011
X221996Y-91313
X221996Y-92329
X221996Y-93154
X221996Y-99949
X221996Y-100965
X221996Y-101791
X225044Y-58801
X225044Y-59817
X225044Y-60643
X225044Y-66929
X225044Y-67945
X225044Y-68771
X225044Y-77788
X225044Y-78613
X225044Y-79629
X225044Y-86169
X225044Y-86995
X225044Y-88011
X225044Y-91313
X225044Y-92329
X225044Y-93154
X225044Y-99949
X225044Y-100965
X225044Y-101791
X225806Y-58801
X225806Y-59817
X225806Y-60643
X225806Y-66929
X225806Y-67945
X225806Y-68771
X225806Y-77788
X225806Y-78613
X225806Y-79629
X225806Y-86169
X225806Y-86995
X225806Y-88011
X225806Y-91313
X225806Y-92329
X225806Y-93154
X225806Y-99949
X225806Y-100965
X225806Y-101791
X226568Y-58801
X226568Y-59817
X226568Y-60643
X226568Y-66929
X226568Y-67945
X226568Y-68771
X226568Y-77788
X226568Y-78613
X226568Y-79629
X226568Y-86169
X226568Y-86995
X226568Y-88011
X226568Y-91313
X226568Y-92329
X226568Y-93154
X226568Y-99949
X226568Y-100965
X226568Y-101791
X227330Y-58801
X227330Y-59817
X227330Y-60643
X227330Y-66929
X227330Y-67945
X227330Y-68771
X227330Y-77788
X227330Y-78613
X227330Y-79629
X227330Y-86169
X227330Y-86995
X227330Y-88011
X227330Y-91313
X227330Y-92329
X227330Y-93154
X227330Y-99949
X227330Y-100965
X227330Y-101791
X228092Y-58801
X228092Y-59817
X228092Y-60643
X228092Y-66929
X228092Y-67945
X228092Y-68771
X228092Y-77788
X228092Y-78613
X228092Y-79629
X228092Y-86169
X228092Y-86995
X228092Y-88011
X228092Y-91313
X228092Y-92329
X228092Y-93154
X228092Y-99949
X228092Y-100965
X228092Y-101791
T2
X187706Y-83058
X187706Y-89154
X188722Y-82296
X189992Y-75946
X191008Y-70485
X192151Y-80010
X192278Y-83820
X192278Y-97092
X193294Y-83058
X193618Y-76524
X193802Y-85090
X194310Y-80264
X194310Y-84074
X195580Y-74422
X196088Y-71628
X196088Y-85090
X196279Y-95822
X196850Y-82804
X196850Y-99822
X197358Y-64008
X197358Y-80518
X197612Y-94996
X198882Y-101854
X199136Y-52070
X199136Y-78232
X199644Y-72644
X200152Y-69723
X200152Y-89408
X200406Y-86360
X201168Y-95758
X201422Y-97790
X201422Y-100330
X201676Y-61468
X201676Y-90424
X202946Y-80518
X202946Y-91948
X203200Y-68834
X205232Y-66294
X205486Y-67564
X205486Y-77343
X206375Y-101346
X207518Y-107950
X209804Y-58674
X211328Y-92710
X211709Y-82423
X211836Y-65024
X211836Y-93980
X211836Y-97790
X212090Y-62738
X212852Y-77216
X213106Y-70104
X213868Y-61976
X213868Y-74930
X213868Y-85090
X214884Y-101600
X215392Y-73279
X215646Y-69596
X215900Y-65024
X216408Y-63246
X216408Y-93980
X216408Y-95250
X216789Y-73279
X216916Y-96520
X217424Y-76454
X217678Y-84836
X218440Y-106172
X218567Y-81534
X218694Y-65024
X218694Y-97790
X219710Y-106172
X219964Y-65024
X219964Y-81534
X219964Y-97790
X220345Y-73279
X220980Y-106172
X221234Y-65024
X221234Y-81534
X221234Y-97790
X222123Y-106680
X222504Y-65024
X222504Y-81534
X222504Y-97790
X223012Y-94488
X223266Y-70358
X223266Y-76454
X223393Y-106680
X223520Y-61976
X223520Y-73279
X223520Y-84836
X223520Y-89662
X223520Y-103124
X224536Y-106172
X224790Y-65024
X224790Y-81534
X224790Y-97790
X225806Y-106172
X225933Y-73279
X226060Y-65024
X226060Y-81534
X226060Y-97790
X227076Y-106172
X227330Y-65024
X227330Y-81534
X227330Y-97790
X228600Y-65024
X228600Y-81534
X228600Y-97790
X229362Y-61976
X229362Y-70358
X229616Y-94488
X229616Y-103124
X235204Y-67310
T3
X218059Y-53594
X221859Y-53594
T4
X189230Y-101086
T5
X191262Y-108966
X193802Y-108966
X194310Y-51816
X194310Y-54356
X196342Y-108966
X196850Y-51816
X196850Y-54356
T7
X189230Y-53086
X232230Y-53086
X232230Y-107586
T6
X203220Y-53340G85X205720Y-53340
G05
X211120Y-53340G85X213620Y-53340
G05
X232664Y-74858G85X232664Y-72358
G05
X232664Y-82758G85X232664Y-80258
G05
X232664Y-90658G85X232664Y-88158
G05
T0
M30
